<mxfile host="app.diagrams.net" agent="Mozilla/5.0 (Windows NT 10.0; Win64; x64) AppleWebKit/537.36 (KHTML, like Gecko) Chrome/138.0.0.0 Safari/537.36" version="28.0.7">
  <diagram name="ページ1" id="icxKWV68Lptp2V7BWeTV">
    <mxGraphModel dx="884" dy="957" grid="1" gridSize="10" guides="1" tooltips="1" connect="1" arrows="1" fold="1" page="1" pageScale="1" pageWidth="827" pageHeight="1169" math="0" shadow="0">
      <root>
        <mxCell id="0" />
        <mxCell id="1" parent="0" />
        <mxCell id="GsARXMGo50Wr0_jEXAOD-20" style="edgeStyle=orthogonalEdgeStyle;rounded=0;orthogonalLoop=1;jettySize=auto;html=1;exitX=0.5;exitY=1;exitDx=0;exitDy=0;entryX=0.5;entryY=0;entryDx=0;entryDy=0;" edge="1" parent="1" source="SPEBwzLu4rv3OZKQe74t-1" target="SPEBwzLu4rv3OZKQe74t-3">
          <mxGeometry relative="1" as="geometry" />
        </mxCell>
        <mxCell id="SPEBwzLu4rv3OZKQe74t-1" value="クライアント&lt;div&gt;(Webブラウザ/スマホ等)&lt;/div&gt;" style="rounded=1;whiteSpace=wrap;html=1;" parent="1" vertex="1">
          <mxGeometry x="120" y="80" width="200" height="80" as="geometry" />
        </mxCell>
        <mxCell id="GsARXMGo50Wr0_jEXAOD-6" style="edgeStyle=orthogonalEdgeStyle;rounded=0;orthogonalLoop=1;jettySize=auto;html=1;exitX=0.5;exitY=1;exitDx=0;exitDy=0;entryX=0.5;entryY=0;entryDx=0;entryDy=0;startArrow=classic;startFill=1;" edge="1" parent="1" source="SPEBwzLu4rv3OZKQe74t-3" target="SPEBwzLu4rv3OZKQe74t-11">
          <mxGeometry relative="1" as="geometry" />
        </mxCell>
        <mxCell id="GsARXMGo50Wr0_jEXAOD-14" style="edgeStyle=orthogonalEdgeStyle;rounded=0;orthogonalLoop=1;jettySize=auto;html=1;exitX=1;exitY=0.5;exitDx=0;exitDy=0;entryX=0;entryY=0.5;entryDx=0;entryDy=0;" edge="1" parent="1" source="SPEBwzLu4rv3OZKQe74t-3" target="SPEBwzLu4rv3OZKQe74t-24">
          <mxGeometry relative="1" as="geometry" />
        </mxCell>
        <mxCell id="SPEBwzLu4rv3OZKQe74t-3" value="" style="rounded=1;whiteSpace=wrap;html=1;" parent="1" vertex="1">
          <mxGeometry x="120" y="240" width="200" height="140" as="geometry" />
        </mxCell>
        <mxCell id="SPEBwzLu4rv3OZKQe74t-9" value="" style="rounded=1;whiteSpace=wrap;html=1;container=0;" parent="1" vertex="1">
          <mxGeometry x="130" y="290" width="180" height="76.5" as="geometry">
            <mxRectangle x="90" y="310" width="50" height="40" as="alternateBounds" />
          </mxGeometry>
        </mxCell>
        <mxCell id="GsARXMGo50Wr0_jEXAOD-9" style="edgeStyle=orthogonalEdgeStyle;rounded=0;orthogonalLoop=1;jettySize=auto;html=1;exitX=0.5;exitY=1;exitDx=0;exitDy=0;entryX=0.5;entryY=0;entryDx=0;entryDy=0;" edge="1" parent="1" source="SPEBwzLu4rv3OZKQe74t-11">
          <mxGeometry relative="1" as="geometry">
            <mxPoint x="220" y="720" as="targetPoint" />
          </mxGeometry>
        </mxCell>
        <mxCell id="SPEBwzLu4rv3OZKQe74t-11" value="" style="rounded=1;whiteSpace=wrap;html=1;" parent="1" vertex="1">
          <mxGeometry x="120" y="470" width="200" height="200" as="geometry" />
        </mxCell>
        <mxCell id="SPEBwzLu4rv3OZKQe74t-13" value="" style="rounded=1;whiteSpace=wrap;html=1;" parent="1" vertex="1">
          <mxGeometry x="140" y="510" width="160" height="140" as="geometry" />
        </mxCell>
        <UserObject label="REST API&lt;br&gt;(fetch/axios)" placeholders="1" name="Variable" id="SPEBwzLu4rv3OZKQe74t-15">
          <mxCell style="text;html=1;strokeColor=none;fillColor=none;align=center;verticalAlign=middle;whiteSpace=wrap;overflow=hidden;" parent="1" vertex="1">
            <mxGeometry x="220" y="400" width="116.88" height="40" as="geometry" />
          </mxCell>
        </UserObject>
        <UserObject label="HTTPS(リクエスト)" placeholders="1" name="Variable" id="SPEBwzLu4rv3OZKQe74t-16">
          <mxCell style="text;html=1;strokeColor=none;fillColor=none;align=center;verticalAlign=middle;whiteSpace=wrap;overflow=hidden;" parent="1" vertex="1">
            <mxGeometry x="223.12" y="191.25" width="130" height="20" as="geometry" />
          </mxCell>
        </UserObject>
        <UserObject label="任意クラウド" placeholders="1" name="Variable" id="SPEBwzLu4rv3OZKQe74t-18">
          <mxCell style="text;html=1;strokeColor=none;fillColor=none;align=center;verticalAlign=middle;whiteSpace=wrap;overflow=hidden;" parent="1" vertex="1">
            <mxGeometry x="180" y="480" width="80" height="20" as="geometry" />
          </mxCell>
        </UserObject>
        <mxCell id="SPEBwzLu4rv3OZKQe74t-24" value="" style="rounded=1;whiteSpace=wrap;html=1;" parent="1" vertex="1">
          <mxGeometry x="440" y="270" width="160" height="80" as="geometry" />
        </mxCell>
        <mxCell id="SPEBwzLu4rv3OZKQe74t-26" value="次期実装&lt;div&gt;&lt;br&gt;&lt;div&gt;ci/cd&lt;/div&gt;&lt;div&gt;エラーログ・モニタリング(Sentry(センチュリー))&lt;/div&gt;&lt;div&gt;&lt;br&gt;&lt;/div&gt;&lt;/div&gt;" style="rounded=1;whiteSpace=wrap;html=1;" parent="1" vertex="1">
          <mxGeometry x="410" y="470" width="190" height="190" as="geometry" />
        </mxCell>
        <mxCell id="GsARXMGo50Wr0_jEXAOD-2" value="" style="shape=image;verticalLabelPosition=bottom;labelBackgroundColor=default;verticalAlign=top;aspect=fixed;imageAspect=0;image=data:image/webp,UklGRsITAABXRUJQVlA4WAoAAAAQAAAAwQEAwQEAQUxQSCoJAAABoMb//+K0+QUS3KnhUENrgbor9Vm90Lm7U+qG1LfU27kT5htdX3N3rXuLBxp0EAKE34Pc/3d3SY7LPelFxASA6n/V/6r/Vf+r/lf9r/pf9b/qf9X/qv9V/6v+V/2v+l/1/3X9alZXsF/xVGi8P0d2eR+FxudLQmmsUvM54UqM6j/Vf9cHFHbnFKUn7Cj+v1zZCT2KiC1ZSk7wJ2jfnK3chH2K3A3LlJrwo8huWK7MhB9FakuWIpON9OZsJSb1OA0blikwkHqChg3LFRhIO07DliyBviJUKhAw5BQNm7O1QkDu5atXuF/xcX2BCXFML0pQfBx3rJdgniGRcdzxEXILhp2mYcMYQbSRsTGc0eD6g1+uLiu1LyvNJwS/VVHKWXb1KYGG3nHo85NlpZyVv/eTW5B6goZLBJHU5FJknyfoG5H9iSDjXitDcts82QVpx2kLpG7gWcI/hHQTwSiAZosZeTbOlF8w5FS3Ry+K117kLctg2OlunHY9ugcg9UT3bUyLuwDSjkuJJqJvAmffSI3z6Q6h2wCG/Gayr/0lUQKSa6zMxlmOMqKJ8DGf2Goh2ubKNAjPSNfr9SOjQAJnI3GNo8T9bLVwtv2fz2cK0lstFovFel4v16R0JiXXUaD/jGmcM6YE83mQUnPvvKnTpk2blpkOioSIOyj3gRvdteyhpCk1BsoQd1omJcf5nqMMch/pwjIWLHtg8dwUf0/BFlGe1zibZxEl0+0QvvKgQcC965+9OaW3KCGTtv9p6bB1YZet3fzVwym+PPwfO2QwGPaWUdpfMXDuK0gQR5u9x8C5r6AfI2rtAYPh+Xc6KWV7DfZ7V4faeWXt32MwGA6uDBIiaOVBg8GwZ3+Wl7x5GAXv+HvtGMF6PPUl8mx9Z66WNB/FzBMn8RqyX2Y8gSI+aTe4CrnvF+J+5K4aLG9yhUNEc164MLN+QiFfj6EsFKVAnIwawnuMXDEK7EaaGEf9+QUcZZhGyJscURB/Gi/EY00o7NlRhAWi5IujNxGMjBwxttiNqGZ0pPNL7mBUD5dz2LCcl+ceFLxspMThJn7r0D2AtVP4PIkiXs2QuItaPn4n3QV4OoI2v0kMPBEvbTiZzwR0G+DzpMhTKO4urkWiFDrcSjEK7EaaCAf57HUj2DIpu5FuunD6iplmHc8xX5QNDpcjRo7dCMpZP5rfOULtSNl0+V1j8TtHjhx56d2vG0lYQuhnIv38YEaYLmbCjisUPMbRc3ux0WgsrqZ0flJktC9+Kdnh0l8vNhqLPmmnXCoy2hcf7G3X6xdC2yLavGbCv9FyqeseYAdMfJFU1Y+1A6lHegD3oO8pthQ75n2UlzTA23G4Ne9R5gHPLQR8xZN0BIn5IJds8wkA2nyK7W5G+G+Ut72AnVpJQANpEuUJcDbYQUnkk1RNOJdAGXCeYB4ln24hQe8/CbidMaONUJkE1Kcof2opMym5zmegDOEDxwh4G2UZEktApsGGLsJbjCeQ+CGQh1USro2SoMxOwss6lvcblBXdmPuKjY5fXHS/40xvJHyq49C9Snmcpj1GsN0nQR5/E8zxrLhrhIveJM1d7xodvXixK2tFp7wQ5zDDTIQvfDn6/Ev5IIHae0E9AXdKEDxEwKWsJUjcCOSEZnT8elfW7hznEx0m5grhcx+OhCoKWqltNqS+JUVRlwglGkYJoXUALQ+dsMOVWZzj7EAnSu4gCV/iIUE6A6E1kSuuhfBeACmw0hkscmIwOuSPYRIEk+pZuIlrNbJttwD5DpR5Qxzj9z5S5P8N4R8O3d+Ef6NIur/l3lDH+K23FMGDNlbTZLvR9YQ8II9vkHtpNof4vY8kRZWxcLNdIbIbR9MOo9wb0OQQvwZJEuwm/NwTwP8bQgmQB17udtic45IzRRyn1L/4nEHQvc/NAGlK7GS1TgGYamF1LaM9i85pc2Xf1pic8aNwJwr4lLIJHFFSNJ+xcCdoNiH7oo6k21Fjcsaab11Z6HC946dn9AQn0mylHOxuwCzCqeDg84Q8DQn809P1Tjg81JW5SIeCmzsJlyO6Gz3PsHDyRGQ3JoIcdqzES4SubaQ+OYVbOPPv1AqV4/rgWcKPPxKM3m4HeJWAXY8TtNuRbRtNyqQYJWBUI4t8M7gfbrISEHeM8uAY8SISW+JIGZS2p2ZOs88c7bo0rwtxItYNof2chLWf7C/Ysvt9E1I/B3JsBQGx3WJvvZbtsmCZVYA8cEPAuA6SoLfQAj4isXe5Lt+/+JlHuSUgV6TvQmiwwiZEvuuCJ/iVgHsisESU1hnAM/wXaelby2uFmwIifhKhK9eDD9zYKinwEp+L3u4KiP5cuPVa4L+mS1Im89kIMmyBg4Dnqjphap4AQRef51XgygK/orUOkE3rCMgn3kT40ZcGMOnTZn7N7w4HgQc8d5nHdkbyVcJZwohmwid8jlD0wsGDtPcCZNPcsxWlnOU/RPPwf8tq4WxvWunJBzwnbztBO/P8ZC0In5Zd+PHpslLOiuMTGMFvdrZZ7NusBwjhRVYLZ3vTk3wWXS0r5az6OlKE/ucptltANntExcdx9wC+QUmJnEkDdCBkxLCsrUXf/fjjtx/uv39sFIgdEBnHHR8B7JDkRO6kAAIEJSVyJg3w4gOxcdwJoSCi7hjl3yj55NweWq1W6wHdyKjjlDxQZguQ2DxaWfEcodfrh07Ieq2F8jYoqpr8GpPJVG22IrUjTVnR/ooCvgQKy48C1KXIm1F3ZWVlZd82QtZ0PKCRNXNMnVar1dpeM1HOvOIBcnZmHTIXyZhXfUHOzjQje4FsqV0Fsna2GWXJryTTwVEga+c0oCzR7Oqwt1pb/zAs6+sBsnZmHZIXygcIGD9mzNiRA+J9dSB3Z5qRvlhGyOfZZqT/FyvI8PyCfM7CqUrEnAakn0wCIb0/RPbJPsrDzDqkn04CQX2+JpTHKg6zzEg/kwwCfU64EqM06KuQXjUSlJdbkV47CxQY/zdJ5pmgxIDfm4TqGaDMgP8bjKoZoNSA7xsctbNAuQGfNxHRPBOUHPB7AysyQdkBv6V6UHocUPWf6r/rMvqKUKHUwMpKE/NDb6Um4tb77uHOANX/qv9V/6v+V/2v+l/1v+p/1f+q/1X/q/5X/a/6X/W/6v/rtAZWUDggcgoAAHBcAJ0BKsIBwgE+MRiKRCIhoREoJDggAwSzt3C6ny7/AJIA0hqAPwA/Wb+AeQB+AH6AcIBAgH4AXuTp32r+V/rx4K2ufCf179ov7H70nKvaJ5V8TcppVvmTeQ/lP+G/sv7d/4X///X/+3/4r2Q+YB+jP+c/u/+D/XruReYD9YP9n/Uvel/y/+A/x3uH/s3qAf0P+sf972ef8r7DX9t/7XsCfxf+mf9P2cP9l/3/8L+//0Z/tr+5PwL/0D+i/9r8+fkA///qAeof/APXP6RfwD8APrN7/AxH4jRxjxGjjHiNHGPEaOMeI0cY8Ro4x4jRxjxGjjHiNHGPEaOMeI0cY8Ro4x4jRxjxGjjHiNHGPEaOMeI0cY8Ro4x4jRxjxGjjHiNHGPEaOMeI0cY8Ro4x4jRxjxGjjHiNHGPEaOMeI0cY8Ro4x4jRxjxGjjHiNHGOrmOgsNaa6fFPxGjjHiNG7FvKIDqA9CNHGPEaOMeExXAJATCLeUNu1X63isDo3YoxithhrTXT4p+EwmGyT4uF4KyQDTyGFOqJMbJ66jE78KtMODy77KBmRI0x+td55YJz/f/xGjioo5V4hfNv7rsVgQFXdUtS3X5DEaWxraV22J/rFkfMM6uPYfvCeIXa60V19VTboOVp2BTvQVilzHAubc3eNJeqE9Dz557e5w8eKySV1i8Jj3uaOMVE+7Q7gW3vdjBaTSq0X6O8CUsrHPvc/APc2JN0bmESJ0dnR5UP9vimPEaOKgLBlh53CyrohLZQh/Azzaa6fFPrHcsOSqkzeaOMeI0cY8Ro4x4TfPwkB1AehGjjHiNHGPEZeQPeiNHGPEaOMeI0cY8Ro4x4jRxjxGjjHiNHGPEaOMeI0cY8Ro4x4jRxjxGjjHiNHGPEaOMeI0cY8Ro4x4jRxjxGjjHiNHGPEaOMeI0cY8Ro4x4jRxjxGjjHiNHGPEaOMeI0cY8Ro4x4jRxjxGjjHiNHGPEaOMeI0cY8Ro4x4jRxigAA/vh0gAAAAAAAAAAABR8ojQqaYmvHiAd/K3pn0DsIeaypCX5EW81lAk2mC1yPb0PBvJLX7mq6tB+aiZzbEhShRc8sY26e2EAEHHhYGgIv2uG2H//LD9k2pDacmWd3MKumqySa/HHw88FyjYOCA+c9iIYKhgiKvullzRh0lCYZrnaHz9JlhkOoL65PYhcOYKhlQljQL1hC/sGnoSyx/JLhLvP2WmgiOU/Hm8BidWPMGEnhcz6udX0b2PxF0bgRgxHNhOwH5yQY9BeOHth2AYQbVmz6LMZ8uO6r143GfHUigDTjEOWbnce9ISwoF266cpKyrcvkMv3rlW5At/VFVgFDLaPIlFVD6UpxQbQAWo2Wrr7fFI//A4XdoRD6kNDtI6l44vQyKPtzMMLuNN4FMic7y1xBKur8H7pRTC+TXHfMNKrI6iP6l3x4eQLV/+VGTVQUilZlijnfjSVhH40skvCCGlZv/iDoPejo6P6LOMzM/wcQGi9vDjahupq52g60Opv5sUoCRif5t3T8KryeziyTvCn9X4nYZYdBz6bWzL483K2p3Z+mJK5+qMgPqbTS5tRPOaIeJlkA8TLrLLk9InrgAdv5SJmPJKq+kDJU4H9359s3B1XcV23D07vAxSXfzdxqza6Lx4144hM9f7/dFXF6WHd5pBvEUNT06mgLNJQHs5HegGYS2V8Hjzuy1qpRl7SVoan041W72pQSuj0u8OGb/Vk5Pkwj8aWSXkGPGbgtvyGvyUTasTyahcJQS4ZMrekEVU+kjjgfPxyYmH5N34ENPkiynK3n+X8fT2Ut5QlSZdRBRk0BrsJzU2nHLUFgt8bp4ivvPMdIw18d/JTW7x8ICXfLP3IlrmmWONSCXYzJofCwHKA1u9sCAx6wleem5tEF1kgxJsZG51IJAc1mctcDjaQ44OwNHklSWSSCpi+pWmRlrmx+TSGF6CHhTHsyUrIqSERJlVVFuOo7DFkZSVyxxG+Vsj/OkCcTArR+l6058gS/fWWiqHHnf/4YmrodULgKa+6+B29EWKxeKSj4w5mgI0vXBAACov9WSiBHpAoInVlCtcV6xaCQtYG2fVjGMcZiZgAv1L56o8nZ4Kk7OnxReJ8FclDBRbtOEYwJANCkqbUe2tn0L4ajRz+wZ1yPISemeRwO82BY1C6/9KpVWkkAoWmjjsNnyPl7w/bPE0CjGuS9tEcNZTBCAcbMNWqxhiueAViCudKu5a2A4O2RJLsIi595Jg8Pl3/U3eSvzmA8pwo57ez0CxUW8ue/ND/kiN/+KXfmh/yQwHkCa8CJIhuQp/i/Mh+CC3+JaP/AbO/vgm2StbozX9QeQ+4QdPo8HPHrT3ikbkg7uG+25hi1+s2mi0YHD/majpo9SExVi1STXNefQyTxRfhOi3j+KnDrzWaIYfZtUsvjZad+pFQNke4F04fEsjModPaAhEoWDU3Mg9tZdRpvDBSrWNfUnokVk1opHGlh3p8cl+ZLvgCnAje6xxR8dF+HAxXrkHjFHF6Jsh0x1cwp/oTdKfkeYB9NX7sXFwxr49dgSbO4vQXiYMf4eno2Z8gpncTjzgty6pqIFjEMChthfcb5XwsBnIbLsV80gCVei7UfqQfnELtfrgZW/AhJ//lx2w7RmYxjqb5QyXZGJ61HAudfcd6eJPF2SfPpP7nymTr271iQ2Xk3cgQggQpBCY0JjecKDmnleG2TZ4ixUD/E16WyxdFn/xmemvJrkgjQZKOVZ7XWHRGasvtX+c0cvdnRCvviuXzg75mircJjA8szStRp8Pi7NT43uN6Q9u1KVDsmAWdzhoScNV4MtM/q293+wZZjf9hfnTKk1YGhFQscq8lQE9MIpX8A1yadPholDrevy7iRyP2hkC3BTbHeutWgbWNdkTotFmOAf8nBwmwfWivklr89HwA/+oV/3zhore1/70yJmqSqC8bxlm4hj0deB2+7o6oMj7xLu0BCAUCpRoEjSc/53uOM1j+HdXh2Lqjcpz7KQXL4LOKk39cOLW5wf3VsJ8GxLkhUh6UN0JjMKV3BwPT+vjjI/9Oypa8jBgiTWBOh6UVitBmboY/tPsHb0b3UnT0iWUE4XVIRLWgOEj8m1hv/S/3+p1neVTyHPUA6hMykzXry1yzC0bJ+uZxfK+M+eCHnauJoi62b1vyz4skuvpf/wRSeev0H3vPWlB1P0SgAAifbK/jCa8eIB6enthNGzB0oo8EABorw0IJbgdhDzWVIS/I/lX78ivY6Bo14K1xwWRTV1H6z8q/gpXgZXQttw2+d3HBdryPh62euKdTONFjGHhTdl/lrdvyVsGiLhB+UbCXeZk89cmEp+bybu8xoLKDKzjtTgxY4fXNwNsRLKIElYiTFhCP6GPwbQCUQzHrQ2c/yPauokoabRSxtFamz7yKDWfpHSOm1TTC6AAAADUrrAtHsGxUESwlbF93In+YmVqJznvM/v0FvR5mlZnNee51Sk4tJHAAAGfDX7v3IKvGAACv/Ho8YdTD3XaBkqWfq/Gmt/9TbORNl0PiWlyt4gPSlYOckjlbvJKXtoK1DYAAAAAAAAAAAAAAAAAA=;" vertex="1" parent="1">
          <mxGeometry x="170" y="220" width="92.5" height="92.5" as="geometry" />
        </mxCell>
        <mxCell id="GsARXMGo50Wr0_jEXAOD-8" value="" style="shape=image;verticalLabelPosition=bottom;labelBackgroundColor=default;verticalAlign=top;aspect=fixed;imageAspect=0;image=data:image/png,iVBORw0KGgoAAAANSUhEUgAABLAAAAKjCAYAAAANs/bAAAAAAXNSR0IArs4c6QAAIABJREFUeF7s3QmQXdV97/t/d0tCYhAS84xAIMQkMc8GITPPILADWBhjG8eJk9hO7q1XefWG+17VfbfiG9sXHONrm9jYgQBmMpPBjALELOZJQoBATEKAQEgCDd396ruS4+iKbvXus/c5vfc5313VBTZnWPuz1jnS+vV/rdXR29vbG14KKKCAAgoooIACCiiggAIKKKCAAgqUVKDDAKukPWOzFFBAAQUUUEABBRRQQAEFFFBAAQWSgAGWA0EBBRRQQAEFFFBAAQUUUEABBRRQoNQCBlil7h4bp4ACCiiggAIKKKCAAgoooIACCihggOUYUEABBRRQQAEFFFBAAQUUUEABBRQotYABVqm7x8YpoIACCiiggAIKKKCAAgoooIACChhgOQYUUEABBRRQQAEFFFBAAQUUUEABBUotYIBV6u6xcQoooIACCiiggAIKKKCAAgoooIACBliOAQUUUEABBRRQQAEFFFBAAQUUUECBUgsYYJW6e2ycAgoooIACCiiggAIKKKCAAgoooIABlmNAAQUUUEABBRRQQAEFFFBAAQUUUKDUAgZYpe4eG6eAAgoooIACCiiggAIKKKCAAgooYIDlGFBAAQUUUEABBRRQQAEFFFBAAQUUKLWAAVapu8fGKaCAAgoooIACCiiggAIKKKCAAgoYYDkGFFBAAQUUUEABBRRQQAEFFFBAAQVKLWCAVerusXEKKKCAAgoooIACCiiggAIKKKCAAgZYjgEFFFBAAQUUUEABBRRQQAEFFFBAgVILGGCVuntsnAIKKKCAAgoooIACCiiggAIKKKCAAZZjQAEFFFBAAQUUUEABBRRQQAEFFFCg1AIGWKXuHhungAIKKKCAAgoooIACCiiggAIKKGCA5RhQQAEFFFBAAQUUUEABBRRQQAEFFCi1gAFWqbvHximggAIKKKCAAgoooIACCiiggAIKGGA5BhRQQAEFFFBAAQUUUEABBRRQQAEFSi1ggFXq7rFxCiiggAIKKKCAAgoooIACCiiggAIGWI4BBRRQQAEFFFBAAQUUUEABBRRQQIFSCxhglbp7bJwCCiiggAIKKKCAAgoooIACCiiggAGWY0ABBRRQQAEFFFBAAQUUUEABBRRQoNQCBlil7h4bp4ACCiiggAIKKKCAAgoooIACCihggOUYUEABBRRQQAEFFFBAAQUUUEABBRQotYABVqm7x8YpoIACCiiggAIKKKCAAgoooIACChhgOQYUUEABBRRQQAEFFFBAAQUUUEABBUotYIBV6u6xcQoooIACCiiggAIKKKCAAgoooIACBliOAQUUUEABBRRQQAEFFFBAAQUUUECBUgsYYJW6e2ycAgoooIACCiiggAIKKKCAAgoooIABlmNAAQUUUEABBRRQQAEFFFBAAQUUUKDUAgZYpe4eG6eAAgoooIACCiiggAIKKKCAAgooYIDlGFBAAQUUUEABBRRQQAEFFFBAAQUUKLWAAVapu8fGKaCAAgoooIACCiiggAIKKKCAAgoYYDkGFFBAAQUUUEABBRRQQAEFFFBAAQVKLWCAVerusXEKKKCAAgoooIACCiiggAIKKKCAAgZYjgEFFFBAAQUUUEABBRRQQAEFFFBAgVILGGCVuntsnAIKKKCAAgoooIACCiiggAIKKKCAAZZjQAEFFFBAAQUUUEABBRRQQAEFFFCg1AIGWKXuHhungAIKKKCAAgoooIACCiiggAIKKGCA5RhQQAEFFFBAAQUUUEABBRRQQAEFFCi1gAFWqbvHximggAIKKKCAAgoooIACCiiggAIKGGA5BhRQQAEFFFBAAQUUUEABBRRQQAEFSi1ggFXq7rFxCiiggAIKKKCAAgoooIACCiiggAIGWI4BBRRQQAEFFFBAAQUUUEABBRRQQIFSCxhglbp7bJwCCiiggAIKKKCAAgoooIACCiiggAGWY0ABBRRQQAEFFFBAAQUUUEABBRRQoNQCBlil7h4bp4ACCiiggAIKKKCAAgoooIACCihggOUYUEABBRRQQAEFFFBAAQUUUEABBRQotYABVqm7x8YpoIACCiiggAIKKKCAAgoooIACChhgOQYUUEABBRRQQAEFFFBAAQUUUEABBUotYIBV6u6xcQoooIACCiiggAIKKKCAAgoooIACBliOAQUUUEABBRRQQAEFFFBAAQUUUECBUgsYYJW6e2ycAgoooIACCiiggAIKKKCAAgoooIABlmNAAQUUUEABBRRQQAEFFFBAAQUUUKDUAgZYpe4eG6eAAgoooIACCiiggAIKKKCAAgooYIDlGFBAAQUUUEABBRRQQAEFFFBAAQUUKLWAAVapu8fGKaCAAgoooIACCiiggAIKKKCAAgoYYDkGFFBAAQUUUEABBRRQQAEFFFBAAQVKLWCAVerusXEKKKCAAgoooIACCiiggAIKKKCAAgZYjgEFFFBAAQUUUEABBRRQQAEFFFBAgVILGGCVuntsnAIKKKCAAgoooIACCiiggAIKKKCAAZZjQAEFFFBAAQUUUEABBRRQQAEFFFCg1AIGWKXuHhungAIKKKCAAgoooIACCiiggAIKKGCA5RhQQAEFFFBAAQUUUEABBRRQQAEFFCi1gAFWqbvHximggAIKKKCAAgoooIACCiiggAIKGGA5BhRQQAEFFFBAAQUUUEABBRRQQAEFSi1ggFXq7rFxCiiggAIKKKCAAgoooIACCiiggAIGWI4BBRRQQAEFFFBAAQUUUEABBRRQQIFSCxhglbp7bJwCCiiggAIKKKCAAgoooIACCiiggAGWY0ABBRRQQAEFFFBAAQUUUEABBRRQoNQCBlil7h4bp4ACCiiggAIKKKCAAgoooIACCihggOUYUEABBRRQQAEFFFBAAQUUUEABBRQotYABVqm7x8YpoIACCiiggAIKKKCAAgoooIACChhgOQYUUEABBRRQQAEFFFBAAQUUUEABBUotYIBV6u6xcQoooIACCiiggAIKKKCAAgoooIACBliOAQUUUEABBRRQQAEFFFBAAQUUUECBUgsYYJW6e2ycAgoooIACCiiggAIKKKCAAgoooIABlmNAAQUUUEABBRRQQAEFFFBAAQUUUKDUAgZYpe4eG6eAAgoooIACCiiggAIKKKCAAgooYIDlGFBAAQUUUEABBRRQQAEFFFBAAQUUKLWAAVapu8fGKaCAAgoooIACCiiggAIKKKCAAgoYYDkGFFBAAQUUUEABBRRQQAEFFFBAAQVKLWCAVerusXEKKKCAAgoooIACCiiggAIKKKCAAgZYjgEFFFBAAQUUUEABBRRQQAEFFFBAgVILGGCVuntsnAIKKKCAAgoooIACCiiggAIKKKCAAZZjQAEFFFBAAQUUUEABBRRQQAEFFFCg1AIGWKXuHhungAIKKKCAAgoooIACCiiggAIKKGCA5RhQQAEFFFBAAQUUUEABBRRQQAEFFCi1gAFWqbvHximggAIKKKCAAgoooIACCiiggAIKGGA5BhRQQAEFFFBAAQUUUEABBRRQQAEFSi1ggFXq7rFxCiiggAIKKKCAAgoooIACCiiggAIGWI4BBRRQQAEFFFBAAQUUUEABBRRQQIFSCxhglbp7bJwCCiiggAIKKKCAAgoooIACCiiggAGWY0ABBRRQQAEFFFBAAQUUUEABBRRQoNQCBlil7h4bp4ACCiiggAIKKKCAAgoooIACCihggOUYUEABBRRQQAEFFFBAAQUUUEABBRQotYABVqm7x8YpoIACCiiggAIKKKCAAgoooIACChhgOQYUUEABBRRQQAEFFFBAAQUUUEABBUotYIBV6u6xcQoooIACCiiggAIKKKCAAgoooIACBliOAQUUUEABBRRQQAEFFFBAAQUUUECBUgsYYJW6e2ycAgoooIACCiiggAIKKKCAAgoooIABlmNAAQUUUEABBRRQQAEFFFBAAQUUUKDUAgZYpe4eG6eAAgoooIACCiiggAIKKKCAAgooYIDlGFBAAQUUUEABBRRQQAEFFFBAAQUUKLWAAVapu8fGKaCAAgoooIACCiiggAIKKKCAAgoYYDkGFFBAAQUUUEABBRRQQAEFFFBAAQVKLWCAVerusXEKKKCAAgoooIACCiiggAIKKKCAAgZYjgEFFFBAAQUUUEABBRRQQAEFFFBAgVILGGCVuntsnAIKKKCAAgoooIACCiiggAIKKKCAAZZjQAEFFFBAAQUUUEABBRRQQAEFFFCg1AIGWKXuHhungAIKKKCAAgoooIACCiiggAIKKGCA5RhQQAEFFFBAAQUUUEABBRRQQAEFFCi1gAFWqbvHximggAIKKKCAAgoooIACCiiggAIKGGA5BhRQQAEFFFBAAQUUUEABBRRQQAEFSi1ggFXq7rFxCiiggAIKKKCAAgoooIACCiiggAIGWI4BBRRQQAEFFFBAAQUUUEABBRRQQIFSCxhglbp7bJwCCiiggAIKKKCAAgoooIACCiiggAGWY0ABBRRQQAEFFFBAAQUUUEABBRRQoNQCBlil7h4bp4ACCiiggAIKKKCAAgoooIACCihggOUYUEABBRRQQAEFFFBAAQUUUEABBRQotYABVqm7x8YpoIACCiiggAIKKKCAAgoooIACChhgOQYUUEABBRRQQAEFFFBAAQUUUEABBUotYIBV6u6xcQoooIACCiiggAIKKKCAAgoooIACBliOAQUUUEABBRRQQAEFFFBAAQUUUECBUgsYYJW6e2ycAgoooIACCiiggAIKKKCAAgoooIABlmNAAQUUUEABBRRQQAEFFFBAAQUUUKDUAgZYpe4eG6eAAgoooIACCiiggAIKKKCAAgooYIDlGFBAAQUUUEABBRRQQAEFFFBAAQUUKLWAAVapu8fGKaCAAgoooIACCiiggAIKKKCAAgoYYDkGFFBAAQUUUEABBRRQQAEFFFBAAQVKLWCAVerusXEKKKCAAgoooIACCiiggAIKKKCAAgZYjgEFFFBAAQUUUEABBRRQQAEFFFBAgVILGGCVuntsnAIKKKCAAgoooIACCiiggAIKKKCAAZZjQAEFFFBAAQUUUEABBRRQQAEFFFCg1AIGWKXuHhungAIKKKCAAgoooIACCiiggAIKKGCA5RhQQAEFFFBAAQUUUEABBRRQQAEFFCi1gAFWqbvHximggAIKKKCAAgoooIACCiiggAIKGGA5BhRQQAEFFFBAAQUUUEABBRRQQAEFSi1ggFXq7rFxCiiggAIKKKCAAgoooIACCiiggAIGWI4BBRRQQAEFFFBAAQUUUEABBRRQQIFSCxhglbp7bJwCCiiggAIKKKCAAgoooIACCiiggAGWY0ABBRRQQAEFFFBAAQUUUEABBRRQoNQCBlil7h4bp4ACCiiggAIKKKCAAgoooIACCihggOUYUEABBRRQQAEFFFBAAQUUUEABBRQotYABVqm7x8YpoIACCiiggAIKKKCAAgoooIACChhgOQYUUEABBRRQQAEFFFBAAQUUUEABBUotYIBV6u6xcQoooIACCiiggAIKKKCAAgoooIACBliOAQUUUEABBRRQQAEFFFBAAQUUUECBUgsYYJW6e2ycAgoooIACCiiggAIKKKCAAgoooIABlmNAAQUUUEABBRRQQAEFFFBAAQUUUKDUAgZYpe4eG6eAAgoooIACCiiggAIKKKCAAgooYIDlGFBAAQUUUEABBRRQQAEFFFBAAQUUKLWAAVapu8fGKaCAAgoooIACCiiggAIKKKCAAgoYYDkGFFBAAQUUUEABBRRQQAEFFFBAAQVKLWCAVerusXEKKKCAAgoooIACCiiggAIKKKCAAgZYjgEFFFBAAQUUUEABBRRQQAEFFFBAgVILGGCVuntsnAIKKKCAAgoooIACCiiggAIKKKCAAZZjQAEFFFBAAQUUUEABBRRQQAEFFFCg1AIGWKXuHhungAIKKKCAAgoooIACCiiggAIKKGCA5RhQQAEFFFBAAQUUUEABBRRQQAEFFCi1gAFWqbvHximggAIKKKCAAgoooIACCiiggAIKGGA5BhRQQAEFFFBAAQUUUEABBRRQQAEFSi1ggFXq7rFxCiiggAIKKKCAAgoooIACCiiggAIGWI4BBRRQQAEFFFBAAQUUUEABBRRQQIFSCxhglbp7bJwCCiiggAIKKKCAAgoooIACCiiggAGWY0ABBRRQQAEFFFBAAQUUUEABBRRQoNQCBlil7h4bp4ACCiiggAIKKKCAAgoooIACCihggOUYUEABBRRQQAEFFFBAAQUUUEABBRQotYABVqm7x8YpoIACCiiggAIKKKCAAgoooIACChhgOQYUUEABBRRQQAEFFFBAAQUUUEABBUotYIBV6u6xcQoooIACCiiggAIKKKCAAgoooIACBliOAQUUUEABBRRQQAEFFFBAAQUUUECBUgsYYJW6e2ycAgoooIACCiiggAIKKKCAAgoooIABlmNAAQUUqIJA76qInu6InpUR/HtvT/RGT/pnRHdEdEVEZ3R0dEZ0dEV0DIvo5Off/70K92gbSy3Q29sb/PT09KSf2v+m0fx77ero6Ej/yj9rP52dncFP7b+V+kZtnAIKKKCAAgoooEApBQywStktNkoBBdpegGBq2VvRu/jV6P2En1eid8Wi6P30nej97M2IVUujt2dpRM+yiJ5FEV2jIzpGR8cwfjaK3hEbRefIzaNjnY0j1h8XnWN2jY51t4re9beNDgIuLwXWIrBy5cpYsmRJfPDBB/HJJ5/86efTTz+NZcuWBf99+fLl6Z+1MIt/ElDVwqphw4bF8OHDY8SIEbHOOuvEuuuum35Gjx4dG2ywQWy44YYxduzYGDVqlMGWo1EBBRRQQAEFFFBgQAEDrAGJfIACCijQJAGqqro/jVj8avR8/FLEhw9G7+JXonfJi9Gz4tV/r7YabFu6omP49tG54eToWG/b6Bi7X3RsuGvE6J2jY8QGEVRsebW1QK2qisBq8eLFsXDhwvjwww/j448/Tv/k/yPEIrhavdKqHjQCLcIrQiwCrI022ijWX3/92GyzzWKTTTZJ/z/BV61yq5738DkKKKCAAgoooIACrSlggNWa/epdKaBAxQR6P10Y3W/dGb3zr06BVe/KBRE9HxV/F53rR8ewLaJz5FbROe5r0bHtcdExaovi38dXrIQAFVZz586NF198Md55551YsWLFnyqrmnUDhFVUaPFDmDVx4sQYP358jBs3LlVweSmggAIKKKCAAgoogIABluNAAQUUGCqBlUujd+kb0fvOjFj12q+j97O5ET2LI2JlE1rUEdE5JjpG7hxdWxwfndueFB2jx0esM7YJ7+1bDIVAd3d3qqIitHrrrbdizpw58eqrr8aqVav+tK/VULRrzffs6uoKfqjGIsjaaaedYtttt03/20CrDD1kGxRQQAEFFFBAgaERMMAaGnffVQEF2lmA/a1WLo6ed+6Nnld+Ez2Lbo/e3mVDKtK5wZTo2uHc6Nz25IiRG//bJvBeLSHA3lRLly5NSwNffvnleOKJJ9LSwKpc7KG1++67x+TJk2OrrbZKQRYBl5cCCihQRQG+kxcsWJB+eVDvReUqewqyj6CHY9Sr6PMUUKCKAgZYVew126yAAtUVWPVpdL9xffS+fVt0L7w1ovuD8txLx8joHDM1urY5NTp3ODuCPbK8KivAflXz58+P5557LlVaUXWVZ8I01BDsjcWeWVRk8cNSQyuyhrpXfH8FFBisAIdhXHzxxfH+++8P9ql/ejzfh3vttVdMmzbNQL9uRZ+ogAJVFDDAqmKv2WYFFKigAKcKLojueVdH97zfRu+ypyKiu5T30TlqcnRudVp07vKN6Bi1lRu9l7KX+m5UbUN2qq1mz54dzz77bPpN/2effVahu1h7UwmtCLImTJgQBx54YPp3g6yW6V5vRIGWFyDAuuiii3IHWHvvvbcBVsuPFm9QAQXWFDDAckwooIACTRDo/Xh2rHr2/4ue966J6FnahHfM8xYdER3Do2vT06JrwneiY4sv5Hkxn9tEAYKqmTNnxkMPPZSWDVa54mogts7OzhgzZkxMmjQpjj322HR6oZcCCihQdgEDrLL3kO1TQIEyCxhglbl3bJsCClRfYOXS6FkwI1Y9+1+jd9mTEUO819WgQDtGRsfICTFswvejc/vTI0aMHtTTfXBzBNhPhYqrp556KlVdcZpgKwdXq6uy9wv7YW288cYpyOJns802C8ItLwUUUKCMAgZYZewV26SAAlURMMCqSk/ZTgUUqJ7AqmXR8/a90f3iD6Lnkwciov4NW4fu5juic9TeMWyP/yNiq6OiY/j6Q9cU3/lzAsuXL0+B1WOPPRaPP/54Ok2wXa911lkn9txzzzj00ENj8803d1lhuw4E71uBkgsYYJW8g2yeAgqUWsAAq9TdY+MUUKCyAt2fRvfsn0f3K/8UvctfiYhqBwudI8ZHx7bTY9jkv4/oHF7ZbmmVhrPX1eLFi+POO+9MVVcfffRR8P+1+0VFFtVY7A1z5JFHGmK1+4Dw/hUooYABVgk7xSYpoEBlBAywKtNVNlQBBSojsGJx9L5zT6x8+u+id8XcyjR77Q3tiI6urWP4pH+IDpYTDhvZIvdVvdtYuXJlPPPMM2mfq6qfLNgo/ZEjR8bOO++c9sbaZJNNPKWrUdC+rgIKDFrAAGvQZD5BAQUU+JOAAZaDQQEFFChQgCqY3nnXRvdL/xA9Sx+PiFaqiumIzvX3ja7d/9/o3OboiI6uAuV8qSwCK1asiAcffDDuueeeYBJk1VX/auyNNX78+FSJxT+pzvJSQAEFhlrAAGuoe8D3V0CBKgsYYFW592y7AgqUS6C3O3oXPhYrH/l69C5/qfLLBvvG7YrO0UdE1+T/Ep2bHRLR4WbZzRiEBFWvvfZa2qh91qxZQZDlNbAAodUGG2wQU6ZMSftjcWqhlwIKKDCUAgZYQ6nveyugQNUFDLCq3oO2XwEFSiPQu+iFWPXEf46eRbdXdMP2rJRd0bXptOja/8fRse4WEWFlS1a5eh7HiYKvvPJK3H777fH2229Hd3d3PS/T1s8ZNWpUTJ48OY4++ugUaFmN1dbDwZtXYEgFDLCGlN83V0CBigsYYFW8A22+AgqURODTBbHquR9E9xsXRfSuLEmjGtiMjnVi2E7/Z3Tt8b2IrlENfKP2fmlOFWSvq5kzZ8b777/vksEcw2HEiBExceLEOPnkk63EyuHoUxVQIJ+AAVY+P5+tgALtLWCA1d79790roEARAj0ro/uZH0T3vJ9F76r5RbxiJV6jY+QuMWyX/y06dzrPpYQF9xhLBpnk3HHHHfHEE0/EsmXLCn6H+l+O6iX2l+rs7Ew//O/aD6+a9oHr7Q3CN36oGOOfZbhoJ0sJDznkkNhxxx2txCpDp9gGBdpMwACrzTrc21VAgUIFDLAK5fTFFFCg/QR6I5a+GStnTo+exfe36L5X/fRqx8joXP+QGD7lmoh1xrZf1zfwjpcuXRrPP/983HzzzSnIGsqLkGrYsGExfPjwFFjxz4022ijWX3/9YGke/5tT/9ZZZ50UVvHDHl1LliyJTz75JP3w7yyFrP0QaA3VBvS0d9KkSXHGGWcEVVleCiigQDMFDLCaqe17KaBAqwkYYLVaj3o/CijQXIFl70T3nF/Eqrn/pb3Cq5py5+jo2u2/xrAJF0Z0Dm+ufYu+2/Lly+PGG2+MZ555Jj777LOm32Vt43M2PN90001jk002ic033zzGjh2b9o/ihyBrMBf39PHHH6efBQsWpOWQH374Ybz33nuxePHiWLmyOctuaTfh1cEHH5wqsLwUUECBZgsYYDVb3PdTQIFWEjDAaqXe9F4UUKDpAj3zfh/dT//n6Fk5p+nvXZY37Nj4mBhx0K8jRm1ZliZVth0sFXzwwQdjxowZTQ2vCHaooiKkmjBhQmy55Zbp3zfbbLNUZVX0pucEVh999FEKsBYtWhSvvvpq+iGwa1R1Fsset9lmmzjttNNi6623LvyeKjvobLgCCjRVwACrqdy+mQIKtJiAAVaLdai3o4ACTRTo7Y5V958X3e9d0cQ3LeFbda4fIw74XXRsOSWia2QJG1iNJhFe3X///fHAAw80JbxiCR9LA1kKuOuuu6a9oai6IrhimV2zLtrBMkPCrNdeey2efvrp+OCDD9JSxKKWGRLA7bDDDim82mKLLQyvmtW5vo8CCnxOwADLQaGAAgrUL2CAVb+dz1RAgXYW6O2JnnnXx8qn/iKi+712lkj33rXJl6Nrr/87OsZMbHuLegBYYnfrrbfGk08+2fA9rwhz2K+K5YF77bVXCq5YFkiFUtGVVoOxqG3+zuRu/vz5qRKNfxLs5dkEnvvabbfdYurUqakCy0sBBRQYSgEDrKHU970VUKDqAgZYVe9B26+AAkMj0P1ZrLrv3Oj+8NaI3ubvUzQ0N93/u3Z0bRzDJv8sOnc4wxMJB9k5LKd75ZVX4uqrr06VSI28CKg23njj2GmnneLAAw+MrbbaatD7WTWyfbXXJsxib6zHHnssXnzxxXjrrbdSRdZgL8Ir9u86++yz03LIwe7dNdj38/EKKKDAQAIGWAMJ+d8VUECBtcw5eouqz1dZAQUUaCeBD5+NFfcfHr0rP2qnu17LnybDonPTL8Xww34V0enJboMZFLNmzYo777wzbWzeyIulgRMnTowDDjigtMHVmvfPX1HY7J0g69lnn42FCxdmXlZIWMd+XlOmTInx48cPaXVZI/vV11ZAgWoJGGBVq79srQIKlEvACqxy9YetUUCBCgj09qyKnrn/Eque/VZE74oKtLhJTRy2bYw48q7o2HCniOho0ptW920IZ6gsuvzyyxsaXo0YMSJ22WWXtISOZYMsH6zatWrVqnj33XdTkMXPQKcWUmlFaMWeV9zzUC6NrJq17VVAgcYKGGA11tdXV0CB1hYwwGrt/vXuFFCgAQK9H8+NnpcuilXzfxLIyuOOAAAgAElEQVQRvQ14h4q+ZOeYGDbp4ugaf3ZER1dFb6J5zV6yZElcc801aYlcnj2e1tbiDTfcMPbbb7/YZ599Kh/kYMSywpkzZ6aN3jnFsK8i8tppg9OmTUvLB1022Lwx7TspoMDAAgZYAxv5CAUUUKA/AQMsx4YCCigwSIGe166J7pf+IXqWPjbIZ7b6wzuja/NpMeygX0UMX6/VbzbX/bEx+cMPPxx//OMf69rbaaA3J8Rhz6cTTjghVV+1UgUSoRXVWDfeeGM6tXD1vbG4b5ZJHn/88Sm88lJAAQXKJmCAVbYesT0KKFAlAQOsKvWWbVVAgaEX6O2O7md/EN1zfxC9PR8OfXtK1oKO0fvE8P1/HR1j9yxZy8rTHCqJHnrooVRJxJ5ORV8sGeR0wf333z+22267lqxAIsRiz7BbbrklXn311XRyI5VWO+ywQ5x++ukpvGul0K7oMeLrKaDA0AkYYA2dve+sgALVFzDAqn4fegcKKNBEgd6VS6L70e9H9zu/aOK7VuetOkaNj66J/090jT+nOo1ucks//vjjuOyyy+LNN9/MvCF51iYOGzYshVfHHHNMjBkzpuVDnLfffjuefPLJeOCBB2LLLbeME088MXbccceWv++s48HHKaBA+QQMsMrXJ7ZIAQWqI2CAVZ2+sqUKKFAGgU8XxMr7vhQ9n9xXhtaUrw1dG0bXFufFsIMvKl/bStAilg7edttt8cgjjxS+79X6668fkyZNSsvnRo4cWYK7bU4TVqxYEXPmzIltttkm2PPLyqvmuPsuCihQn4ABVn1uPksBBRRAwADLcaCAAgoMQqB36fxYeddR0btiziCe1U4P7YrOjU+JYYdfHh1do9rpxjPd6wsvvBBXXnllWvJW5MXeT4cffngceuihKcRpt4tTCak+M7xqt573fhWonoABVvX6zBYroEB5BAywytMXtkQBBcou0NsdvR88GStmTInoXVr21g5d+zaYGiMOuyw61ttm6NpQwnfm1Lzf/va38cYbbxTaOva84pTBU089NYU4XgoooIAC5RUwwCpv39gyBRQov4ABVvn7yBYqoEBZBLo/i57Xr4+VT349orfYCpqy3GIR7egYdWAMO/CS6Nxk7yJeriVegwqha665Jp555plYtWpVYfe0zjrrxAEHHBBHHnlkbLDBBoW9ri+kgAIKKNAYAQOsxrj6qgoo0B4CBljt0c/epQIKFCGwaml0z/l1rHrx7yJ6PyviFVvzNUbsEcP3uyg6tzqyNe+vjrtasGBBXHrppbFo0aI6nt33U1gut/vuu8fRRx+dNjB3+VxhtL6QAgoo0DABA6yG0frCCijQBgIGWG3Qyd6iAgoUJLDyk+h+7iex6tX/EtG7vKAXbcGXGbZ9DN/rh9E57owWvLnB39Ly5cvTpu0333xzYacOElaNHTs2vvnNb8Ymm2wy+Eb5DAUUUECBIREwwBoSdt9UAQVaRMAAq0U60ttQQIEmCKxYHN3P/EOsev2/G2Ctjbtr6xg++QfRuePZTeiU8r/FvHnz4pZbbgn+WdQ1ZsyYtGzw4IMPtvKqKFRfRwEFFGiCgAFWE5B9CwUUaFkBA6yW7VpvTAEFihboXf5R9Dz5f8Wqt34W0bui6Jdvmdfr6Nw4hu3536Nz5/Nb5p7qvZHu7u64884746677iqs+qqzszMtG5wyZYqbttfbMT5PAQUUGCIBA6whgvdtFVCgJQQMsFqiG70JBRRohkDv8kXR88T/Hqve+mVErGzGW1bzPTpGxrA9/jG6dvmLara/oFb39vamPa8uueSS4ATCIi6WDh544IFx4oknxsiRI4t4SV9DAQUUUKCJAgZYTcT2rRRQoOUEDLBarku9IQUUaJSAAVZ22WG7/Si6dvtu9ie04CM5bfCBBx6I22+/vbCTB9dbb734yle+EuPHj3fpYAuOGW9JAQVaX8AAq/X72DtUQIHGCRhgNc7WV1ZAgRYTMMDK3qHDdvtBdO32d9mf0IKPXLJkSfzoRz+KxYsXF3J3XV1dMXHixDjnnHNixIgRhbymL6KAAgoo0FwBA6zmevtuCijQWgIGWK3Vn96NAgo0UMAAKzuuAVbErFmz4sorr8yOtpZHshxx5513jqlTp6Z/eimggAIKVFPAAKua/WarFVCgHAIGWOXoB1uhgAIVEDDAyt5J7R5grVy5Mq655pp44oknsqOt5ZFs3H7sscfGEUccEVRieSmggAIKVFPAAKua/WarFVCgHAIGWOXoB1uhgAIVEDDAyt5J7R5gPffcc3HrrbfGwoULs6P180g2bt9ggw3iu9/9bvqnlwIKKKBAdQUMsKrbd7ZcAQWGXsAAa+j7wBYooEBFBAywsndUOwdYLPe7+uqrgxDrs88+y47WzyOHDx+eKq+OOuooq69ya/oCCiigwNAKGGANrb/vroAC1RYwwKp2/9l6BRRoooABVnbsdg6wli1bFpdcckm8++672cHW8shNNtkkLrzwwhg7dmwhr+eLtJcAp2H29PREd3d3EK7yU7uo7qv9DBs2LAWk/G+v7AK48oNxzXd1Y5b/YootP/xvr2wCjN01bXkmnjVX/snYrdK4bacAq6/vn9rnY80+dHl8ts+Fj1Kg3QUMsNp9BHj/CiiQWcAAKzNVtHOANW/evLjsssuCUwiLuE488cQ47LDD0iTNS4G1CTAxXrRoUbz//vvxySef/OmHSkD2ZeOnFmYxeWTCyLjiZ+TIkWmJ6nrrrRejR4+OjTfeOP3wv73+TQC7Dz/8MBYsWJA+3x9//HEsXbo0cF++fHnyrQVaPL5mi/W6666bjLHFmX9uueWWydeJe6TwD8t33nknndz60UcfJd+aLUFILQzBi8pU/okrluuvv35suummyZT/XeZAq1UDLMY+fff222+nvuPf+Zxwv3wH1T4b/LMWPNY+I6t/9/BLG757Ntpoo1L3o9+LCigwNAIGWEPj7rsqoEAFBQywsndauwZYTHCffvrptISQyVbeiwnvBRdcEOPGjfMv8nkxW+z5tSoGJoYEKgQr7733Xgqv+GHyyMRxMOOQSeWoUaNSwFILsDbffPMYM2bMn8KWWsVWi3H2eTsYE0oRphCs8E+sawEWxoPx5U34TBO2bLjhhrHFFlukSTrWteClnarg+L5k/BJ4fPDBB8l19QBrxYoVmYYZIQjjluBjq622Sv/cZpttUqDF/5+l6m3N6sRMb7zGg7J+NlolwMKMMIqw/K233kp9yA//zmeD/5//nvWiH/ls1AIsPhP8bLbZZimozNKPWd/LxymgQHUFDLCq23e2XAEFmixggJUdvF0DLP7SPmPGjLjvvvuyY63lkXvssUecccYZbt5eiGbrvAgTRyb6s2fPTiddMlFksk/YUvRVq3ZhYjl+/PjYbbfdYuLEiS0/maQa6Nlnn02BNMFgLQxcfXlgEdaEHiNGjEhBC8uEDzzwwOBzv8466xTx8qV8DQwJOmbNmhUvvvhi+vdahVURDcaUwIOQcNKkSXHAAQes9TuU9yY8mzt3bt1vT7iy8847p7BloKClFQIsvm/mzJkTjz76aFouz+elViFXN+IaT+S7h8CXz8bkyZNj9913j2233baol/d1FFCgogIGWBXtOJutgALNFzDAym7ergHWG2+8Ebfccku8+uqr2bH6eSR/eZ82bVrss88+LjHKrVn9F6CSgYn+K6+8koKV+fPnFzrpzyJUW/ZDhQQTSgItKiQIYKp+UQ1EEEg1EMEKn2WWPzEpLzq0WpsVVShUvBGG7L333qk6i4q4Mi+Jy9L3GBLw8934/PPPx8svv5xC18FWsGV5r9Ufw/co45XQFU8qCtdcjk0V2OOPPx4333zzYF/+T4/nfU4//fTYa6+9BlzuXdUAi2WyVHrSf/wQ+jXr80GfsWyU7xyW1FNdx1JRLwUUaD8BA6z263PvWAEF6hQwwMoO164B1gsvvBDXXXdd2v8j78VfzqdPn56WD3q1rwATf4IUJotU91El0uhJfxZtwiyWwE2dOjVVRRC6DFR5kuV1h+IxTMypIiEYJLwqav+6vPdCeLXnnnum4IXKnqrug0dQRfCB7cyZMxtSKTiQNQEg4ceRRx4Z2223XarsqV0EWI899ljceOONA71Mv/+dsX/mmWemvhqon6oWYNW+g6i4IugjhCTwHaqLSkWcqVakys495IaqJ3xfBYZGwABraNx9VwUUqKCAAVb2TmvHAIu/0D/wwANx0003ZYdayyOZZJ133nnpL+he7SnARPfJJ59MPywZJGgp28XEnXCF5T1MKAmyqlItRBBIaMUyNipKsu651Mw+IDzAlKWbtaq3Zr5/nvfiO5GKNpZUc7gFBwwM9cVytB133DG++MUvpn2yGKsGWP33ClWJzz33XAof33zzzUHtadXIvqbfqMJiiei+++6bquy8FFCgPQQMsNqjn71LBRQoQMAAKztiOwZYTIZZPkiIlffiN8oEAmefffaAv83P+14+v3wCLBekyoGJI1V9bB5e9ouKFpZpMaHknyz3KetVO/HukUceSRNzfBuxf1iR988yTSre2M+JPbLY46nMQeGyZcvS/myMX8byYDbzLtKtr9fCjUBwv/32S/8kuLQC63+V4jPCYRB33XVX6r8yhI999SWneLLc9thjj00HIlS1CrTRY97XV6CVBAywWqk3vRcFFGiogAFWdt52DLCojrniiivShC3vxfLBgw46KI4++ui8L+XzKybARJ9qoBtuuCFtjDyUS3UGS0cwwObjRxxxREyZMqW04SunpN12222lWY45GGd8CV2OOuqoVPlWxotx+4c//CEFWM3aI2mwDgQdfM+ec845KRhkaZxLCP9NkfCKzwjL4am6auYecIPtRx5PX7K32cknn5zCLC8FFGhtAQOs1u5f704BBQoUMMDKjtmOARbLvf7pn/4p7VWU99p+++3jmGOOiQkTJuR9KZ9fEQEmiWwcTkUQSwZZ1lTVi2ohJpL7779/qsYqwx41+LIPE6cKUiVZtXBw9bHAhJ39sQgJ8S3LZtaEVVQNcjJd2aqu+vssUbXDcsKFCxfGvffeW/dHrlX2wKIa8cEHH0zfQezlWPbwqtZhhOeclMoyZjZ5pzLLSwEFWlPAAKs1+9W7UkCBBggYYGVHbccAi7/4X3zxxemkrbwXFRannHJKmqR6tb4AVVZMoKlaeemll0q13KpefSb0W2+9dZx66qmx1VZbDfmSQibjTMwJV8qySXu9trXnsT8ek3WqNVfflDzv69bzfJZgElqxB+B7771XmeCDe6WSjdCVaqN6r1YIsPgz7KmnnkrViWVa8jmYPuHEzhNOOCEFuwRaXgoo0HoCBlit16fekQIKNEjAACs7bLsFWPyW+vXXX49LL720kMoZ9rk544wzSlG5kr3XfWQ9AoRXVDsQrLz22muVmvhnuV82WmY8s6xwqPZsIry65pprUsBSxo3aszj29xj2GsOX5cZDVXVCtSCVg1QwVWG/tjze/T236gEWnxGWLb/yyitBNXGVLz4HHHjAksKBToSs8n3adgXaVcAAq1173vtWQIFBCxhgZSdrtwCrFkJcf/31hZwUx5KW4447Lju4j6ykAEuu2DPt5ptvTst1qrTf1WDAmVBSKfSFL3wh7ZHVrItgmVPw7rzzzrSvWFWWQw3Wh+qhgw8+OC3ZZC+gZl5UXhFcUd3WKpVt9fhVOcBiw332/6L6qqqVV2v2Gd8zhx9+ePrO4eRJLwUUaB0BA6zW6UvvRAEFGixggJUduB0DrBkzZqSJchEVHiy7YsJfpYswplUDmNX7gSqiIk7Yq22UfOWVV1ZuyVU945JJ5EknnZROfmvWSWGEgldffXWqbCv7KYP1mK7+HMYkARbGRYzPLO3huw7byy+/vPJVO1nud22PqWqARR8+/PDDceutt7ZMeFXrJ07qZC9Jwt1mfefkHUc+XwEFBhYwwBrYyEcooIACScAAK/tAaLcAi99aMwF46KGHCpkoT58+PSZNmpQdvASPvO+++4KfVr84sewrX/lKrj2HCK9mz54dd9xxR9q4vV2usWPHpqoI9mxq5NIefFnKdsstt6RNxVulqmSgccJm+QTf/IwZM2agh+f675hSdUX1VRH7/uVqTAmeXMUAi6Wf/NLlscceC6qwWvFiH6wTTzwx9tlnH0OsVuxg76ktBQyw2rLbvWkFFKhHwAAru1o7Bli/+93v0glnVCLlvb7xjW/ELrvskvdlmvr8P/7xjymQafWLjfW/9rWv5VqqxRH1V111Vaq8apdwpTYuCLG+/OUvx7hx4xq2xxvhFWEqgXIRn8cqjWmqrziJjSXIjVquSUBIMMieSZ988knLLs0cTL9XLcDie4clg0Utex+MVW0vvGYt6eUQCX7psMkmmwzZPnyD8fGxCiiwdgEDLEeIAgookFHAACsjVES0Y4D1m9/8JlXVFBFIfPvb344dd9wxO3gJHtkuARYnv51++umx++6716VOuELQ9/jjj7fFksu+kLbddtsUYjVivyY+f/hSHVT1zajrGmARaTP3Y489Ni2dasT1wQcfBEtfObiiWSFEI+6jyNesWoDFZu1UDTezApSTMkePHp2qV/Hi88kPe6c1cvk578VBB1OnTg0CdC8FFKi2gAFWtfvP1iugQBMFDLCyY7djgPXP//zPMXfu3EL+Iv5Xf/VXsd1222UHL8Ej2yXAIhzgxLdDDz100Oos07nnnntSZdDy5csH/fysT2DCxp5T/Gy55ZZBBQITN6rHqMqhSoegh/1vCNQIJN59992YP3/+nyaVjaxcogJj1113jbPOOqvQo+6ZBLMpPtVtLI9q1IUvG6fju9FGG8XWW2+dnDHm/8OYYIc2LF26ND788MOg6o6KO/6dSXsRe+Wt7f44/fH8889PVSdF7v/z/vvvp3Bw5syZhXzX9XcPGGJJ4LHDDjukscu9sK8R45cxhC+fKcYu7Zo3b14KQ/hsNXvPsyoFWFjddNNN8eKLLzYsgOTzQV/x2dh+++1j5513DsL/2tJh+o/PKz/0FYct8P3Dn6F8H9G3RX4H8b6chMqeWEV+Hhr1HePrKqBA/wIGWI4OBRRQIKOAAVZGqDaswOIv2r/85S/ThsZF/Cb5e9/7XgodqnS1S4DFpPqQQw4Z9CmRBBpz5swJlpqyuXgjLvZAYuJPkMKeLyxD5d+ZsDFh7GviRrsYs/yT5WCEAFSHvfnmmylkKaKisK97pQrjyCOPTJNK2l3EtWjRorj22mtTJWSjLibmhCksgWTTdIIiJsf41n5Wf29ca8ZM1Kl4YakxE3XCFnwbUcVEWwhaqTwhOCjiop0PPPBA2jepUXsmEU7xGWPs7r333ikAwTyLL8EgASYnTlIdRpBVxPdxFruqBFiMt0cffTSdfNqoEJXQcfz48WnsUW3J55uf2tLBvjxrYRZ9xvJUljfyWSmyjXwXfutb30qh89rakqW/fYwCCgydgAHW0Nn7zgooUDEBA6zsHdZuFVgEWD//+c/TpKmICdPf/u3fBpuFV+lqlwCLgIiJ9bRp0zJ3DxN/QqvLLrssBUNFX0wO2bR78uTJaeJPuJKnyoAxTEUEIcszzzwT77zzTqHVELX7Z4Plr371q6lCI++EkvDi7rvvTtVBRU56a20lBKKdGE+YMCH3Jv5UZmFL2Pbqq682pGKM4IelhGycn/diTFBBdumll6aqvaIv2kql1V577fWniqt634O28l380ksvpTCLdjciJFy9fVUIsDDAgl+2NKIPWRJMZSV7sBES5fkO4s9U+o4TEosKsviOIVg755xzYoMNNqh3ePk8BRQYYgEDrCHuAN9eAQWqI2CAlb2v2i3A4rfaTAqYiBYRYH33u99NlQdVutolwGKiveeee8af/dmfZe4eKm9YcsWeM0VPpGvt2WOPPVKwwv8u6mJc14KAWbNmFX7aHBNKTsxjOSZVTXkuJrucOrhw4cI8L/O551IRRJhM1R370jExL+riu4LlXFQNcRIc/17E98fq7WNpI4cOEHDmCQkJCPGleqfIMUyb6HtOXSUY3myzzXIFH6vfO9U8VBTef//96Z+NXrZ75plnpnsY6IRNLC+66KLU3/VevEctSM9awcj30F133ZV+irz4jLAnIO3ZaaedCvsOYpyxrJCKLL4/iwimaetpp50W++23X2HjrEhLX0sBBQYWMMAa2MhHKKCAAknAACv7QGjHAOtXv/pVqlgpYsnVX/7lX6Yqmipd7RJgMQGiymD69OmZu4eAgiU7RYYrTPypYGKZGJNHlu004mISycSRahbuYfHixYWGLLSbEGvKlCl1Byzsl8Om4jgXGa4QBrJMkIoSqkvyVJSsrW+oNmGiTjj0xBNPpO+QPGHT6u9FuLHvvvumSTtjt96LSpg//OEPhS4dxJOl0hyKgG+jTk0kKCLgJLhp1Mb+VajA4vNBiL5gwYJ6h8HnnkcwStXcF77whVTVVNS4Xf2N6DOWrvKTd+kq7SNkO/HEEyv3S6LCOs0XUqDiAgZYFe9Am6+AAs0TMMDKbt2OAdbll1+eJtBFBFjs08Ffsqt0tUuAReUDy1C+8Y1vZOoeqj5+9rOfpWV4RYwN3pTJMtVWBCu77bZbw4KV1W+QYIiJ77333pv2cCpyg+VtttkmvvnNb6ZNnwd70Q6CYwLkIquXmJgfd9xxqTIoT/AzmPshKMSXiTqhXFFhHPuNnX322Wms1HOx7Izlr/yzqIs2sU8bwQebszf6YpwQDrLMlI30i7KttbvsARbfQ7/97W8L+yVLrXLulFNOSX9WNfozwueBSqwbb7wxdwhJW6nAItRtVCjd6PHs6yvQzgIGWO3c+967AgoMSsAAKztXOwZY1113XZogFTGxv+CCC1KVT5WudgmwqGhhL6Rvf/vbmbqHpUucUFlU5QcTRyb8Z5xxRlrS1swJGJN+9s5hI3qWyxYVyFF5w5ivZ+8u2sPSNjZ9LuqiKozKq6E4sYyN9LkfwvCixgxj5OCDD47jjz9+0FVO9PmMGTNS9VJRJzvyGSIYZH+uZm6ozXi977770pJCnIu8yh5g8T10xRVXBAcdFHER8HIIAyF61iWMed+XPuPPWarp8gaQLNEnNOdUWS8FFKiWgAFWtfrL1iqgwBAKGGBlx2+3AIvKj9tvvz1NjIo4vp1qCaoTqnS1U4BFxdB3vvOdAbuHscC4YNKcd8JVezNO9WL5C+FVI5brDHhTEWkp5G233ZYmkkWEWNwHG3izoftgq7BYdkdVRlH7G7Es8+STT46JEycOui1Z7LI8htMJWbLHaX9F+PKe7C1FYERwNJiLJVsEsOyFVsRF2MF+bVS/YN3si88km+f//ve/Lywg5B7KHGDxS5U77rgjVfcVUaXIUsGpU6empb/NvvjOIYjLux8WlbSE5nyPNiuAa7aV76dAqwoYYLVqz3pfCihQuIABVnbSdgywOP2MPWLy/sUa5RNOOCH9drtKVzsFWFkrsIpeekUIcdZZZw35/mi108wY70woi7gIsb7yla8MKmBhYv6Tn/wknZhYREDIsrYjjjgi/TR6SdRAZlRfERI+8sgjhYRYteDoS1/6UuZNtmun+XFARRHfa9wzm+E3a9lgf8aEggQ6LNUsKvgsc4DFksl/+Zd/Sfus5b34XFD9yb57o0aNyvtymZ/P55vw8cUXX0wVoEX0G0Eqp8kORZCa+cZ9oAIKfE7AAMtBoYACCmQUMMDKCBUR7RhgMZG/6qqrCvmLNcfen3TSSUNWYZO9p//jke0SYGXdA4vJ1uzZs4O90YpYVsr7MnGcPHly5gCinn7M+hzCDZa5sXl6EZNJ3pfTCNlTJ8uySCa0VAWx91XejZ1579q+Ypwkt+GGG2ZlaOjjCBwIsV5++eVCAjpOU/z617+eTiTMcrFk66GHHkqVYHkDQp7P0tfzzz+/0JMGs9xHX4956623UoDF6Zp57602fsp4CmEthKSKLu8SUD4jVEqec845DduwffW+ol/47uT7Zc6cOelzwFJIArkiKskIrKnC4p68FFCgOgIGWNXpK1uqgAJDLGCAlb0D2i3AQoYNrn/6058WMpnmVCd+M8xfsKtytUuARQXCLrvskpa7re364IMPUkUeG57nvaieYU80lpZyMl5ZLipZuEdCjiIqdLbccssgBNhuu+0GvEXem6WDLLUrYjLLnjj4chpeWS4m8Gz+z+bbnKSX9yKA+NrXvpYOAMgSEr722mvxr//6r4Xsm8S4Zekre3EN1dLXNf2o3CMAZR+1vFdZK7A4NZQlzOxjlvfixEiWodZ7GEDW92fcU4HI2Gfjdk5ALWL89/X+7HVHVWtZxmRWIx+nQDsLGGC1c+977wooMCgBA6zsXO0YYC1dujT+x//4H4VM9phgsoyQSXVVrnYJsJiIs3yGKoT+LiZgVAxQkVfEZtFUznAiHu9btovJP/fJSYB5L/a/4nQw9qAa6GJCy144RSyLok9ZWocvlW5luqjkowKKAKKI/bBqm7lnWf51zz33xK233pqbg3CHUJIlomWpbuOmsL3++utTFVbeELSsAdabb76ZqiT5BUueixB9ypQpcdRRRzXsM0IfUF3FARF8rgmuiggX13bfHCJAVeKmm25qiJVngPhcBZooYIDVRGzfSgEFqi1ggJW9/9oxwGJ5xi9+8Yt44403skP180gqUdgDa++99879Ws16gXYJsDgxjw32Wc7X30XQQOhw9913554YM3FkzyAmjrx32S7u9dlnn00hVt6lklRBEHRwOthA90pl20033RQff/xxbpLx48enyqSB3jP3G9X5Akzm2cOIyX3eiwk7J2hmWUb4s5/9LF555ZW8b5lCK77P2P+qTJUuBM0sSfv1r3+du3K2jAEW98fpnFdffXXuzyb7RBH0cIBF0RftJGBjiSDjjT5hWXARSzsHaiufeZbs8/2apSpxoNfzvyugQOMFDLAab+w7KKBAiwgYYGXvyI8KqMwAACAASURBVHYMsPhtPpvLPvnkk9mh+nlklpAk95sU/AJ33XVX8FP2K+8pkVQJMeH54he/2O+t8h5M/gke8k7CmDj++Z//eamWtq154yxTopKF5T55r7Fjx6Z9aag66++iUoO9oahKyls5Q3+y3xyVX2UKV1a/d8bQDTfcEI8//nghSzUJIjhlsb+L96NP//Ef/zH3SX2Ysm8bS0PLGBByryyT5GTCPBVuZQywilpmS4hO+EhVcFEVinxu+Z6kyoowmqorfgmUpw/q/e5hb7a/+Iu/SPt6eSmgQPkFDLDK30e2UAEFSiJggJW9I9oxwOIv3rfffnuw7CbvxaSPfZamT59eqj2P1nZf7Ffy7rvv5r31hj6f5Xzs2ZSnUohA6fjjj48DDjig37YuWbIkfvCDHxRS1cFJWV/+8pdLPQ4Y+4Qr1113Xe5AiaVtjPudd955rb7sf1VEWIwvYWQjKkuKHMxUp1BJU8SSKsbv1KlT1xoQEkay9Cxv4Ev48Wd/9mcpxCprQMg4uvbaa3MdRlDGAIu+oyqYiqY8QTrBY22z87x9yHcv+1vxZwV751GxTLVV3nFW72eNPQ2pRjz33HMrtWS/3vv1eQq0goABViv0oveggAJNETDAys7cjgEWEwQm8UyEivgtMhUo5513Xtqbwyu/AL/xZ1Pqn//857lCFpZDESj1F7AwDjidjyVfeYIy7phN/C+88MIUruSdOOYXXPsr1DYbX7hwYa634j5PPfXUOPDAA/ut9mDSy+eMTbjzXIQr7H01adKkwipL8rRnbc9lgs8yzSIOBWCPvW984xv9jinGLe9FVVLeCrfNNtss/vqv/7qU1Vc1b5ahEg6yb129VxkDLKroCNLznj7Ist7vfOc7dX8H8Z1IqM93BGEayxrZwy5PqFZvP/E8+mq99dZL36v8oogDMlha66WAAtUQMMCqRj/ZSgUUKIGAAVb2TmjHAAsd9u9gqU8RlUhsLM1vhfnLddnDi+wjY+geySl5jzzySNx88825JuVMdNijiWUnfV1M+NkPjP2v8k7QON6d5YNV2JsFX5Zivfjii7kDXDYap0Kov32a2HOLwCHvxJzliueff35wulrZL8YVtuzXlPfivgkkWDLV13cLYcOPf/zj3PuLMW7Z++roo48OwsKyXsuXL09hHWOq3qtsARbfPfx59Mtf/jL355HN2zlBsp6Lva1mz54dzz//fNrnqll7W/XVVsYgn3UC6+233z7Ya5LqMv98radnfY4CQydggDV09r6zAgpUTMAAK3uHtWuAxV/Q2ZuniL2A+Ev1Mccck/ZbIszyyifAshWWDz788MO5giUmPd/61rfSb/D7uqi+Yy+0J554Itf78NqHHnponHbaafluvInP5sS6xx57LFVb5LlY1nfsscf2uw8WQWQRyxU55ZP9oKqw9w2BBJu4//CHP8y9DxbLYAnuqKzpa/JOAH/JJZfkXgLL9xande62226lDgkIB/nu5hTZeqtnyxZgcU8sjSSUy1tFR5Xi/vvvn+kjzTilgo9KTIIr9rbi3xm7eQP9TA1Y40GMb/btIrDiFwL88B3OZ8BLAQWqKWCAVc1+s9UKKDAEAgZY2dHbNcDiN/kPPvhgIUfPo80Em2WELm/IPvb6eyTLaVg+mPc4+d133z1VxrF3Sl8XlUhUPbBcMc/FxOvss8+u1EmUBLds5P/mm2/mufU07llGyGRzzatW4Zb3wAB899xzz9SXVahww4GKs3/+53/OvacR+4yxITfLNPsKsFgCe8UVV+TaE4r2brvttmmJ5to25M81UAp88tKlS+OnP/1pvPfee3W9ahkDLE5C5SdPcMQhB5zQOW7cuLW68Lnkuw8/fonDdwDjNc9719UR//4kqq2orqLdbEDPdwlBVlU+63nu3ecq0OoCBlit3sPenwIKFCZggJWdsl0DLP6yzlIJllLxl/m8F38Jp1KCPWv8i3c+TfZfueiii3LvS3XEEUfEcccd1++eSVQbsP9V3v2ZqBD46le/OuDEMZ9Ksc/m3m+66aa01C3PRUXUWWedlZbPrnlRIUP11aOPPprnLVL/sUzxqKOOKnV10Oo3yT5YLIFl8+s8wQCVUVT3MY77+l6hwu33v/997o21OeiA5YP9LQXN1YEFP5lfPvC55VS8eq6yBVh8Ttgnjn0Z84wVwkc24SdU7uvizzmWBbIvHcswOWyA4Cpv1Vc9fcBzGNuMN5YKEtDyT4KsMi9hrfdefZ4C7SpggNWuPe99K6DAoAUMsLKTtWuAhRBBCVUSRZwWxuvxl/CTTz651JsgZx8ZQ/dINr9mgpr3mjZtWjqBsL9AkWUzTP7zbmY+fvz4tHywCtUrNVOWDtUmzXmcsaVyZ9999/3cy/Aev/nNb3KHZEx0zzzzzNhrr70qE2ARShBecQJjnlCCyXytkrCvcVzbw63e5XS1TuN7a7/99guqeMp+EQ7iyhLjeq4yBli/+tWv0jK+PNfEiRPTnz9sxr/6xZJsqlnZ+H7u3Lnx+uuvD1loRbtGjx6d2rjTTjulqlVCLH/pk6fnfa4C5RUwwCpv39gyBRQomYABVvYOaecAiwn2pZdempaQ5Z0AIs5eS0y0mXC62Wz2MbjmI6+//vq0vDPPhf9f/uVf9rt3EK/NvjMsoWHPlzzXQQcdlCqE2HC7Stftt9+elhHmCVi439NPPz3YzH3NMU/Q8Itf/CL3Es0qnfBY639MCSQuu+yyXJWETOxZWsVebn1N8qlwy7tXHG2+4IILUvVoFapfsGXcMn7rucoWYFEZxZJpgqU8F2EQ+9FtvPHG6TPNiY1U6FFp9cEHHwRLL/N+1uttX21TdkJoThPkhFg3Za9X0+cpUB0BA6zq9JUtVUCBIRYwwMreAe0cYKF0xx13pEqJTz75JDtaP4/kL+n8Fnxt+y7lfpMWfwE2Faf6ilO58lwsbfv2t78dm266ab8vw9I2+j9vBR7hFcu8qCyo0jVjxoy0B1zeJUSnnHJKuv81AxYCLPYqyrvPFlVBf/M3f1O5/eXYFJvKmjwnMBIKbrPNNimM7Stc4hACNuPPE0zwHnxWCMqqErzff//9aQlsPfddtgCLZX3sxTd//vxcXx9UQXIKISYsEeQXM7XTBPN+xutpGM7sP8gpsIRrVFxRbcXnuSrjrJ779jkKKPAfAgZYjgYFFFAgo4ABVkaoiGj3AIuNbK+88srck4eaOH9hv/DCCyu1H1L20dL4R86aNStYFpW3Koogkb2Z1hYqPfDAA3HvvfemSoU8F8fWc/JXf6cd5nntRj6X4PaGG27IHWCxPxMT5zUDFipLLr744uCkvDwXrv/pP/2nyvlSUUMFVt5wnBD2b//2bz/nS1DBHn5UEua5WKL553/+52kj96pcVJ2xjJCQdLBX2QIsAnTGSd6gl/7jzx+Cq3qCvcE69vd4vgdox4477pgqwjbffPNKVPYVdf++jgIKGGA5BhRQQIFBCxhgZSdr9wCLv+jzm3x+o1/ExW+WOUmJDac9/ntwoizjZELOxuJ5NtanD/BnE3eWqfR33XPPPanf8wYMnMK3zz77VGL/oNUt2DT6mmuuyb189otf/GLaALyvAOtHP/pRvP/++4MbCGs8mgDr7//+79Omz1W62Cz7t7/9be4KPypYvve9733u/vmMXHXVVanaJs/FSYcsUexv8+88r92o51J1xv51bOg+2KtsAVZRh0nUqpqGIrzivfnzjrCV4IqTBLfffvs0Zq22GuwI9fEKtI6AFVit05feiQIKNFjAACs7cLsHWEixRwhLOIpaZsFvnA8//PBUleNf3rOPRSoR2Asm76bqBCmcxjV58uS1+lN9dd9997VtgEUIQICVd9wTFvLTV4D14x//OHd/tnuAxZ5G3//+9/sMsKgeffbZZ7N/yPp4ZFUDLCqw6lmeWbYAi4CXZdNvvfVWrn4ciifz5xsh1XbbbZeWzxNeEYT6595Q9IbvqUD5BAywytcntkgBBUoqYICVvWMMsCJNgqiUIMgq4rfXTJD4S/x5551XiWPps4+Wxj0S96eeeiquvvrqXJte00Im/NhzLPvaLpbQsRl03iWELKHjBMqqVdzNnDkzLcPKG2CxhJLAtq89sH7yk5/E22+/nWvgsGfO3/3d3wX7mlXpmjdvXvz6179Om2fnuTjd8rvf/e7nAkL6jQAr7xJClnuxB1bVlhBSgcVBHIO9yhZgLV68OO2VlncJ4WAd8j6ekwQ55ZXQiu/cKpxgmfeefb4CCgxOwABrcF4+WgEF2ljAACt75xtgRZrAE14RYtWzJKUv7WHDhsVpp52WqrA8Inzg8chmw2yo/vTTTw/84LU8gt/8jx8/PqZPnz7ghIr9tjjJbNGiRbnek/2fDjvssHSyVpUullD+4Q9/yB3arm0T9//5P/9n7tPVqBD667/+67QZdJWuuXPnpmAi73JYgiU2ce/re6SITdx5XQIslnxVpXKmlTZx5xconNbJktMyX/yZxpJsDhWYNGlS2pSd0J4AtCrjpsy+tk2BVhQwwGrFXvWeFFCgIQIGWNlZDbD+zYpJBNUSeU+/W12e/UC+/vWvp9PT/At+/2OS6iv2Y6p3SdDqr0zYwWlc7Es10EVYRoDDEfN5rtWPr8/zOs1+bm3vt7xVh2eeeWaqxFhzjLPB9qWXXpr7MzVy5Mg4//zzU6VHVT5HtZPgrrjiilwVboRL3Pc3v/nNPgOs66+/Pp2imrcPv/rVr6YlYIQUZb/4hcOdd96ZAu96rrJVYFFFxtJpNl8v44UXQRX7WrEse7fddnNT9jJ2lG1SoIQCBlgl7BSbpIAC5RQwwMreLwZY/2bFpIgQ5dZbb8295Gd1/T333DNOOOGEylWPZB9B+R/J3ldUvxVRgcAki5OvqMIa6GLCeO2116aj5vNcLBf90pe+NOCSxTzvUfRzP/3007juuuvSss08F/vfcO9MbNe8mJgT4OTdo4kKDwLJvkKyPG1v5HO59xkzZqQKvzzhEoHSXnvtlU7U7KsCixM777777twb8bMMFN8qLAMjGGX54COPPFJXF5YtwKodXpG3+rQujH6eRFDM3nMTJkxIS0uptqICkn3uqhIiF+nhaymgQH0CBlj1ufksBRRoQwEDrOydboD1H1bvvPNO3HbbbfHCCy9kBxzgkUwCDjrooLTJdRWqGwq78YwvxESfiSjBYZ6lVrW3YxJ+0kknBZVYA11UXhGc5d08mUk/e25lCc0GalOz/jtj/ZZbbonZs2fnessxY8bEtGnTUvXOmhcT8xtuuCEefvjhXO/BpJkTJdlrrCqTZ8YyIQsb5ecJsFiyxf5ifH/0FWA9+OCDcfPNNwehTp7r4IMPDk6TrMIyWJZ5E4zW+z1dxgCLz+IDDzyQa6zk6f/ac2vBFZuy88sAPtcEV/7ZVYSur6FA+wkYYLVfn3vHCihQp4ABVnY4A6z/sKIK6/nnn49//dd/zT0hXL0HmIQyyaeSoioT8OwjKN8jqYLiBMgiwiuCjnPPPTeoestyMeln2eicOXOyPHytj2G/s0MPPTT36zTrBQgNOYHxvffey/WWTHIJDJnwrnkR3NT22cr1JhGx8847xwUXXFCZifSyZcvi4osvDk6Yy3MRjvLdwZju67vjpZdeSifY5d27jwMPOLlzyy23zNPcpjyXTfGxrXfpb9kCLP7cIeQl8Mx7oEKeDmDJO+OMJdgEmVRX+udVHlGfq4ACBliOAQUUUCCjgAFWRqiIMMD6X60++eSTtPEyVTlFTiaYIB555JGx++67p01vvSLefffdVD2StwoISyZanIrFZtRUvWW5qBBi0sjkMU+VDO9FOEl4VoWLcV1bPpg3+GD/r6OPPjqY/PZ1sVH+NddcU9dpcau/3uabb572kxs7dmzpiRlLfH8QsuT9DuHkRfa/6i9YYvnrT3/60yAwy3MRVnz5y1/uNyjL89pFPhdPqgex5fNbz1W2AIvxwncgYXq991SPA4E/pwfy2dpll13SMkG+O/mFi8FVPaI+RwEF1hQwwHJMKKCAAhkFDLAyQhlgfQ6KyQTVKSwl5Df9RV7jxo1L1Sqc9tXuF8EJy2aeeOKJ3NUjWDIBZ6kVYUrWUx+ZDHOaGcsX8wYNTAS///3vp3aU/VqyZEn85je/KWTTaEJZ3Nnkua/rxRdfDE7KIxjOczGxZpkmFV9ln1wTQsycOTPYJD/vRSjLCYyECn1dBFc//vGPc5+kyWeGZYQnn3xyqTfo5rAN9iokeK73KluAxX1QqfejH/2okErUgVwIrghGt9hii/TZpXqyv/E10Gv53xVQQIG1CRhgOT4UUECBjAIGWBmhDLD6hCpq7541X5yJN5OGc845J/3Wu+wT8eyjaHCPZBLKBJ/lZXkrgGrvTLBBBdRg9vAhrHzzzTdTBQt7ceW5qKpjGeF+++2XOUDL8355nstJm+z9lTegZV8cNnBf29JYKoQ4KS/v6Z58VtgDiz3O+gvL8pgU+dzFixengPD111/P/bIs52JpX38X45Z9xgh18lbvUN1GWFZmX5YNXn755TF//vy6bcsYYLGc+Sc/+UmqLstbDdofzOjRo1NYtccee6QDJwhHCbO8FFBAgUYJGGA1StbXVUCBlhMwwMrepS4h7NuKE/Guuuqq3HsE9fXqLLtivyQmE+0WYjFR47QtTk9btGhR9oG6lkcyIaVyhM3yB7vZMBUsP/zhD+Pjjz/O1Rb6cccdd4yvfvWrmTaQz/VmOZ7MXmNsFs3peHmrzmpVUdx3fxenHVKJRMCSd2LO+xxzzDGl3yz/ySefjBtvvDGodMt7DbS3Gn3ISZIs08y7kTthBuE6AUfWKsa89zfY52PL8ldC8HqvMgZYhI/0IRWpeT+Xq7vUqq1YHrjrrrum0IqfsvZvvX3q8xRQoJwCBljl7BdbpYACJRQwwMreKQZYfVtR2cDyJ067yluds+Y7MHlgEkH1CkeUt8vFxIzw5O67785d/bO62dZbbx3Tp09P+7kM9qJvqUair/MGLCNHjkwBABPFsl5UsLDXDvuP5b04nezCCy8ccF+qu+66K/jJG7DwueE0Pk7LK+sEnPGE78svv5w7iCAU/Zu/+ZtgfK/tIoT9b//tvwVhYd6LscsYZiyX8frFL34Rc+fOzWVbxgCL70aWrrM0Mm8lXa3fCJhZIsi+i1TXUSXabr8wKeMYtk0KtJOAAVY79bb3qoACuQQMsLLzGWD1b8WE8Nprr03HteedfK/5LkwkttlmmzjhhBNSiNXqe5B89NFHQfXEnXfeWeg+L1Rcsa/YgQceOOjqK/qEieODDz6Y9uPKG1TSp5MnT07tGcxSxuyf1nyPZAxz8iDVV3nDOio7OBnwa1/72oBhEqc8UjVT76lxq981wS+bmuNbtsk4pnxXUElTRPUVFZrnn39+2q9ooItgp4jTNFlm9oUvfCEFH2UKCbElFOTExbxBXRkDLPqXql9OwM17ciWvxab/7AdIIMlntWyfFUI6+qFs7Rroc+Z/V0CBwQkYYA3Oy0croEAbCxhgZe98A6y1W3FM/b333pt7D5/+3oXqCpa+EXyMGjUqe8dV6JEsz7vjjjvS5D7vZt6r3zaTH6quCFEINuq9ipw4jhkzJk3+DzvssFJNzggA2DeoqAky93nEEUek+xzoos+pZKRyJu/FpJeJOSFL2UJfKqFYOsgysLwBIU7s+cV9ZjkYgGCSEz3zvi+fKfZHYsP8jTbaKG93FfZ89sojGHzmmWdyVV/RoLIGWHxPsi8g+wPmvaig23///ePEE08s3T5XLGMmbGWvNX6JM9hl33ltfL4CCjRPwACreda+kwIKVFzAACt7Bxpgrd2K3xSzATUbB+c9qr6/d2KCus8++6RAgGVZrXIxmWZTYibWGBa5twtGhChTpkyJQw45JFdYRLUMk0aqw4q4CNNYWlemKizu8Ve/+lXatL6IfmBPHZaaZakOYhxw2iMnexZRycjSKCoX2dC9LBd7MhGuEGAVcTDBuuuumyrNmOBnuQgnCXjefvvtLA9f62Oo2CGEZb+xMoQLRX8HlzXA4j5fffXVtASVkCfvxffP17/+9XRwSJkqnQhbCeoYZ1TOcgjEpptumvd2fb4CCpRQwACrhJ1ikxRQoJwCBljZ+8UAa2ArlpZRhcVfuouYWPT1jkwUt99++7S5+y677FLp/UoILHBiTxeWDb711lu5K0PWNGNChhVVKnkrcQh05s2blwKePJtD19pI26hMYq8mwpahvgiNWCZ56623FhJecT/HHntsur+sE+MPP/wwnbJWRAUe77n6HnJZ29CofmD8UF1IUFvEMknaOW7cuHQgQNYTAQkoH3300fjDH/5QyG3yvlQ2UiE61CfV8dlk3zz2qSviKmuAxb3xOeGXJVSF5r34XBAOsW9cngrVvO2oPZ/PCffF/bGknIvvbgI2vsfbYSl9UZa+jgJVETDAqkpP2U4FFBhyAQOs7F1ggJXNikCG34yzDCrvMp3+3pGJFcsIqcTipMIy7vMzkBY2LIV56KGHUmhCNUrRXkzMCIa+/e1vFzYxY0LF8joqIIq42DD51FNPTct4hnIvIeyff/75VP20YMGCIm4t3c9f/dVfZa4O4k1pB58fluQWUQFGGzgt74wzzhjykHDx4sVx6aWXpmrDIsY6Y4fqslNOOSXz2KktEf35z39eSAUYfUaVHWOYgGGoLsLXG264IWbNmlXY5uZlDrC4Xz6rVCkVcRE+1g4+GMqgl/HJ3l7c27PPPvu/fE5q3+dUY1FRW9YDBIroD19DgXYTMMBqtx73fhVQoG4BA6zsdAZY2a1YnsNpamv+BTz7K2R7JJMOlhKyNI5JJPs8DXUVxEAtJ5Sg+oSwhKorTrkrIqjo631ZOnjmmWemTcSLCodoK6HbTTfdVNhEmSqWqVOnpjAib5XYQP59/fdaZVCR4RXjkHF5/PHHpyrBwVyEv1dffXUsWrRoME/r97G05eCDD06+bFrd7ItJ+euvv56qgwjmigivuIfx48engwCyLh+s3TfVg5yoyWbnRbSFzxZVoaeddlrybXYAQrUeVWUs7c17wMLqY6PMARbtJEQnTK9VKeUd1yzzpWKSZeqD/czmfW+ez1jkz84//vGPMXv27H6/X6lC3mGHHeLII49MY79V94QswtTXUKAqAgZYVekp26mAAkMuYICVvQsMsLJbMYliOVxtCUQRk8S1vTtVRhyBTqUJE0l+M11UYJP9rtf+SAw4FYylISzxefzxxxu2zJKWsF/YvvvuGyeffHLhkzH2h/rlL38ZS5cuLYonVdFRJcTErJkTMvbTYdLIkrIiqwbZm4l9dVjuM9hAg2VuhGksLS3qwnS//fZL+zUREg62TfW2g3HPci9Or2RD6iL2vaIthHJs3M6SqsGG1rSJgJ3lzkW2h2pQglhC9Wb5EsYRhHP4QxHLTqsUYPF9ShBJkMXnOO9Fn9F3Z511VgqGmhliEaITxLH8nj8bBgoiaeuOO+6Ywjb+7OP7plljLq+zz1dAgc8LGGA5KhRQQIGMAgZYGaEiwgAruxWPrFW1MLEqYsPkLO/OJJ1lPBMnToxJkyaVZqN3JiaEVk8//XQK9hqxXHB1HyYytZPvGrFBOn177bXXpvspKgCg/VSM7bbbbqlqqRnLY5gkUhX01FNPxcKFC7MMscyPIUw999xz69rcu1ald8kllxQaSlC5wb5xhD7NWO5GqMByTMZKUZvi1zqAscIBAPVuak3Yw1JNNnUvKmAnSCOwpDJm1113bXigQIB8++23p9Mci/wc1ozLXoFFO6no40CAIj+/m2++edo0nQrKwYajmb8g1njgc889lw5weO211wY1HgnZamNuwoQJpfvFTb0ePk+BdhMwwGq3Hvd+FVCgbgEDrOx0BljZrWqPZCLOX8ivu+66NMEoaqI4UEuYqBNmscSI5XP8xZ6qE6qSGj0h4Z7ZB6xWbcUyJTauplKiiJPlBrp3Jp1MaM4777wYPXr0QA+v+78Tyv3ud79LVTVFXrXlMUcffXRajtWIIIvgivYTXlG9MlC1w2DvjypA9qghxKr3ok2Ev+zxU2T7CDdxrZ1q1ohqRT4DhCtUkPHDXm9Ffvb5LFOtN3ny5FyfZz6XnEhYZOUSvlTDnHjiiel7h89g0ZUxjAeqBR977LG0FLmI6qO+xmkVAizunaollt0VNcboL8YYn5GDDjooNtpoo4YEQ7XPCQEk30X8mVHvPbAMm1/cUGHJLy3KVoFc7/egz1OgXQQMsNqlp71PBRTILWCAlZ3QACu71eqPZILBJIsQq8glZ1law1/iCaw4IYzKHoIFKjYISYoMs5hQcp8EVAQjVHVQ1UPVCf9/oyaYfRlwf9OmTUvLS4qeOK/Zr+xxduWVVxZ+f/QbVRDs28TpYEwmi5iQMTmkj+gfNs5vxOSfdjKJ5OTHvOEb4S9L71h2Wu/Etq8xwrgg4KVSiJCNaiY+E0VchLcsGcSXiTn/u8i200aWmVJ9lbfNhMpU77Bkq+g20veMXSohx44dmytoq/ULbaTNVLSyYft7773XsP3zeM8qBFi0E4ef/vSnhf/5wp8dfD7Y3J2lhXnH2+qfL76H+JwQoPNZIbzKe9FelhQefvjh6c+5Rv+yJm97fb4CCvyHgAGWo0EBBRTIKGCAlRHKJYTZofp5JNUCDz/8cCHHntfbGCbuTNaZjLCEin+nWoLNe/knQQmTFP7iX/sn71ULoZh0MCHnZ9myZX/64dQoJiNUmfHPoifDWe6XeyOgY/kd4VUzLhxqJ581YiN6+mHcuHFp2Rv3ROUQweNgL/qPSe68efPSfjkEV42ohqMPttpqq1T9RtVG3gtTJriEWEVWCa3eLj4DVDJRvbHZZpvVVbXHeGfDeU4XZCkUVXmcONiIi4k5pw7S3rwX7caV/dxoeyMuvlsIshjH/PC/Bxss1yoGqebElmVzRVbl9XffVQmw+HwTAlGFK4RRngAAIABJREFURcBX9MWfC5ySSkUve2PVe+pt7XNCIE04zRLsRvxSh8/xl770pdhuu+0GPdaKtvP1FFAgm4ABVjYnH6WAAgqEAVb2QWAFVnarvh7JHi0ECLX9SoYi5FmzXQQkBCJrBljsK8J/q1X9ECTUKqy4j9UDLCZMjQhvBqPNhJiKpVNPPTVNkousFFhbO+hDqpkIsfhnoy76iMCRCRkhFhV1nDjJ/99XGFCrtGLpGnuOsQ8Tp+BREdfI/ceY2HIqHoHQYEOK/uzY0J0N5gmAG/WZqS0rZAwRgmJNUMThCP1VvvF5IKQisKXv+aEyiBM2G3XxuWSMs79dURv989kl/JgxY0Zhp9mtef8YEhQyfvnBmXHMPfRXJUNARd8zfhm3/JPvz0YENFUPsGg/la8333xzClAbUfFKP/H5JsCq9SGfEZaI8t/6+7wTlBOS8ssNftFBgE6Axf/XqD83qDY+/fTT05jzUkCBaggYYFWjn2ylAgqUQMAAK3snGGBlt+rvkbW9WzhhjYqHRv0FPn9Lq/UKO+20U1pux3KXIpbaDebu6dNnnnkmVT80MrygTdxbrWKOyT/BI5M0gix+aAvhIsEV4QrLcpgo8s9GVFyt7sQk9thjj00n4xUdIFI9dtlll6UqskZeTMJZ+kZwxQ+T81q4W6t8I0Ch+pDAgICF/4017o28aBt7Sp199tmpbUVejBGWO7IheqPHSc2XPYu4D5YX8v/VfGvhOJ+l2vjFuRkVV30Fb2eeeWZwuuJAY5q2XnTRRSmkqffiPXgvlkAPdvkb4S5VTbfeemsKqxt5UZFF39W+i/iM8H1EHxKyMoYIyvmcMLaosqpV7DY6gCRUo/qKX2R4KaBAdQQMsKrTV7ZUAQWGWMAAK3sHGGBlt1rbI2vLKDjGnuCj0X+hL6bV5XwVJnxMVPhtOxOXoqp+Bnu3TK7ZR4gKiEachra29tTuufZPxlftp1keTFrZ64ifvPte9Xevs2fPTksJG7XUrb/37cuXxzaqGqyvdtAGqu7OOuustESzERchA5WELOtq9r2tPnZr99bMNvTnWZUlhKubcdorh0vQn80yXP17Zs3vIf53M9rB+xCkTZ8+PVWINfsXGY34TPqaCrSTgAFWO/W296qAArkEDLCy8xlgZbca6JH8hZ4Jxk033RRMzBuxD8hAbaj6f2eCwnIvllQxqW9WWNOfG3141VVXxSuvvNLwapwy9R2VIpz6eO6559a9N06W+yHoZdN8Qqx2+7xQZcdG2gcccEDDxnmtgocxzH5ezQgdsvT7UD6magEWVoTpv//979MvR6h6apeLCjD26WIPxIGq5drFxPtUoEoCBlhV6i3bqoACQypggJWd3wAru1XWR7I0ho2Ja8vPnDRmk6ttKsyEnr10ynIx8edIezbrb4e+JDSkAu64445rysb5LC/D9s477yzk1LKyjJu1tYN9h9i0nX19mjExJyS8++67075T7X5VMcCizwh7H3roofTnylAsvWz2uOFzQfUnJ59SheWlgALVEzDAql6f2WIFFBgiAQOs7PAGWNmtBvNINtxlWRT7YlG90w4TjsH4rPlYNi8/8MAD45BDDkmnJpbtYm8k9hJiT6FW3uOM8Kp22hcVWM2qgGOJ5r333huPPPJIw04mLMuYYlksE3MqS5q1JIrvIzajv+KKK3Lt51QWwzztqGqAVQuxCNPZnL8Rm7rncS3yuSxZPvLII+Oggw5Ke3J5KaBANQUMsKrZb7ZaAQWGQMAAKzu6AVZ2q8E+kqCDEItlHzNnzmz6PkqDbe9QPJ6AhKVUbBQ+ceLEwjeyLuqean15/fXXpyqWVpw80heEK+w91sxTH2t9xCb1s2bNShUmrejLfVJJcsIJJ8Suu+7a9LGO6aOPPhr33XdfOpigHaoJ+/r8VznAqu21yPcQJ/81+pCBor4/B/M67L1HcPXFL36x6Z+RwbTTxyqgwMACBlgDG/kIBRRQIAkYYGUfCAZY2a3qfSSTDiYbhFhUY7XTHib9mRGWcBocoRX7mxR9Alu9fTXQ8ziZjuVuVEC00uSRSSOnPVL1MJTLN/msUIVFlUkr7dnEeKfK8KSTTkrLBptV2dbXeOZUO6oJ+U6qWojFsjL2Z8tzqEKVA6xaf3I6ImEkh4bw761y8WcC+x/usssupazEbRVn70OBZgkYYDVL2vdRoAUEentWRe9nS6J3xbLoXbk8ontVRG9PxLDh0dE1ImLEyOhYZ73oHD6qBe7287dggJW9Ww2wslvleSQTRY4ef+6559IEfcGCBS1bZTKQExNQTl9jbxMqUdiot0oXE0YCLE52e//996vU9D7bSnhIqMKeV1QIDWW4QgMJBl944YV44IEH4o033qhcyLImMoEJQS1LBnffffch9+W7aP78+WnPsblz58bKlSsrMYb53thnn33S+OCzV+/VCgEW906I9+CDDyaLt956q16OUjyP75yNNtoopkyZEvvtt19T9oUrxY3bCAVaXMAAq8U72NtTII8AQdWqd+dE94dvxKqP34nuj16J3k8/iJ4Vn0bvquURq1b+e4A1Ijq6hkfHiFHRMWL96Bq9fXSN3iq6Ntwyhm25a3SN3iyisytPU0rxXAOs7N1ggJXdqohHshSNyoc5c+ak/ZRYNtVOF79h33PPPWOvvfZKp9wxKa3ixeSRo+0JWV5//fUq3kJqM/1x+OGHp+orKoTKcrFnXC1koWKoKiHLmn6Es4S0U6dOjU022aRU453lzVTxPPbYY7kqmpoxZgg4Jk+enJaV8d3JSa/1Xq0SYHH/fE7wIFDnc1K1ijrugb4dP3582gOR76FmHGpQ79jxeQooMDgBA6zBefloBVpXoLc3ertXRu/yJbH8pRnx2bM3xWfvPB+xbGH0dhNYLYnoXhLRkYVgRETXetExnGqs9aJrzLgYuf1BMWLvk2P4ZjtFx4j1oiNNMDO9WJY3bMpjDLCyMxtgZbcq6pFMMgiyPvzww1SNxR5ZBFmtujk4E5T1118/VaEcddRRqcqHJWtVv2r70XC8/bx58yq1NJRJ4vbbbx9nnHFGCq7KGiSy3Jag8Oabb46lS5dWZoJOSMJm+Ix3xn0ZDybg80cwyPcPSwrL+h3Eht4777xz2puN7w0CtxtvvLHurw/65qyzzkoh+kBhCdWWF110Ua5KS95j7733jmnTpjXkc8b3EEub+R6q0hJ1/lzgz4J99903HWrAZu1DXf1Z96DyiQoo0KeAAZYDQ4F2F+jtSUsCuxe/G58+dXOsmHtfrHxvVvR89tG/hVYsEcx7dY6KzhHrR+d6W8TwzSbFunufEcPHHxyd642NjmEj8756055vgJWd2gAru1XRjySwYoLEckIqeajM4qj0VtnAmokiE86tttoqVU6wt1IZlqgV2Y9MHjmhkCVvnKLHMtEy918tTKxVO9AnzToJr153qt34bBCyLFy4sPR7jxFW7bDDDim8wnfEiBH13npTnlfzZW+32pLCslTyYMeSMpYbc8AAbTXA+vywqC1RJ+xlaWjZv4cI9ahI5M+FHXfcMVWCeimgQOsJGGC1Xp96RwpkE+jtiZ5lH8Xy1x6JZY9eHstfvT16P2vevivDNt03Ru12coyafGp0bbpDdI7aMFu7h/BRBljZ8Q2wsls18pG1Y+6phnj55ZdTNcSSJUsa+ZYNe20mnUxImMRTfcK+P2Wt8CkKoTaBJIhkEvnee++VqqKOkGrs2LGxzTbbxMEHH5wmjVWrduDz8Pzzz8dDDz2UTtEj7C3LhSXBFXu74cueYlWrMmQ5GuHQU089FW+//faQ+vJ9QfDNnleErTVL+ryIAOvss8/OtFytChVYq38Gat9DLCnkzxG+h8oUqNOvW2yxRfpzgZMGOYHWSwEFWlfAAKt1+9Y7U6BfgZ5PP46lM38Ty1++N5a/eX/EcoKr3iaLsXywM7pGT4jhW+8f6+53Zozc/ZjoGLZOk9uR/e0MsLJbGWBlt2rGI5mAEF5xAht7msyePTtt0Jvn1K1mtJv32HDDDdOkkP1MWD5FxUTZq3uKtiEEoP9YykPY8tJLLw1pkIU/E0b2Havtc1W1YGXNCTrLpdi/iaCQsGWoT/VkeSxLxCZMmJACQv53Va9aVShLYtkfq1YV2qz7IeBgM+/DDjss7R1GwLF60FpEgMV7TJ8+PYUoAwXrVQuwav3E9xCfEyrqODiEP0eGcok63znjxo1L30OcMEi/ttufDc36DPk+CpRJwACrTL1hWxRosEBv94pY9c5LsWzWlfHZs9fHqo/nFLNEMG+7u9aLEZvvGaP2OS9G7nF8DNt4e3bgzPuqhT/fACs7qQFWdqtmPpIgiz1/WDLFZJ1AhH+ybxb/rfbTzDbV3qs2oWQCwlIQqk4IrTbffPP071T6DDQxHIp2N/M9OSnt3XffTf3G8kJOK2zWHk70C/4EiEwWqbaiX1i+2SpXbQ85qkwIW9jImiCrGZ8Lxj/GTMIJrdhLjMk5475VJuUEIFRhcQok4/fNN99MITrVPI2o3MONCjY2asd0p5126vN0UgIs9g1kT7R6Lz4bF1xwQfrOGuh7igDrZz/7WfoervfiO5L7Ou200wZ8v3rfo7/n0Werfw9xH9xTM5aI1paQs4yWKlw+I4Tp7GnmpYAC7SFggNUe/exdtr1Ab/R8tjSWzvh5LH340li15OXo6C3fEde9netG19iJsfGX/ymGb7dPdAwr1x4fBljZP0gGWNmthvKRTCiZPBKEUNnDxJJT2vj/+GFC36jfsDMRqf3UKiSoNGFSwjIfNt/l/2+VyXuR/cxEsVYNwfJQjrwnhKz1WxHLe2p9w0T5/2fvPaCtKvJ8/9+9l0vOQVARRQUxAQaMmFAUMQBiosUIhm5H+/Wbnul5PevNf97MmjWhR21tc05tDhgxYUAxgIIRBEQRRBQEAclw7/2vTzlbr3DvPVX77H3it9Y6C5Tatau+VbvOqc/+BbLeYeWA2xWAhf9XyvMSJUTgUI5FFtYmZIVE8+iZyXY+ATasbz5YkgAFsd4BtHAYL3V90ZE4b2iLVRaunKxb/n9cEFJfU6w1sQ4k1lW0lzQGyZhnXEgnTpwYe1qZx1//+tcuC2qmuWN8BLqPO86okxHMid3pLC/ku4E5wyrrvffec88KbrjRM5LEd0cEznlGsEJkHzrggAPc3/l/aYDPLGXR5VJACqSsgABWygKreSmQdwXqaq1m2Ve2dtpD9sPr/2V1m5ab1dXkvVuNdqCiypp13c/aH/331mKPIVbZulPB9FUAy38qBLD8tSqEmtFBhMMIB0kgFnFOcDPkcIKFQv3DO/U4fEWgpP5BrP6BgkNd/UNldFgnnhWugVjzkK0OaxMsTQAjfDJZMBSCZoXQhwhkYRERuRgyZ1i5YK3FnPFnY/PF4ZD54YPuHAijP5kPrN8AKsCANm3alOWBMVr3BLBGV6yzsBzimQBC1H8uogN79DxE2kaHcNY1ax+NgSq9evVyH6AHlmz8e6YMdoWw7pLqQ7R+0ZL9Bvdm3NPQmjUd6RuB9PqWcPX3FjRl7UaaYpWDJRTgFT0zQQ6s7Ijv9PLLL8ceGv25/PLLnTVQJoAV+yYFemE0j+w1gHQsF3lGsMyK5jDaj5iLaD/iuugZiSwQo+8INGQ++Y5g/2Ef4u/RXGea0wKVSt2SAlIgAQUEsBIQUU1IgYJVoLbGNi6Ybj+88Cfb8NkTVle7sWC7umXHKlr2sLaDxlubI35tVR23K4h+C2D5T4MAlr9WhV6TAwgQi/hZwC0Olxz4OJBE2Q0ja4IIhERugBwgOXDwJwCEt+ZY8BCMvdCzqBX6vDTVP+aF+cLChQNlBASYs+hAGVlvMA+4WTE3wETmhnhBSj/fuMLoiKZoi8bAQ54JtI0+XA08ifRl/aMtYJAPfxeo3Vpj4AZaAj+w5qmvbQRj0Q0rNdYt4A+wARAHdMTRlH3txRdftDfffDP2Y89c//3f//1W8bViN1gCF0b7EHPIXPI9wvOx5T4UPSd8T7AP8WzwAaDz/1SkgBSQAvUVEMDSepACJapA3YbVtmH2a/b9E39vtas+LYxYV4Fa11U0s1a7jrK2gy+yFnscnfe4WAJY/hMogOWvVbHVjOv2ojfmuZ/p0LnSHIXPUYjG0jcdfbPVFcDyyCOPuOQIcQvg5Q9/+INiMTUgYMgzwuXZzmfcOdR1UkAKFIcCAljFMU/qpRQIUqBu8yZb+/a9Lt7Vpm/fMavbHHR9IVWuaN7Rqrc/zDqd8l/WbNvd+GmTt+4JYPlLL4Dlr5VqSgEpIAWkQP4UwJLurrvuci6icQtWYP/rf/0vWZbGFVDXSQEpIAU8FRDA8hRK1aRAsShQt2m9bZjzui2/d4zVbVpWLN3O0M8Ka77zidZl7K1W2b5b3iCWAJb/chLA8tdKNaWAFJACUiB/ChCviayAxN2KW8jKOX78eBeLS0UKSAEpIAXSU0AAKz1t1bIUyLkCwKt17z1mP7zwL7Zp1RyrsLqc9yG1G1ZUW5sDLrd2h19iVd13Te02TTUsgOUvuwCWv1aqKQWkgBSQAvlTgAx6jz76qIvPFLf079/fxowZU1ZB+ONqpeukgBSQAtkoIICVjXq6VgoUkgJ1dbZh7uu24rHf2eZl7xdlzKtMcla27Gyt9xlv7U/8J6to0SZT9cT/XQDLX1IBLH+tVFMKSAEpIAXyp8DTTz9tb7zxxk9ZVeP0ZPDgwXbiiSfGCiIf5366RgpIASlQrgoIYJXrzGvcJadA7feL7Ls7x9qmRa+ZlZLl1ZYzVdXROp7wJ2t9yDlW0ax5TudRAMtfbgEsf61UUwpIASlQagqQTXDevHkuMyCZRwu11NbW2p///Gf75ptvLDTYeDQmMnqOGjXKDjrooEIdpvolBaSAFCgZBQSwSmYqNZByVqDmu/m2+vWbbfVbV5nVri9pKXCKrN5mP+tw/L9ayz2PNausytl4BbD8pRbA8tdKNaWAFJACxa4A8AdotXr1aluwYIFNmzbNFi1aZLjWYZnUrFmzghziwoUL7ZZbbrF169bF7l/79u3t1FNPtd133z12G7pQCkgBKSAF/BQQwPLTSbWkQAErUGc/vHyDrXzucquorSngfibbtVa7n2MdRv6rVXXplWzDTbQmgOUvtQCWv1aqKQWkgBQoZgU2btzowNX8+fPtzTffNKAQlk2UNm3a2G9/+1vr1KlTwQ2RPr744ov2yiuvZOU+uMMOO9gpp5xiPXv2LLgxqkNSQApIgVJTQACr1GZU4ykvBepqbeO8qbb8/gusZuWs8hp7dUdrf8T/sbbH/NYqmrXIydgFsPxlFsDy10o1pYAUkALFqABud2Twmz17toNWK1ascOCqviteRUWFc6077rjjHMwqpLJq1Sq744473BiyKQMGDLARI0ZYu3btsmlG10oBKSAFpICHAgJYHiKpihQoVAXq1n5v3z/yd7bu4/vMauObvxfq+JruV6VVd9vXulzwkFV128nMKlIfhgCWv8QCWP5aqaYUkAJSoBgUiNwE165da1988YXNmjXLgaulS5c2GT+qa9euduyxx9rAgQMNoFUIBdDGGO655x5bs2ZN7C7hGnn44Ye78VVV5S6kQewO60IpIAWkQJErIIBV5BOo7pe3Amun3GnLn77MKjatLlsh2h3+z9b+xH80q0w/voYAlv8yE8Dy10o1pYAUkAKFrgDAZ8mSJTZ58mQHflauXGmbNm3y6jbQqnv37nbOOedYt27dvK5Ju9K3335rr732movVlU3BNRLrqz333DObZnStFJACUkAKeCoggOUplKpJgUJTYPNXH9vKp//J1n/2hJn9GGuiHEt1j0HW8eQrrXnfwakPXwDLX2IBLH+tVFMKSAEpUKgKrF+/3j766CObOXOms7bCWmnz5s3B3SVT3/77728nnXSStWjRIq+WWASbf/755+2tt94yxpdN6d27t/3qV78q6EyL2YxP10oBKSAFCk0BAaxCmxH1Rwr4KFBXZz+8dJX98MY1VrfmS58rSrZOZcsu1rr/+dZ+9L9bRVW6VlgCWP7LSADLXyvVlAJSQAoUqgKLFy+2G264IassfdHYmjdvbmeddZbtuuuuxt/zUXCDJHbX7bff7mJ2ZVOAcgceeKCNGjUqr0AumzHoWikgBaRAsSkggFVsM6b+SgHsrdYst+9uGm2bvn5VephZVaeB1nnsrdZ8x/1S1UMAy19eASx/rVRTCkgBKVCoCqxbt84FOsdtMIlCoHMssYYOHWrV1dVJNBnUBgHnJ06caIsWLQq6rqHKrVq1svHjxxtZCAsltlfWg1IDUkAKSIECV0AAq8AnSN2TAlspUFdrm7/+xJZcN8TqNn4ngVCgupN1GP6f1nbwOLOKytQ0EcDyl1YAy18r1ZQCUkAKFKoCxL566aWXXOyrDRs2JNLNtm3b2pFHHumsl3LlTojl1YIFCxy8AsYxrmwK1le4D44bNy4vIC6bvutaKSAFpEAxKyCAVcyzp76XpQJ1G1bbmlevs5Uv/kNZjr+xQbcaON46jf6TVbTqmJouAlj+0gpg+WulmlJACkiBQlZg1apVdvPNNxuBz5MqWC8dfPDBLoNfmzZtkmq2wXaAV7hCPvjgg+5P/jvbgvUYroODBg3KtildLwWkgBSQAgEKCGAFiKWqUqAQFKj5br59d/Mo27z8/ULoTsH0oapzf+t6/kPWrEdfs5TSdAtg+U+3AJa/VqopBaSAFChkBQA+U6dOddZLBHFPqgCBsGIaNmyYy07YsmXLpJp27dBvsiW+++67Nn36dPvuu+8SgVe0vdtuu9no0aONLIQqUkAKSAEpkDsFBLByp7XuJAUSUWD9+0/bsntPSqStkmqkooV1Pesxa77nEKuoTvZHcKSTAJb/ihHA8tdKNaWAFJACha4A4Orxxx+3Dz/8MDEIFI152223dXGx+vbta127drWqqqqsYkoBrrAaw2JsxowZ9sEHH9imTZsSkxjwRjB6+puPOF6JDUQNSQEpIAWKUAEBrCKcNHW5vBX4/qHf29qpV5S3CI2Mvt0h/8faHH2ZVXXYNhV9BLD8ZRXA8tdKNaWAFJACha4AUGj58uUuoHuSroTRuIFWnTt3tj59+jirrH79+gVbZNXU1Lj4VsS6+vTTT23p0qW2evXqxKXt37+/nX766S5+l4oUkAJSQArkVgEBrNzqrbtJgawUqNuw1pZeO8w2LX49q3ZK9eIWPYdaxzOutmbb7p7KEAWw/GUVwPLXSjWlgBSQAsWgABDrzTfftJdfftlZOKVRmjVr5sBQhw4drGfPnoZ1Vo8ePYzshcTKIng6/di4caOtXbvWASpcA/nMnz/f9Wv9+vXu39MouDoOHz7c9txzz6ysxNLom9qUAlJACpSDAgJY5TDLGmNpKFBXZ5vnv2ff3X2m1fwwrzTGlPAoKpt3si7nPW7N+xyeShwsASz/CRPA8tdKNaWAFJACxaLAihUr7J133rFJkyYl7kq4pQZYZfEBWlVUVLg/I4BFFkFAFh/+zgcLrCQCtDc2F/TloIMOsmOPPdZat25dLFOmfkoBKSAFSkoBAaySmk4NpqQVqKu1Na/fbitf+L9Wt/6bkh5q7MFVNrcOx/7J2gy51Coqq2I309iFAlj+kgpg+WulmlJACkiBYlEgii9FPKyZM2emCowKSRMAGm6NJ598sovTpSIFpIAUkAL5UUAAKz+6665SIFyB2hpb+cT/szVTr7O6TcvDry+HKyqrre0Bv7MOo/7NrKpZ4iMWwPKXVADLXyvVlAJSQAoUkwJALODVhAkTXJa/NK2eCkWXVq1a2ahRo2zgwIFyHSyUSVE/pIAUKEsFBLDKcto16GJUoK5msy27cbRtmP+cWV06sR2KUZdf9LmimbXYZaR1Hf9Xs2bNEx+OAJa/pAJY/lqpphSQAlKg2BQAWn300Uf27LPP2rJly4qt+0H9bdmypR111FF2xBFHOJdGFSkgBaSAFMifAgJY+dNed5YCQQrUbVht3155pNUsey/ouvKqXGHNOg2wbf5uilU0Tz4+hQCW/2oSwPLXSjWlgBSQAsWowObNm+3rr7+2Bx54wEEs4lCVWsHy6qSTTnJB2xX3qtRmV+ORAlKgGBUQwCrGWVOfy1KB2tXLbclfhljNsg/Kcvy+g65o0cN6/OMsq2zd0fcS73oCWN5SmQCWv1aqKQWkgBQoVgWAVu+++6699NJLRoD3UnInJGD8/vvvbyeccILgVbEuUPVbCkiBklNAAKvkplQDKlUFalZ8bUuvPdZqVnxSqkNMZlzNu9q2v59ulZ17mllFMm3+TysCWP5yCmD5a6WaUkAKSIFiVoDsf3PnzrWXX37Z5s+fXxIQq127dta/f38bMmSItW/fvpinR32XAlJACpSUAgJYJTWdGkwpK1Dz3XxbcuPxVrvi01IeZtZjq2jexbr/9i2r2mZXswoBrKwFjdmAAFZM4XSZFJACUqAIFcASa8GCBfbCCy/Y559/bkCtYi3EvDrmmGNcwPYOHToU6zDUbykgBaRASSoggFWS06pBlaICNUs+syU3nmC1q+aU4vCSG1OzzrbNpS9bdc/+AljJqRrckgBWsGS6QApIASlQ9AosXrzYpk2bZlOnTrUNGzYU1XgqKiqsc+fOdthhh9mgQYOsefPkk8EUlSDqrBSQAlKgABUQwCrASVGXpEBDCghgea6L6k62zbhnrHqXA80qKj0v8qsmF0I/naglgOWvlWpKASkgBUpJAYK7f/LJJ/bqq6/a0qVLCx5kAa6wusJl8JBDDrEePXoY8a9UpIAUkAJSoPAUEMAqvDlRj6RAgwoIYHkujGYdbZtxT1r1rocKYHlKlkY1Aaw0VFWbUkAKSIHiUACXQlwJscSaM2eOrVmzpiA7Dqjq2rWr9enTx7kNtmnTxgBaKlJACkgBKVCYCghgFea8qFdSYCsFBLA8F0VVB9tm3FNW3UcAy1OvWLk1AAAgAElEQVSxVKoJYKUiqxqVAlJAChSVAps2bXLWWJ999pnNmjXLVq1aVRD9B1wRnH3fffd1sa66d+8uq6uCmBl1QgpIASnQtAICWFohUqBIFBDA8pwoASxPodKtJoCVrr5qXQpIASlQLArU1dXZxo0bbdGiRfbWW2/ZvHnznEUWVlq5LFhWVVVVWbdu3ezAAw+0nXbayYGrZs2a5bIbupcUkAJSQApkoYAAVhbi6VIpkEsFBLA81RbA8hQq3WoCWOnqq9algBSQAsWmAJkJV65cacuWLbMZM2bY3LlzbfXq1S5jIZArjQK0wtoKSLX99tvbgAEDbMcdd3TB2ol7JXfBNFRXm1JACkiB9BQQwEpPW7UsBRJVQADLU04BLE+h0q0mgJWuvmpdCkgBKVDMCgCt1q9fb2QtxLXw66+/djALyyz+P66HcUp1dbW1aNHCWrduba1atbJOnTpZv379HLzq0qWLs8BSgPY4yuoaKSAFpEBhKCCAVRjzoF5IgYwKCGBllOjHCgJYnkKlW00AK1191boUkAJSoBQUwPKKD9AKy6wlS5Y4Ky0+a9eutXXr1rkshgAvshvidojVFBZVkWUVwIoPAdiJa8UHN0HgVdu2bV19WVqVwmrRGKSAFJACZgJYWgVSoEgUEMDynCgBLE+h0q0mgJWuvmpdCkgBKVDKCmCBBbwCbPEBXEUAi3HXB1i4AkZWV1hYqUgBKSAFpEDpKiCAVbpzq5GVmAICWJ4TKoDlKVS61QSw0tVXrUsBKSAFpIAUkAJSQApIgXJTQACr3GZc4y1aBQSwPKdOAMtTqHSrCWClq69alwJSQApIASkgBaSAFJAC5aaAAFa5zbjGW7QKCGB5Tp0AlqdQ6VYTwEpXX7UuBaSAFJACUkAKSAEpIAXKTQEBrHKbcY23aBUQwPKcOgEsT6HSrSaAla6+al0KSAEpIAWkgBSQAlJACpSbAgJY5TbjGm/RKiCA5Tl1AlieQqVbTQArXX3VuhSQAlJACkgBKSAFpIAUKDcFBLDKbcY13qJVQADLc+oEsDyFSreaAFa6+qp1KSAFpIAUkAJSQApIASlQbgoIYJXbjGu8RauAAJbn1AlgeQqVbjUBrHT1VetSQApIASkgBaSAFJACUqDcFBDAKrcZ13iLVgEBLM+pE8DyFCrdagJY6eqr1qWAFJACUkAKJKlATU2N1dXVWbNmzZJsVm1JASkgBRJVQAArUTnVmBRITwEBLE9tBbA8hUq3mgBWuvqqdSkgBaSAFJAC2SgArFqwYIEtXLjQFi1aZKtXr7aKigpr3ry5derUyXbZZRfbddddBbSyEVnXSgEpkLgCAliJS6oGpUA6CghgeeoqgOUpVLrVBLDS1Te0dQ4qr7/+uq1cudJqa2tDL3eHmr59+1qfPn2sqqoq+HpdIAXKXQGewcWLF9u7774bLMX2229ve++9twMLKlIgWwX4Dli6dKnNmDHDZs6c6cDV2rVrDQssCvt9ixYtrF27dm7PHzBggO24447a+7MVXtdLASmQiAICWInIqEakQPoKCGB5aiyA5SlUutUEsNLVN7T15cuX2zXXXGNr1qwJvfSn+v3797ejjjrKevbsGbsNXSgFylUBANZHH31k99xzT7AEAIRTTjnFWrduHXytLpAC9RUAXn3xxRf25JNP2tdff+0lTqtWrdz623PPPa26utrrGlWSAlJACqSlgABWWsqqXSmQsAICWJ6CCmB5CpVuNQGsdPUNbX3q1Kk2YcIE27RpU+ilP9Xv0KGDHXHEETZ48GD3hl5FCkgBfwUEsPy1Us10FGANzps3zx566KFga9yWLVva0KFDbdCgQQbQUpECUkAK5EsBAax8Ka/7SoFABQSwPAUTwPIUKt1qAljp6hvS+rp162zixIn29ttvuwC9cQvQap999rFTTz1Vb+HjiqjrylYBAayynfqCGThug88++6x9/PHHsfrUrVs3O/roo933QGVlZaw2dJEUkAJSIFsFBLCyVVDXS4EcKSCA5Sm0AJanUOlWE8BKV9+Q1mfPnm1PPfWUffvttyGXNVi3Y8eO9pvf/MYF+FWRAlLAXwEBLH+tVDN5BYhvdf/999usWbNs48aNsW7AS4zu3bvbBRdcoO+AWArqIikgBZJQQAArCRXVhhTIgQICWJ4iC2B5CpVuNQGsdPX1bX3z5s02efJke+mll7JyH4zuR3r1MWPG2B577KHMVL6ToHpSwMxZPyoGlpZCvhQg0+B9991ny5Yty8oSlxhYfAfstttuSiqQr8nUfaVAmSsggFXmC0DDLx4FBLA850oAy1OodKsJYKWrr2/rHFYef/xxwworicIb+H79+tnpp59ubdu2TaJJtSEFykIBAayymOaCHeSbb75pTz/9dCIvMvbdd1879thjrUuXLgU7XnVMCkiB0lVAAKt051YjKzEFBLA8J1QAy1OodKsJYKWrr2/rxDohYC9xsJIqWGGdd9557g28ihSQAn4KCGD56aRaySuAJe4zzzxjr7/+eiIJOHAlP/vss61Xr17Jd1YtSgEpIAUyKCCApSUiBYpEAQEsz4kSwPIUKt1qAljp6uvTOunSCd7+2muvZeUy0tC9jjrqKBs+fLhPN1RHCkgBuRBqDeRRgfXr19uTTz5p06ZNS6QXzZs3t3HjxtnOO++cSHtqRApIASkQooAAVohaqisF8qiAAJan+AJYnkKlW00AK119fVrn0HLVVVfZ8uXLfaoH1SEb1aWXXmpt2rQJuk6VpUC5KiALrHKd+fyPGwvcCRMm2PTp0xPrzIUXXmh9+/ZNrD01JAWkgBTwVUAAy1cp1ZMCeVZAAMtzAgSwPIVKt5oAVrr6Zmqdw/Knn35qd999t+E+knRp2bKlHX/88XbwwQcn4pKSdP/UnhQoNAUEsAptRsqnP2QdJBPt22+/ncig2f/JRNi7d+9E2lMjUkAKSIEQBQSwQtRSXSmQRwUEsDzFF8DyFCrdagJY6eqbqfVNmza5N+64jHBwTroQzH3HHXe08ePHW4sWLZJuXu1JgZJTQACrtKYUKMQ+G7q/EkMQAJTLgjv5Cy+8YJMmTUrktj179rTTTjvNtttuu0TaUyNSQApIgRAFBLBC1FJdKZBHBQSwPMUXwPIUKt1qAljp6pup9blz5zqAtWTJkkxVY/877oMEc99pp51it6ELpUC5KCCAVVozjTvejBkzDFftkILVUj7iB5LQ4+GHH7a1a9eGdLfBuieccIINGjRILuRZK6kGpIAUiKOAAFYc1XSNFMiDAgJYnqILYHkKlW41Aax09W2qdQ7KBOx97733Es0+uOU9q6qq7OSTT7aDDjrIKisr8zdg3VkKFIECAlhFMEkBXXz55ZddgoxQILTnnns68J/rsnLlSrvrrrts0aJFhkVW3MKLC9wHscLSvh9XRV0nBaRANgoIYGWjnq6VAjlUQADLU2wBLE+h0q0mgJWuvk21vmrVKrvtttvs66+/Tr0T++yzj7MmIK26ihSQAo0rIIBVWquj2AAW6++NN96wV1991fiOiFNwHQfAjRkzxshEqCIFpIAUyIcCAlj5UF33lAIxFBDA8hRNAMtTqHSrCWClq29TrX/44Yf26KOPBlsGxOlxp06d7JRTTrF+/frFuVzXSIGyUUAAq7SmutgAFupv2LDBAaxXXnnFampqgiYEeLX77rvbMcccYzvssEPQtaosBaSAFEhSAQGsJNVUW1IgRQUEsDzFFcDyFCrdagJY6erbWOscSgjWywElNLhwnB5zqBk2bJgdccQRhkuhihSQAg0rIIBVWiujGAEWM4Ar4b333mtfffWVd4Za9vlu3brZiSee6CCWihSQAlIgnwoIYOVTfd1bCgQoIIDlKZYAlqdQ6VYTwEpX38ZaX7Zs2U+Hk5Ae4A7Svn17W716dXBQYjJRXXzxxda6deuQW6quFCgrBQSwSmu6ixVgMQu4EBKEniy1S5cubfJlB98LAwYMsEMPPdQ6d+5swCwVKSAFpEA+FRDAyqf6urcUCFBAAMtTLAEsT6HSrSaAla6+DbW+efNmmzNnjgNYpHcPKb169bLBgwfb22+/bZ9//nnIpVZdXW1jx451boQK6hsknSqXkQICWKU12cUMsJiJjRs3Gi883n//fVuwYIGLmRgFd2cfJ1j7LrvsYvvvv79ts8021qpVq9KaQI1GCkiBolVAAKtop04dLzcFBLA8Z1wAy1OodKsJYKWrb0Ot4xqC6+CUKVOCbs5hhZToI0aMsGeffdYF+g0pXN+/f387/fTTHcxSkQJSYGsFBLBKa1UUO8BiNliTvPjgg/Ut3yFALKyuAFgtWrRwe7qsrkpr7Wo0UqDYFRDAKvYZVP/LRgEBLM+pFsDyFCrdagJY6erbUOtz5861hx56yFasWBF0cw4rp512mrOgmjVrlt1+++1B11OZQ85ll11m2267bfC1ukAKlIMCAlilNculALC2nJEobqKAVWmtVY1GCpSaAgJYpTajGk/JKiCA5Tm1AlieQqVbTQArXX0ban3SpEkugHvkBuLTAw4qxLAaP368tW3b1sGvP/3pT869JLSMHj3aDjrooNDLVF8KlIUCAlilNc2lCLBKa4Y0GikgBUpVAQGsUp1ZjavkFBDA8pxSASxPodKtJoCVrr5btk72wSuvvDJjQN4tr8Ny6qijjrKhQ4e6fwJ+PfLII/bee+8FgTCu3W233WzMmDHO9URFCkiBXyoggFVaK0IAq7TmU6ORAlKgeBQQwCqeuVJPy1wBASzPBSCA5SlUutUEsNLVt37rHIxnz55td955pwGyQkqHDh3swgsvtO7du/902cKFC+2WW26xdevWhTRlHTt2tCFDhtjBBx8cdJ0qS4FyUEAAq7RmWQCrtOZTo5ECUqB4FBDAKp65Uk/LXAEBLM8FIIDlKVS61QSw0tW3futYTRF8ffLkyU2mQ9+yR7gP7rXXXi74esuWLX/657Vr19qtt95qgKyQgjVX37597ZxzzlE2whDhVLcsFBDAKq1pFsAqrfnUaKSAFCgeBQSwimeu1NMyV0AAy3MBCGB5CpVuNQGsdPWt3/qSJUvsvvvus0WLFgXdtKqqysW+2nnnnX8BnLDiIpsh8bSioL6+DXfq1MnGjRv3C4su32tVTwqUsgICWKU1uwJYpTWfGo0UkALFo4AAVvHMlXpa5goIYHkuAAEsT6HSrSaAla6+9VufNm2as8AiDXpI6datm8sc2KpVq60uIxvhhAkTbPny5SFNumyEZ5xxhu29996ywgpSTpVLXQEBrNKaYQGs0ppPjUYKSIHiUUAAq3jmSj0tcwUEsDwXgACWp1DpVhPASlffqPU1a9bYxIkTDYgVkn2Q6w844AA75ZRTDEusLcuyZcuMrIa0G1oGDx5sRx55pBFfS0UKSIEfFRDAKq2VIIBVWvOp0UgBKVA8CghgFc9cqadlroAAlucCEMDyFCrdagJY6eobtT5z5kx76qmn7Lvvvgu6YevWrW306NHWv3//Bq+LDtsPPPCAbdq0Kaht3AhHjhxpe+yxR9B1qiwFSlkBAazSml0BrNKaT41GCkiB4lFAAKt45ko9LXMFBLA8F4AAlqdQ6VYTwEpXX1qPYlW99NJLwdkHd9xxR2d9td122zXaUWJq3X777bZq1aqgwRAc/rjjjnNWWA1ZdwU1pspSoEQUEMAqkYn8n2EIYJXWfGo0UkAKFI8CAljFM1fqaZkrIIDluQAEsDyFSreaAFa6+tL6unXr7M4777TPP/886GZApUMOOcSGDRtmzZs3b/RaLK/uuOMO1z6wLKQAyC644ALD0ktFCkgBuRCW2hoQwCq1GdV4pIAUKBYFBLCKZabUz7JXQADLcwkIYHkKlW41Aax09SXe1eLFi+26664LdvHr2LGjjRgxwvbaa6+MnZwyZYq9+uqrtmLFiox161cAjJ177rnWp08fwyJLpWEFGsryKL1+qVVjmTCLTSdZYJXWLiCAVTzzqX226bkqlT22eFakepqtAgJY2Sqo66VAjhQQwPIUWgDLU6h0qwlgpasv1ldvv/22yz4YWnr16mVjx441YlVlKsTWuv/++23BggWZqv7i3ysrK+3ggw+2k046SW6E/6MMhwTAIx/+vmHDBlu/fr378P+aNWvmPi1atLCWLVs63YA0fNCz2IBNyIKJNIn+RJ/Nmzfbxo0b3Ye/YxGIJnwApOjEn5E2ha6TAFbIiij8ugJYhTVH9feOaJ9lb432EfYPnkH2WPYQ9lgshItl/8hWbcYefQdFf8eyeu3ate67iL9Hltbow/6KPuyx9b+H0EtFCuRbAQGsfM+A7i8FPBUQwPIUSgDLU6h0qwlgpavv119/bffcc09w8HZ+vA8ZMsSOPvpo98M9U+GH7gsvvGDE2Qotbdu2tcsvv9wLlIW2XSz1OTwRQwwQuHTpUmPevv32WyPLI2AmOkjwZ3RI4O8cGtq3b29o2KNHD9t2222tc+fOTkv+H4eLYi7osnr1avfBum/58uX2zTffOF1++OEH9+EwFekSZdiMIF70J4dQ9GjTpo1ts8021q1bN/chAyaHL/5/ocRhE8Aq5hW7dd8FsPI7n+wP7B9k4uXPr776yu0f0X4CmImgVdTT+vss/6+6utrtH+yt7B/8yV7L3sv+0apVq6J+cQDAQx/20++//96WLFnivn9WrlzpPvx7BK3qW2FF30X8yXcR3ztYbvNdtP3221u7du3cfxfS/prf1ai751oBAaxcK677SYGYCghgeQongOUpVLrVBLDS1Re3vueff969XQ4p/Ci/+OKLmwzevmV7X375pV1//fXOSiikAA5OP/1023fffUMuS60u/eeHfOg4gH78YA8pHAyIHQaUmT9/vn3xxRe/AFa+bdUHNkCrHXbYwR0g+Oy8887u8FUsllkckDg0AfFIEMCfHKiAVw0donw1iupFOjBfEczq2bOn06p79+7Bcxh6/0z10wRYERBszBUoU99Y3+hWLCWb8bJOGG99sAkACc22inv11KlTXSzCkNK3b1879dRTQy5psC7jACAAYUIKayQCxCHXcb/IIifkuqTrAmSwCAbELFy40O0hQCusiKIS+hzU30MZI6CGD7Ec2Tv4u88Ln6THGqc9ng32WTQC6qETey1AL/ruC9WHftTfX3l+sORmbyURDH/n+6lYvovi6KprCksBAazCmg/1Rgo0qoAAlufiEMDyFCrdagJY6enLYf/GG280wFLID1F+XPKD/JJLLgmySgHG3HTTTQ46hNwPBQ466CA74YQTnLtGvgs/4LEmC8mqiGZY9Bx77LFeBxisqj777DP3mT17toMzoZAxk070CQuBXXfd1c3ngAEDCt5SAMuITz/91IE8DlNYpIWupUy6NPTvEcziALr77rs76Id2+ShpAizW9GuvveasLEIL6wl33969ewftC6H3SbI+h/PXX389OLkEfcA6j+cZ65qo8DIAEBKyJqnPOg5NcMH647nNtgCuDj30UAe1Q8ABoGfixIlB+yB95Vk68MADbZdddsm267GuB8rwUmDu3Lnuu4+1HgodQ24cgU4A1k477eT2D2BNoVh0bjkW4BT77EcffeTAHhoBZkPWdIg+0Zro2rWr0yfSSIlbQlVU/TgKCGDFUU3XSIE8KCCA5Sm6AJanUOlWE8BKR19+jAJH7r77bmf+H1I48BCTisNqSOGA9v7779sjjzwSDGP4wX/UUUfZwIEDQ26ZSl0O+YA/XPl8C2/dOWxedNFFTVqocJDiMPvEE0840AfICrX08u1TVI8DFodK3DuOO+44d8AKtcYIvWdIfdYNh0ygIVZo6B962A+5X6a6aINW++yzj8vCCVTNpVVFmgALXR988EH7+OOPgw/1rCNg6JgxY/JupZZpDvl3DuXAOqxQ45ShQ4e6Pan+swKgB46k/czG6W9j17B+sXAlGUcIwALkX3vttUH7IH3AlWz06NE5tahlPthDWNdYvGF9xd6a68I+AfDkuwD4CdQqFItFnn2srCZPnmyzZs36KaZirjVifeCCyfPFiwKsA0PWZa77q/sVtwICWMU9f+p9GSkggOU52QJYnkKlW00AKx19+UGPtQAHuFAYQMyK8847z5n9hxYsif7yl7+4w2NI4ZCFC+HIkSPz/mM2DYDFfGDRMG3aNJs+fbo7SCRtcZVJbw5XHBz22GMPF9+MN+D5PDgAaoCrH374ob333nsO6G0ZiybTmNL6d7RiTWJFgjUJB61cQb80ARZ6sQbZF1iDoYXD57hx45wehV6AoU8//bSzMAktzP0FF1zgrEXqPyMCWJmVzCXA4llhzwDIAGb4/gFepWlNlFmBH2NmYXGE5RvgEKiVSwi+ZR/5PsYijXhsaJQPuFe/T2iBeyH7yDHHHONeGORqf/WZP9UpHQUEsEpnLjWSEldAAMtzggWwPIVKt5oAVjr68oP19ttvdy4CoQWrgyOOOMK9GQ0t/DC+6667bM6cOaGXGnGIzjnnnLwHc08aYKEJh+hXXnnFWcXl+3DFgbx///7OuogDej4OVmhC3K8XX3zRrZVCtmjhYDV48GCnF25daeuVNsACGpKVlOykcdbiAQcc4GIz5RN+ZtpcWE9AOlzg4oxx0KBBzqV5yz1QACuT8rmzwOIFAN9vAHDWcq5fCGRWwtxewYug4cOHu++3XLvI8xzgis1zgFt2mq6UPno0VIdnjBACvCjg5Vkh7ytxx6jr8qeAAFb+tNedpUCQAgJYnnIJYHkKlW41Aax09J03b54DSaGBgwmw+jd/8zcuuHWcgzqHxUmTJrm4M7ighBTe3OOetOeee+b1R2ySAAurKyANrpW0G+cwHaKhb10OCVhjASv333//nMZrIZAymmARwN8LRZOmtCOeDQdQDlpYCsZ5NnznJm2ART84zN58882xDv3Ehjr33HNdTKVCLew9jA+rvtCCtcyvfvUrI4j6lvMsgJVZzVxYYGFFhKvgjBkzUo/flHnETddgryWJBtZGgCz23VwUvvtJHsB3cSF99zQ0dvZXsjri4o6bcqG4XeZinnSPdBUQwEpXX7UuBRJTQADLU0oBLE+h0q0mgJW8vvxwxU3tySefDLZs4ZB+4YUXOveyuOWTTz5x1kahrjv80Me1DagCSMtXSQpgkcHr3XfftTfeeCM4EHIuxo7egMoTTzzRdtttt9ShYZRdkAMVuoQCzlxo0tQ9gBkEeeeQ1adPn9RcXnIBsNAeGLN48eJggAigOPzww50OhViwOgHgx4n/x3jYA88+++wGQYMAVuYZTxNg8WwQFP+dd975CV5l7lFh1EAX4Dexn3CfS9PSCCtLLBA/+OCD4Bhm+VKL/RWLYPYW3NzT1CdfY9R9c6+AAFbuNdcdpUAsBQSwPGUTwPIUKt1qAljJ64t1BfGvOMSFFH4wAo8IPptNBiV+PBM4mXgbodY1ZPIj9gzxQ/JVkgBYuGo89dRTLt5QIbq21NcWiIW7FMHd0zo0sA4Iij9hwoSCcKPMZm3hBnTYYYc52JqGpUAuABb3AHIzH6FJHtCO4NQXX3xxQQZzx+rxnnvuca6pofsPljK4SA4bNqzBZ0EAK/OTkxbAIpYjewhzSyKMQnY7bkwl9lcssdhvAaVp7LfEAMPyit8AofEvM89u+jV4eXbyySe7rLlp7K/pj0B3KCQFBLAKaTbUFynQhAICWJ7LQwDLU6h0qwlgJasvBzbigTzzzDMuaHhIIf4E2QeJj5RtIS4J2c5Cg8Xyg/6ss86yvffeO1U3rabGly3AYg7efPNNZ4XGYaLQC7Cyd+/eLlMZwXSTLuiBy899993n4rEUOtDzGT+xsAC9++23X+KHrFwALMaIhSBWSgQ7Dy0cMrFSwt2n0ArB6a+++upY8X4YD5ZlWII0VASwMs92GgCLZ4IXMlGm0lAwmbnXuasBlAEAn3nmmbFd9RvrLcCK7x5eHoUmUsmdApnvhJvyiBEj3EsVQazMeqlG4woIYGl1SIEiUUAAy3OiBLA8hUq3mgBWsvoCB/7617+6dOKhBbN93nx26dIl9NKt6i9btsxuvPFGF+MotADQTjvttJwHvI36mQ3AwnpswYIF9tBDD9nKlStDh563+rhvkA0K942k3TexliAuGpkGi/ngueXkAHyBfsC/JA9ZuQJYHHax1MAKK9SaBdCMKxRZ1rJxN056wUcx+LA+iVMYE89BYzHOBLAyq5o0wGJtYlWMS3wcl9fMPc59DZ6ffv36OVi63XbbJWKJxdpHJ14c8cKg2Avu2rwkIItjGpZqxa6P+u+ngACWn06qJQXyroAAlucUCGB5CpVuNQGs5PSNLF3+8pe/BFv+AC04vOEalUSAag7HjzzyiAteHmpxQ1YirDtwtcjHD9dsABZuZcCaOFYtya2EeC0BIsguRxD9JNYAvfj++++dNSBx0ULXQbxR5PYqDp88Nxyykiq5Alj0F9CMZRzQNbRwwMRKopCssLC+evjhh4Pj7zF2LBEvv/xyBxQaKwJYmVdJkgCL7xHWJnMKCC8lAM4eC/zmGeJZyva7jpdFZB4mu2up6IR7+3nnnedCCmSrT+aVqxqlqIAAVinOqsZUkgoIYHlOqwCWp1DpVhPASk5f4i7hPvj0008HW1QQewprksZcZ0J7yQ/oTz/91FkihboyYM1CGnt+2GcTiyu0z1H9OACLH9e43/FD+/PPPw+CNVzLOPngmsYHFwoOgvw/3DCBP7gjAoQIwM3/43CHzkkeVghOTiZIggxnW6IMjKzJUHfWTPdmjaANVlBk9UJ39EczPmiKZmiFZsTOwXqDeE88J0lpxiF0l112sfPPPz+xoO65BFisI4LqP/fcc5kk3+rf0R94d+SRR+blOW2owy+99JJzocI9MqQwj2QdxH2ZGGcCWOaenWuvvTY4CHiSAItMpQQj589QK8Gm5p+1y5zTV16YsH+QfbK6utrtHTwX7BV8+P7iO4H9hD4kGUjm/uwAACAASURBVFeK+/HCYNSoUVlZMtIn9lniLibRPzSgb+gDXMPlkf2VZ4P/xx7Fno5OgEU+BNcngQz3T2qumKNDDjnEWQan4d4eskeobnEqIIBVnPOmXpehAgJYnpMugOUpVLrVBLCS05dDG6njeQMbWog5Rer4pF2hrr/++ljWSPxQ/sMf/uDSj+e6xAFYcfrIIQG9cdkkC+A+++zj5U7CIQFXEYJUz5o1yx3WOVwlAWU4nESZILOxwuIQg9XVvffem0i/0DfSC7iHVgCHXr16eVuLceDCMu6tt95yf3I4TeKwxxwOHz7cHbSSAK65BFjoSrZQLDfiZIXcYYcdbPz48VkdvuM8Ow1dw3zitkyctdBngXWP+28mq09ZYGWeraQAFuCIdblw4cLMN/WoEb0oAFhhNQg4Yg/xcZnGuok9Y/bs2W7fTRqEjxw50g488MDY37+8NAFC872QTUEj5g9gBTQCzvt+BwOzPvroI5s5c6Z7icN+kgTIok8EvT/iiCOyGZquLVMFBLDKdOI17OJTQADLc84EsDyFSreaAFZy+hJj6PHHHw+2dgFUnHLKKS77VtJm+pMnT3ZvhUMLIGDs2LGJumb59iEXAAt3PQ5RgCtij/H2n3nw1Z+DAR+ssgBFn332mfsAt7Ip3B+rpt/85jfuz7gFWETAZdLdJ2F9xSGTwyaAgVT0/HeIXtE4ABtYYOFqhnsr2mGhle1BC63OOeccA+hkW3INsDiM33bbbQ4UhAI9DrtY7LGGswGe2WrG9QT5JkNdnMQJrC3clpuyvuIeuEV/9dVXQYAMwEyfQtcYfcG6MNvCHBFrCRjhu79wz3xaYBE/kDhmfKeF6taQXuy3O+64o9tzeVmDhSnr1XfNRpau9IW+4dZIohKgVqiFcUP9wwKaeE9k3guZI9rimSU+GPtZHAhNG9yT7yCCpvMhPhcWWL76RGOKLNSweJ0xY4bTB0AeCpS31Ah9yHrKywsVKRCigABWiFqqKwXyqIAAlqf4AlieQqVbTQArGX354Xj//fe7H9WhP/j54XrZZZcZPxKTLosWLXJWERySQwuWQARU5od0LkuaACs6KBx88MHGB3fB0ANLQ1oQtJeA3B988IFz58imAA+BEhym4hYOLIAh3NN4I8/f4x5isAbgUIWFU5JuJFgMcMjimQl1+9xSFzQjfhyH0GzXa64BFmPJxvUOCIvrnY8lS9z1lOk6ICmwFPfp0HWGBd2wYcO84v8BLoDEIfcALJBUIxTkAlzY/7ItQAjievla0kT3yxfA4vsLK8mJEycGa7alVuytfK+xl/EhplIS+y33AWSx5+IqD9QM/d6t31f2D9z32XdDIQ3fV2QTBRTFLWgE2GMPC10njd0Tq2CgOC6gWIbFhWu0zzOKu/JRRx2V2PzF1UrXFZcCAljFNV/qbRkrIIDlOfkCWJ5CpVtNACsZffnxSvZBQEFI4cc8Wf9I6Z2k+2DUBw57BPHmh37IoY/r+UFPVsQkrFpCNEkTYBFjikMph9Mk3M3qjwt9OTC88cYbDsxkU/bbbz878cQTsz7McIjhbTyWFMCskEMeB+8I9HHACrUG8Bk/mrFGp02b5oLvZ2PBBmgDhGQb0D0fAIvDJQCcw3hoYV4uvPDCvAZzZ//D0jPOIR4AhwtoU8HbQzWpX//ll192h/jQAzwubgSwzlfJF8DCKhJL4myzuGJ5xl6LdWCS4Kr+fLCfYWHH/E6fPj2W9V/UHt8HvLQ5+uijg74bgO8ArDiWh3z/8z2LCyMapfEbgJdXWAe/+uqrsZ7PSB+sEbHCSsIqMV/PlO6bewUEsHKvue4oBWIpIIDlKZsAlqdQ6VYTwMpeXw68HJJeeeWV4DfWWIsAiXAfTAMQ4N5AAN677rorKLA5quD2cfzxx6fWt8aUTwNgRW/YGU/Pnj2DDighKwRgRLBygufjJhcKDaN7AQ2jw1/I/RuqyyEPTbFE4UOwX6yfmrKEYO4BQRzosLpKY23W7ytuQARBBrTFtWDjwAz443nK5iCYD4CFFlOmTLEJEybEmm4CuQPvkoayPp1hfWF9BSgPtXJiXQGviD+UyX3Qpy8N1RHA8lcO2IGbJrGUQmB3/TuwrxDn6qCDDrJDDz3UfY+kuX/wvBIjC0tOQFZoAoH6fee7ASssgL2PpRgaAc7QLNT9l/sSvP6MM84IiiXoP5s/12S/xwqLZ5T937evaIBlJ5bKAF3iciVlIRZnHLqm+BQQwCq+OVOPy1QBASzPiRfA8hQq3WoCWNnry5tXgmXzljO0ACrIPkimobQK8ILg8gCV0EKw7pNOOimRrHi+904aYHF44i03ccaw0slFARqSej7UIi/qG4e+/fff31lh+RykfMYUHfRefPFFd0AFNjQE2IA/WF4B0OhHrgp9wfoD+BfXEovnaNy4cVnFD8sXwOLgfdVVV8U6gGO9dNpppzk4m+vCOsJ6jLkLLbhrkUFy++23D73Uu74Alp9UQA1cNAncHsflPLoLSTHYP3CHSxNcbTkqYBIQ64knnsgqLlYEVH32PtY+L65YY6EvKwDuuGXzUiVXOvFy5bHHHsuY2CVyteflBXAZK7pQ10q/Vadapa6AAFapz7DGVzIKCGB5TqUAlqdQ6VYTwMpeX95sErw49M0vPxJHjBjhgmITByutglUQP+qxkgj9kc2bV7IjEoA4VyVJgIXGBMQlNhKH5KRgUCYt0DkK6s/b7ziFgMcEJk96bdAfABsZFLEeIKh6VDhUkW0KywmsKHJdIosGIBtxxUIL8A2A1bt379jWSPkCWDynURwp/h5SsF7CFfnUU0/N2Rqnf2hFoGhcqEKDaWN9ivsg+0u2ccua0koAy28lkT2SGGbsDXFKFO+K7zS+L/JhDch6xH2bmHK4TscpgJrRo0e7741M3xesedwtAWehhbiCxJRir8pVYX8FYj344IPuzy0L1lZAcFzt6RcvfKIEJ7nqo+5TWgoIYJXWfGo0JayAAJbn5ApgeQqVbjUBrOz05U01blm4/via5Ud35A0vMVaIx5T2G1jck4ACoXE66BcptAEauTqQJAmw+EHOoZ4AubnqfzS/xJDhoBD3QLjttts665QkA6dHfeOghysJbntYY6E5hYML8djIEpavwqGQtfruu+86V8fQggUFLrlxAVy+ABb3xX3ylltuCbbc46DNernoootijztUZ+qz5xHs+8033/wFCPVpi1g6xBtirtIsAlh+6jKHuJjFeea4A5lA+Z7A8irXe239EfIdRxxCYj6FgmDa4TsPyyisXzONI5s9Hp1w0c61Sx6aEA+RLJM8v+wdgH+sV3lpQqZZAGSaUNlvRapWKSgggFUKs6gxlIUCAlie0yyA5SlUutUEsLLTl6DFL7zwgs2ZMye4Id7w4j6YC1iA++Cjjz7q4mCEFtyTLrnkksQtgRrrR1IAizfHuD/kMzYQQd1x34xzKGRdXHDBBam6hXGYIVMlIIvDGFr16tUrdIkkXh/rK6xBgGuhJXIXBejEKfkCWPSV+QAITZ48ObjrwFqAOIfQXBXWzJ///Odg6yv6FyWvSPugLICVeTVgmcM8NmSVk/lqc/HLeFGAVRFWnPkuWEPj1k+A9dDCvssLD1znM8XSw0Wc++B6GVp4MUTsunwUYobdcccdzsp14MCB7oO1VdrxyvIxVt0zvwoIYOVXf91dCngrIIDlKZUAlqdQ6VYTwMpOXw7+HLTjBC/G+iA041Hc3vKmlSxhpEcPDc7LG2ksO3gzm8mlIm7/6l+XFMDq27eviwuEZUC+CtZEBNDHzSq0cHjCAotxpFlYD2Q8w5WQw1umQ1uafYnaBiLhlkM8rFD4B8g599xznTVZnJJPgEV/yUSIy29oMHueTeKW4QKKBrkouKAyR6HWp/QV10EOzmkXAaymFeb5BxTHedZombkkYDuxnJJ2d467NqL948knn/zJurSxtug/AA53eRJXDBgwwMV78omBBcC68847DffL0HLcccc5F8JMVl6h7frUZ86Be8Bjsh+yX6RtBe7TL9UpPQUEsEpvTjWiElVAAMtzYgWwPIVKt5oAVnb6/vWvf3UuhKEFUED2IWLA5Kp8/PHH9sADDwTDNvo3ePBgly0sbWsJ7pUEwKKfHJAJPpvPH+Yc7AGcuOeEgkMOVgA4Muvlcwy5Wp9b3gdwdd1119k333wTrN2oUaOcG1Cckm+AhVUT7k+4QYUWrCXHjh3rsqilXYCeQHFcPUML7oO//e1vvSBBaNtb1hfAalpB3OAJ3A5kD42RyB7FdxmgPR8JBJoaGWMhYPm0adMaBKyAIyAVa5GEGXxXALFCSjYWWEA/ABb3V5ECpaqAAFapzqzGVXIKCGB5TqkAlqdQ6VYTwIqvL9Y1ZA2L4gf5tgSMIO4V7mFppY5vqC8cOHFn421x6EGFdN+kF8+Fe1kSAAvoQwyTXMcXaUh3grmTqSo0CySHQ4LP42ZSCFZRvus7yXpTp051LnWhAcI5HBKIOU7JN8Ciz2Q0JTEEz2xoIYg24097zWDNSSyd0GDZ7H/sJbmKSyeA1fQKwuIPN7hQK2JaJc4cVn+84CjEwtpkbPUtpLA2AvTiwkoWYGI/xbVY5LsKy7XZs2cHD59sjVhLkrFRRQqUqgICWKU6sxpXySkggOU5pQJYnkKlW00AK56+WNNEWebqZ3HzaY0f/QQuxqIplwVroEmTJjmYEhrcFtcQfmjjJpJ2yRZgYX2F5RKuIIVguYRlA4dosv6FFoIiEyslF5ZvoX3LRX3c6HDRCYV/xOIBEMcphQCwAHYEc4/jmkQMLKyw4gax99GMPY+D+yeffBIcvJ2kBJdeeqlz08pFEcBqXGXWOhn7+F4IdQOl1T333NOwdszVXIauF9YplowkhYheHPG9ALTik228LgLGY2EbxwoRCzCe1bPOOqtgXC9D9VV9KZBJAQGsTArp36VAgSgggOU5EQJYnkKlW00AK56+uDfdeOON9tVXXwVbMxFcGvfB7bffPt7Ns7gK96QrrrjC1q1bF9QK1kC4Ovzud7+L/bba94bZAiwOJmeffbaL7VEIhfEADeO4hHHYAsbFtRAohPFn0wees4cffjjYTRcLC9ZqnFIIAIt+kyXstddeCwZEWHWyZrBwSitmHW6dd999d7D1FePaZ599XPKKtC3EorkXwGr8KWBvIrnHzJkzgx8V1lYUG7EQXhQ0NgC+67AU7N27t7O4Yi9N6rlgf4oy+oVaNdNfngGyEQ4dOrRsX1IELzxdUFQKCGAV1XSps+WsgACW5+wLYHkKlW41Aax4+uLiwwEuFARxNzLjjRw5MmcHuC1HiEULlhOhhR/+vC3GuiXNkg3A4q02VgG4KOXqgJxJC6z1ABHPPvtspqpb/Ttao3m5AiwsBYF/ZPoMKcTl+ad/+qeQS36qWygAiwxht912my1ZsiRoHMAEMjFigZbGusFSh+DtgI9Qqx2gMnF/iDmUqyKA1bjSJErg2Qq1cAQAYT3Ei4JCCdze1HpiH+G5SBq0sVcA/4iFGWqJHfWX7yyeB6yyAe+F8r2Vq+dT9yltBQSwSnt+NboSUkAAy3MyBbA8hUq3mgBWuL7Zul3g3kP8jaTeAoeOYPLkyc7tIfSNMT/+hwwZ4uIypdn3bAAWrizE/yEuSyEVgriTWS40kDtB/jkkpgEiQvSJ1grAAqsDDoT8nT8ZE/8e/Vl/bUSHRg5lHNRwheTD36mXaR1xD1x1scIKKVgh/fM//3OsDF+FArAYL5CITKehBY0vu+wyw9oz6YLbFNndgFihZdCgQQ5g5SLIfNQ3AazGZwnXOixDQ2Ot8VwTY5BECfnIohe67tKsjxU28eoAznELGgJ3cRfHghgAnzRsi9s3XScFslFAACsb9XStFMihAgJYnmILYHkKlW41AaxwfRctWuQOcKShDi3Ef8G1KZ9vrYmrw8F4wYIFod23nXfe2VkEhWZrCrlRNgCL/hGnCwuUQioc9h955JHgt/S4veQ62H993TjY4i7GIQ0rDWIzATDIXAZcIvAzfwKvIoDF9RGYisAVfxJvBhAHXCI+E4kBcKPt3r27c09t6MBGm1gLYu0YUrjHH//4x1jPWSEBLJ7VW2+91X744YeQ4Tv9AUXA5iQBA9rMmzfP7rjjDgcyQwpzH2UGDbku27oCWA0ryHN7//33G1ZYoS8zsBQ688wzUwGk2c53rq/nOSC7L5ZYoRaJW/YV8MxvBPb9gQMHOossMiWqSIFiVUAAq1hnrpT7XVdndbWbzDZvsrpN661u7fe2aennVrNsodWs/MbqNq62uk1rrXbDOquwCrPqllbVuoNVtGhrle26W/Mefayyw7ZW2baLWVW1WVUzq+DPIi8CWJ4TKIDlKVS61QSwwvXFpQmXMA7yIYVDJYHQyRKWz7erQAmsWp566qnggwtgYNy4cS6LYibrmRBt6tfNBmDxo/+UU06JBS7i9tfnuo8++sgefPDB4Exf6Dx+/PicZKvkEItFFVDqiy++cJm1CEAPrOL/cVALtSBrTBvWP2AFqMGHjFx9+/Z1BzeAFgc56nA/gt/j9hpSaPP3v/+9Cy4duk4LCWChPfsNn1DIgJbDhg1z0Dmpwhp45plnDIvC0IJlycUXX5zzzKACWA3PFO7vt99+u3vGQwtu8CQhEVz5UTleULz66qu2ePHiUCkbrM/eSAZdXhTtsssu7hkGZvH9y8sA9sbQfS2RjqkRKRCogABWoGCqnp4CdbWbzWo2WQ3A6vOptuGzN23D3Oesdv03ZjUbra6uxqy2xqyuzszqfvrR5TbbikrezZqx+VY2s4rKFlbVcQ9rtccJ1nzH/axqxwFW1byNg1k/1i2+IoDlOWcCWJ5CpVtNACtM3+ht68cffxx8oORQjgXCXnvtFXbThGtzEMai5qabbgoGKnQFNwfidaR1eMkGYBEQ96STTiq4H/dYEWHtEJqqPhcAK3L/w8qHfuKy9v333//kJpjw8muwOX4fcDDjGSHuV/14MHPmzHEWPyEFgIWlI2AstBQSwKIvWGGRMAKYFVI4AOOyh0ViUodd3KTIjkh2yJCC9d3gwYPtuOOOyzm8F8BqeKbYZ2+44YbgueQZZU2RITWfL2JC1l/adXk2J06caG+99Vbw74Km+sZzC8xib8RqG8jPp1evXu77N3oRkNTznbZOar/8FBDAKr85L6wR1262mh+W2eavP7GN86fZhi+n2cYFU6yuZrVZ7Sarq9sAlopZKs0qW5hVVFtl6+7WfIeDrcXOBzug1azLjlbZvtuP0KtIigCW50QJYHkKlW41AawwfZcuXeoOcBzwQwtBb0ePHu1cp/JdcAW76667Yr19500wWc569uyZyjDiAix+xHOwwnWq0AruJffdd1/BASyAGgkJ5s6dax988IGLhZOUlVXcOWAeOSQTE2bfffd1mpGRL6SUCsBizByOIxelUCsssq4RQw23pCQK1ldTpkwJdoUlFheWm1jE5boIYDWsON9hV199dbAlMc8lLwn69euX66ks6PuRbAHQvmzZskQhVjRonv0opmAUM4tYcsAsQH3Hjh2dK3a+4yUW9CSpczlXQAAr55Lrhk4BArNu+ME2LXjfNn3xjq378AnbsOQdq6jbnK5AVa2s1c7Drfkuh1nLfkOsqnsfq6huURQgSwDLc2kIYHkKlW41ASx/fXGv4rCPO1NorAsO5VgHEVwcN4B8F/r/+OOPO1fC0LEAF3DT22+//RKz7KivR1yAxY/7UaNGuSDuhVYKDWBxGMLiCvc8rAaw8gmFI7nQGMsdDmahmfhKCWABFIEwr7/+enCwbWKNEbOuT58+WU8XWdauueYaFwstdK1grUPm1XwUAayGVedlzJVXXuksLUMK7mwnn3yyi1+n8rMCPKe4EeLuG2otmY2OWGcBqAFZWOwCsQDFfNgHZSWXjbq6NlsFBLCyVVDXBytQu3aFbfj0FVv7weO2Yf6rVrf2q/9xCwxuKv4FFdVW1Wk3a7nrMdZqj2HWYvchP8bLKuAigOU5OQJYnkKlW00Ay19f3qxiCTJjxgz/i/6nJm9M+XFJHJhCKQSj5xN6gAHGEZcDi4o0Un7HBVhofPrppzurnUIrhQSwmG+srd5//31neRUKMAtN24b6U0oAi/ERW4eDcejeE4FzLBOzfVYjV87Q/QJXpwsvvDA1i81M61EAa2uFgC0k8bjuuusyybfVv++zzz4OYOGiqvJLBQgxQGZHXgqEuosnoSXPO9Cf2FkALKy9sfzmt0eceIBJ9EltlLcCAljlPf85HX3tmuW2+ds5tnLiv9umRe9Y3aZlZmlbXGUaYUULq2ze1VrtPdraDPqVNevV3yqqW2W6Ki//LoDlKbsAlqdQ6VYTwPLXl0DcuPKEZt+K7lBocSpCrSjqK8WP5Isuusi99U16XNkALGKM9e/f339Sc1SzEAAW871ixQp74403bOrUqe6Alc0ayJF0sW5TagCLeQJexclkyWH2sssuc5ZscQt73nPPPeeswEIK1h9HH320HXHEEXlzbRLA2nrGgJBkHyQuX2jBkvjEE0+UZU8jwpHchZcDvOzCEivfe2yU/ZWXZyQ5iWAWe2TS392ha0n1S18BAazSn+OCGGHt2pW2ZsrttmbarVazYo4ZAdsLqVS1sObbHGLtjv0Ha7nbYLPmhZdeVgDLc8EIYHkKlW41ASx/fZ988sngA5x/68VVk4Ppscce6+JNJe2iIID181pIMog7LoMACD6hVjTFtTrNwZJSCOJeX3dcvm6++WYHIUMKh9SxY8e65BFxn1WSPpC19PPPPw+5tZuHSy65xLmb5euwLIC19ZThDvruu+/aY489FjSfzCFAkmD8Ko0rALji9wIu2sSbLITCsx+5G5JFcu+993aB4AFcKlIgLQUEsNJSVu06Beo2rrNNi2fZqon/ZhvmPWtWF5btJtcy1lW2sXYHX26t9hllzXvta1ZZlesuNHo/ASzPqRDA8hQq3WoCWH76knKcgLe4Ear8qABw5cwzz0w8KL0A1s8rLCmA9c033zjrnYULF+Y9SHsunp9SBFi4fT3xxBM2bdq04CDqxMAaM2aMtWvXLlh+YCdWe7hGhVqfEi/p/PPPz2vcPwGsraececTN7emnnw5aD7hpDx8+3A4//PCg68qxMs/N7NmzbfLkyfbll18WlKs2IBL3wt69exsuoSR7UPD3clyl6Y9ZACt9jcv3DjWbbc3U+23djMdsw/xnzWo3FoUWFc27WvV2h1r74/9gzXfa3yoKJDaWAJbn8hHA8hQq3WoCWJn1xQUgch/kzbXKjwrgmnTkkUe64PRJFgGsZAHWd99954IL4zaYb3eWJNdJU22VIsBi7gi2f/fdd9vy5cuDpARc4fYVJz4c2eomTJhguMGGlFatWtnBBx/srHXiWn6F3K+xugJYWyuD+zCWmKHZPbHgIQPhIYccksTUlHwbQGeeWSDWvHnzjO+2QitkCN1tt90cyOLv+bKULDRd1J9kFBDASkZHtbKFAlherXv3IVv50r9Y7aovsMUqLo0qmlt194HW4cT/sBZ9DzOrbJb3/gtgeU6BAJanUOlWE8DKrC9Brjk04g5QLgAgsypmvI0nQOy5555rZCZMqghgJQewiMcyadKkn2JeJTVHTbWDSwrrgYMQwJfnh08un51SBFhozoEYSzqssEIKz+pOO+3k4taFwCTmjMyr9957b3AGROLjATu4bz6LANbW6uPihi4kBggpACyySeKCpuKvwMqVK531K5qTOIXnuJAK87rddtu5LMl8pyf5fV5I41Rfcq+AAFbuNS/tO9bVWc33X9nqSdfY2g/us5r1X1tF0Y64wirb72ZtD73U2h5yjlW0ap/XkQhgecovgOUpVLrVBLAy68sb1Ntuu60g355m7n26NchshBshP3qTKgJYyQAs4BFWFgCsUNevpuaSww0WPW3atHGxjbp16+Y+pHJv2bLlT4cfAFYErXCnIRYMB2esh/hgGbZkyRL3/wBtSWbtKlWAxbxwEL711luDgRIWUeedd57h1udbWDfESXrvvfd8L3H1AGZDhgxxB+IQYBZ0E8/KAlhbC8Uzh1Ume0NIAXSMGDHCDjrooJDLVPd/4DN7HHHkyAKLWyF7YpJ7c7ZCs39jpYllNUkfZI2VraK6XgBLayBRBerW/WCrnvtPWzPtFqvbuCTRtvPTWIVVtOhhnU692VruNdQqqlvkpxtmJoDlKb0AlqdQ6VYTwGpaXw7g06dPt0cffTQ47ky6M1cYrXNQPf74450bYVIHVQGs7AEW6xY4dMsttxhv/5MoWFa1bdvWevbs6QIAY1kDyOKQEx10Mh14IqDFn1gh4J62ePFi+/TTTx2YIdA8h7pM7WQaTykDrLVr17r9iCxyIYVnlcQLZATk7z6FgPHXXntt8BoiODSwjBg7+S4CWFvPACBlypQpNnHixKDpAWDhinrooYcGXafKPyvA3sfLhY8//tjFyJo/f35BgSzmGHdC4DMvJbLdizX35a2AAFZ5z3+io69d872tffteW/Xy/7O6DaUVkLjZNgOs/dH/ZC37D7eK6paJ6ubbmACWp1ICWJ5CpVtNAKtpfbESwc2C+EEqDSuw++6722mnnRYrQHRDLQpgZQ+wSDpA1rhQV7OG5gMwiYXVfvvt54AErmFJwcrofhzqgCW413CwI15MaLa9+n0vZYAF+JszZ47dc889wdYbWEqefPLJLtZNpoLb59tvv+3iX4UU1gaA84wzzigIVyQBrK1nD6ufd955x2XKCynM7bBhw1z2WZXsFeAZA+AvWLDASLSBVRbWqVjI5bMwz2QtBXaz36tIgbgKCGDFVU7X/VKBujr74cWrbPXrV1vtugUlqU5lp32t00n/ai32OtYq8hATSwDLc1kJYHkKlW41Aaym9QVcAbAAWSoNK4C1xQUXXOB+6CbxtlYAK3uARYYxssZh0ZRNYW5xF9p///3dI7WC6gAAIABJREFU23jezqddgG8c5t5///1YGffoXykDLMbHvN55553u4BtS0IWg6gThzmSFxXN41113Bd8DV8Vf//rX1qNHj0T2g5DxNVRXAGtrVbAAwrKYeGqhBfcyMhEmsdeH3rtU60dWWTxzPNtALWJuYkWLBS3/Hn1ypQH7Ay8syF5KwhYVKRBHAQGsOKrpml8qUFtjmxa+b8v+ep7VLP+4dNWpqLbmOxxpXc650yo78pYxt9G9BLA8l5YAlqdQ6VYTwGpcX96O8oaaN9X8XaVhBTjIYNWBhQ6H12yLANbPCu644442fvx4F1vKt7BWcR3kbT6xp+IW3AOxtiBDFbHOclmwMuIg9+677zrrx9Cse6UOsKK9CX1CYujwrA4cONC5gWU6lGK999xzzwXH/sPKizWbCZDlaj0JYG2tNOsHQAKgDC1kliQ4vwJ9hyrnVx9QhYsnrtTAfCAWeznWqd9++63b09kfc5EUgzkGVrJn4D6uIgVCFRDAClVM9bdSYNPXM23ZPedZzVKCcRZWBozkp6vS2ux3qbU7/v9YlYNYuSsCWJ5aC2B5CpVuNQGsxvUFpBAsmbehKk0rQFykU0891QX1zrYIYP2sYByA9cUXX9gdd9zhDj9xCpCDeSQI95577pm4u2BIn7AUIeDxgw8+GHJZyVtgIQbz/Mwzz7jDbUjhIErihb59+zZqRYPuN9xwg5HAIgTec+AdPXq0g9mFUgSwtp4J4Adze/XVVweDENxDeWFBkG+V9BWI4gUCrXCrxuryq6++ch/2eGLi8Wc2LyuaGgUvTwDeyjyZ/lyX4h0EsEpxVnM4ppplC2zV81fY2vdvNKvdmMM75+9WlS27W6uB51uHkf+fVTTzf3udbY8FsDwVFMDyFCrdagJYDevLoY04PLjpcJhTaVoBXMs41PB2PtsigBUfYHHYIbvY888/HwQe6s8ZroIjR460fv365RVe0SeewxkzZghgNfBQoQ0WUmSaDIFMAErcQjmUEpi/oRIXghI3B4sNYqYVShHAangmli1bZldddVVw9k9cxdnrgesquVWgvishlpe4F+JuvXTpUmephZUW/y/EKtNnBMTMu/DCC50VllxHfRRTnUgBASythfgK1NbY6leutR/euMpqfwh7Uxf/poVwZaVVtt7JOp99t7Xok7uMKQJYnnMvgOUpVLrVBLAa1pc3ms8++6xzHww11edQuM0229gOO+yQ7uSl0Do/fufOnRsM7fhRSzD3888/P+teCWDFB1jA1scee8y53sUprN3IHTQX8a4y9REw8+abbwYHmy51F8JIt88//9xB9lBrO1xCf/Ob31jnzp23moIIggLHsPrwLbgM/upXv3LgszEw5ttWkvUEsBpWM26GSdYOLoQDBgxIcprUVhYKRC7XwCzcDD/77DP3Ai4pkMV3Ae7khx9+uABWFvNUjpcKYJXjrCcx5ro62/zdF7bsltNs8/LpSbRYZG1UWqu9xlqHE//Fqrrm5m2RAJbnEhHA8hQq3WoCWA3ri3n+jTfeGPx2mtYAV7hfcZArpsLBFXcE3Cb5IRxaCPh96aWXOniXTRHAig+wOJSSnS40uHd0xwMOOMC5gCWdZTDuegDIkU2RoPQhpVwAFvo8/PDDzs0yBDahJRZYhx566FaB+Xn+7r//fncIDim4nQKwcx0vLVMfBbAaVoi9nlh5fNeFFF5WkIXwmGOOURysEOFyVJfvccAViWfI6PrGG2+43zGhL+K27G7Xrl3tkksuKbjnO0ey6jYxFRDAiilcuV9Wu+Z7Wz/9Efv+qcvMajeUpRxVbXe0Dsf/u7UcdFpOshIKYHkuMwEsT6HSrSaA1bC+kydPdgfn0MKPxH322cdZsRAEu9gK/X/ggQfcgTjELYlxEv/mhBNOcG6E2QAQAaz4AAtXkttvvz1W1kwC8J9xxhku7lWhFA5e9957r3366adBXSoXgAW0AjTdfffdwbB9l112sXPOOccAz1Hh+QdoEEMtJIMlzzv7HnHwCsFyr/5iEcBq+NEBcrBuZs+eHfRsUZk4WCNGjBDMCFYudxewN2CZyd4JxCKWZ+h3ev3e8v3AfkGSBhUp4KuAAJavUqr3CwU2zn7Nlj90idWsDPvxV2oytthltHU6/Uqr6tIr9aEJYHlKLIDlKVS61QSwttaXQ3OUxS1UfQ5yWLBgyVKsZebMmc4CY/369cFD4Mft2Wef/YtDcWgjAljxARYxULAcjDN3hxxyiB155JFGDKxCKQSaJlOashA2PSM333yzc/0NKcSzATjvv//+P11G5rMpU6bYSy+9FNKU9ejRw44//njbY489gq7LRWUBrMZVxt2YLJ+hYAMrO9xFe/fuLZeyXCziLO/x/fffO4hFSAR+38QpWN7xjB922GEFB6njjEfX5EYBAazc6Fxyd1nx0N/ZmqlXmFldyY0tZEAVLXpYx9HXW+t9RphVVIZcGlxXAMtTMgEsT6HSrSaA9Ut9sUAA4OCWs2bNmmDxydhz+eWXF1QQ49BBYHmBBcbChQtDL3UxdUaNGpWV+6QAVjyAxdol+DYAK9RdhMMJb9d32223gnILeuWVV1xQetydQkq5WGBFmgAhnnjiiaCYN8Ssws0ZEBHFrML1lL0vxIWYtTNo0CAHw+pbc4XMV5p1BbAaVxeowfNF7MOQwpzjQoirfKFZ3IWMo5zqsocCpqdPnx7rtw1a8WKOOe/SpUs5SaexZqGAAFYW4pXnpXVWs2SeLb3pZKtZOas8Jag/6ooqa7HLCOtywT1W0fxnc/k0hBHA8lRVAMtTqHSrCWD9Ul9SUd93330OYoW+leZAiAXSeeedV9Q/6omrQ+BsgtiHxtXhMMMb2qFDh8YGIQJY8QAW6xUrnNtuuy140wBgENSbOEaFUliHwDisykKfxXIDWARufvrpp4NdLbG2O+uss1xGOZ51gCGHXPZB38LaOf300ws2qLcAVuMz+eWXXzpXef4MLcQ6vPjii619+/ahl+a8PhapWB7h1p+Ne3ucjvMyIcpknO/kBrycAlrynIe+5GDsuB0T/4wXHSpSwEcBASwflVTnZwVqa2zFE/9sa9660qw27M1lqcpYV93Zup0/4ceMhClaYQlgea4gASxPodKtJoD1S30JfHr99dcHxX+JWsD6asyYMS4bXzGnmuaHLT90r7zyylhvajkMEwOMdOtxigBWPIDFIQnwSsyo0MIhlMNotgH4Q+/bVH1i8zCWOO6Q5QawAHxkJARehsA+DvNHH320+xAT6eqrr7Zly5Z5TyP7HM/5BRdcUJDWVwwkLsDq06ePXXTRRd5aJF0Ri5lrr73WiGsXUoAkuLHvu+++GS9jrUyYMCFWtl0ax+pu8ODBBf3CBjD7wgsvuDESp43EBYAsYjam+T3NfXmmsGacNGmS4bJL3DB+J+SzYFlOnMQ4iT6wvMICq5hDJORT+3K8twBWOc56FmMmePuym0baxq9fL3v3wZ9krGxl7Q77B2s//B/MqppnoW7TlwpgeUorgOUpVLrVBLB+1hdwQ8BTsrhFb0xD1Md6Zdy4cUUZvH3LcTJ+DsOk4g4tBHsdPny4HXjggbEOCAJY8QHWJ598Yn/9619Dp8w6duzoDuvdunULvjaNC4BWzz//vIvHFMdSoNwAFnNAnBtiYQHhQ0rfvn3ttNNOc0GeCeodYn0FADvllFNsv/32K1iIERdg7bTTTi6rar5KLgAWY8P9FIgV5zuvZ8+ezvpu2223zZdMTd6XvQNgc9NNNzmQBLRir8NSmthvABm+r5K0yuL5Ye7mz59v7MezZs1yIKtNmzZ24YUXWvfu3WN9LyYlMNCSfRWLzdC9FRdhANYRRxyRVHfUTokrIIBV4hOc9PA2fjbFvrvrTKtbF5YeN+l+FFp7zXseYp1+dZc12ya9LBoCWJ6zLoDlKVS61QSwftaXH52vv/56cADjqIVjjz3WBcHmR3Kxl+itNfFRQiw6onHz9h8rgDguEwJY8QAW84TVEvHLQgsWCVhgcbjKd2HtYUk2ceJEW7JkSazulCPA4uD80EMPuQyiIa6/WIQAIT788EN3bcihFgDwN3/zN866pFBLXIC13Xbb2e9+97u8DStXAItnDPAZGgcLYdjfyVoKAC3E7z2gHJZXuElu+Uyw52FlR+IBrAgJTJ8NyOJeuPICrtiHceeu/92JtRfWarjXA83yWegjL6hCrVuZYwAW8c9UpICPAgJYPiqpjlOgbtN6WzP5Jlvx3O+tos4/jkE5yFfVtqe1Oezvrd3Rl6U2XAEsT2kFsDyFSreaANbP+mJtxJvokADG0dW8XR0/fryLIZSmW0K6q+GXrfPmmLe0cSACB9rf/va37lAQqocAVjyABXjAjQxrgxAIwd2IXUYMrB122CGXS6zBe+EyRXY0nsfQcUQNliPAYuxYkAKxcAEOKVjeATCwFPEtHPYPP/xwl5ksm4O/7/3i1osLsAAcf/zjH/NmWZYrgAVkee6551xspBDru2g+gBpnnHGG9e/fP3ivjzunvtfxPDz66KO2YsWKBi/hu4m9jyyaWJHx4gXLO+JZ+hYsvIC/7L245XGvxgAy+xKwb8CAAb7Np1IP0AbAwmozpKALMbCOO+64kMtUt4wVEMAq48kPHXrtd/Pth5evsNVTrw29tOTrVzRray37nWGdz7nJrNL/CypEGAEsT7UEsDyFSreaANaP+vKD86233nKBy0MOcdHsENQUK4ZiCGjru6JwRXrmmWfs448/9r3kp3ocaAkOTZazUCssAayf5SaeGGDUN24KmSNvuOGGYHcgDnJko8MaIXS+ghdHExdwgCbA8OTJk4OtA+o3W64AC+iBGyCH6bjwz3c+iZc2bNgw23vvvX0vyUu9uJkseeYuu+wy51YbCuGTGGiuABbrBPfRW265xVavXh3cdbRh3xg5cmSsFxbBN/S8AIj7+OOPOze+TBaJjIF9D6s7AFbv3r2dm2FjVmW0x/cUlkxz5sxxfwKufNww+a0AxOLlTr4K3+3EwQqNrwbswwILKzIVKeCjgACWj0qq4xRY/+FE+2HSn2zjolekSAMKNOs+2LqOu9+qOvdMRR8BLE9ZBbA8hUq3mgDWj/piSs/BD7P/0AKswV2OODAhb25D75OP+q+99pq9+OKLLoNTaCFjEW/myXQWUgSwflYrFGBhLXfrrbcGv1nnjlgFACS6du0aMl2J1cUSBKs/nsNs4Uu5AiwmY8aMGc6CLdQ9KGQiOfBjeTVo0KCCdh9kTGRUZQ8LhTPAC4JuE7C6lAFWNO8PPvigvfvuuyHL4Bd1DzroIGed07lz59htJHUhIBzrYdwH41iVAWp4AYN7ZENzv3z5cpfwAMgYWmgb4HfmmWfmze0SK3MAVqgFFpbmACwsL1WkgI8CAlg+KqmOC9i++sVr7IdX/9NqNyyWIg0oUNV+D+t0xg3WYrd0NmABLM9lJ4DlKVS61QSwzB2Wv/rqK/cGet26dcGCExT2nHPOKQj3q+DOZ7gAlwhcknA5CC1x3SUEsOIDLKwAyNz35Zdfhk6XMV+jRo1yIDbXBcsF3HCIuRbHhXfL/pYzwMKliUD+n332WdYgsLF1gKXp2LFjnbVKPuBOyPoE6BEDKdStkhcTWJCeffbZeXEjzJUFVqQllkRYLIUmAYiux4KJLH/EgsynJXKUjfXJJ590VlKhhfWMS+Ell1zSaGZN7nHXXXe5F16ZrLsauj/7E5l699prr5xn7+T3DjG6SFYTam2ONSIAiwD4KlLARwEBLB+VVMesdrOtePwfbc1b/yU1GlOgeQ/rOOJKa3PgmFQ0EsDylFUAy1OodKsJYJl7Q0vGM9yWQn+M8mMXdwMOOYUcyDjuKsKK4/7773eWMaFWMVijYdUzZkzYXiuAFR9gYSn38MMPu2DccQruLYAJX5fFOPfY8hosr4AtTzzxhDs8h66zxg6IBOAmyHho4f4fffSRO+CFFtY7WfnI1pWvwn5G/7GoiZOAwaffBL/GQgWLjEIvrC20aCwOUlP9B8TgRshLilyXXAMsLNTefvtte+GFF2I/g1gXAbCA4PmCWIC4SZMmOTfaOIUxYEl29NFHN2pRzR7BHgvwi2OFRb/I4HjooYc6rXIJgYFvxDwjYU3oXotVNQCLzKUqUsBHAQEsH5VUx+o2rbPld19k62fdKzUaVaDC2h3779Z+6N+ZVVQmrpMAlqekAlieQqVbTQDL3MHmiiuuiOVyQxwLXCf4sZvLH6HproqfW+cHLm4l/FD3ie+xZb+AemQpCwEJAlg/qxjqQsiVHN44hIbCWK4FOhKMGQiTC4gFICXGGhkHCSKe1DNUzhZYzCO6Eswfy9KkCxnUhg8fbgceeGBi85V0H+u3h+UVceFC4/3QBlZYJ5xwgtvjcx0bLtcAi70elzIsi77++uvYU4JOWOZhYZTLrKbsd4Bb4lji4he37L777m7OM/WdZwzono3bJb8fCD/Ai4NcJEJAI2KCPfDAA8HWV+jJcwDACg0LEHcudF3xKyCAVfxzmJMR1K1fbd/dfIZtXPBsTu5XrDdpe+jfWYcT/8WsumXiQxDA8pRUAMtTqHSrCWCZe5OK21Wcwg91MvIQ8LVUC4eav/zlL8EuOOgRJ46MAFZ2AAtrOVzI4sQt484ACoL0EvsHEJRG4bDMAZDMZ9OnT4/tttRY38odYHFQBQoSwy7UyqKp+QYwcrA/77zzgqB0GmvIt02eg8jdy/ea+vUI7H3IIYc4Sxmsc3JVcg2wGBcWe1gj81zGeWERacO+T5ynE0880cjmmHZsyAiEE7AfUBl3zdNvAqwT+yoTsOQZw9qLvTZuvDmeJ5Ih8BsCd9XGgsYnseboL9aIxIMj6HxoiWAuz0Iun4PQfqp+YSkggFVY81Gwvald+70tufoYq1k2vWD7WAgda7X3edbx1Cussk3ywSYFsDxnuFlH22bcU1a96yGJW8LVbVxhtdP/0TZ/dYuZbfLsUHlWa7bHf1vVHn9bnoO3H90HeRsZ1+Vq8ODBdtJJJ+Xk7Wk+JwnAx9vtUKsefqDzdpkYYb4/zgWwsgNYHDz//Oc/Z3WQw/oqetvO35OyjGJk9I9DJpZirKm4h82mnodyB1how2EVV6E48dAa05Zn+Mgjj3RuYsVS2ONZay+99FLsLvMMABmIWYRrXCZrGe7JXolecZ+dfAAsBMKVkP0+iUyWxEzCHQ8gBBiPq0VjE8deguUmsPbTTz+NZVVUv20yamIR5esaS8xMgBDAL5t9jPsRPwytsFrOtL5CFjL9AuJieTVhwoTYsA236HPPPdd23nnnkNurbpkrIIBV5gvAd/i1q5fZN3860OrWzPO9pCzrtdxttHU883qrardN4uOv+e4LW3LjcKtd8WnibZdUg9WdbJuLnrPqnfZPAWCttJoZ/2w1X11vVrexpGRLdDAV1Va95xVW2e+yRJstpsYIHM0hL457CeMcN26ce3Na6mXmzJkuFlacN824G2CxgSWDTxHAyg5gcXUUyyY0cHX9+eEtO7FOOFhhTZHJIiHT3BIweNGiRc7iiiDCuO5mc+hr6n4CWD+6Eb7//vvOzSlOJraG9N12220djM5XpspMa6yhf2eNAfGuv/76rNYbUIG4RVjbcojHcgbwAKTCcgmYwfPGGif5RRRLKW4sqHwBLDTEQod1k4QLKjqgFxCL2GmsnWxBFkCGPvL9/cUXX2QdO4/+8D1F1txQQEOCE6ywSD6RzX7G+tphhx2cTvvuu6/hXphtAfABrnhBN2/evFhJaugD+jB3xPrMhWt5tuPW9YWjgABW4cxFQfekdvVS++Y/Blrd+vj+6wU9wIQ612KXk6zTr26yqg7bJtTiz83ULF9oS64bZrUrZybedkk12KyzbXPpy1bdsz/fjokOrW7jSqv58D+s5ssrBbCaUraitTXb60qr2u3iRPUvlsb4sUm6eX7cxck+yCH5f//v/10QacPT1nzZsmV23333uYNZaAF8cDAAgvi4HghgZQ+wgEOPPPKIA0XZFg7tWJ4Aajt37uzcCjnQNHUIjQ5y0dt/grNjEcRhk4NUaPar0DEIYP2oGM8rwejjBDBvSHMsRI455pisYWbofGZbH7CEGzTu0NkWgFWvXr0M66KGANbixYvdCxECv3PgB0rEKfkEWIAPYjth2RTnu3HL8UaAiCDgQHFeZgCMcC2M9pEt95P6ewjtYdGGdRjxuYBGWFwBJpNIVIB10cCBA11st1C3abTCCuu9996LlfVwS61YN3xXsucCSXHBzLTfRm1EmgGvAWoASPrF37PRiTWPpTlWudnCxzjPgq4pXgUEsIp37nLa85pV39o3/9bHrOaHnN632G7WvNdQ6zL2dqvs3DPxrtesWmJLrx1qNcs/TLztUmqwonkX2+byKdase9/EAZZt+sE2f3SN1Xzxr2Z1G0pJtmTHUtXdqvf+L6vc9Zxk2y2S1jjM3HLLLbHe3vK2dNCgQTZixAhv17gikaXBbvKDGMsZgrnHKaTdxvUoU2Bc2hbA+lnhOEHco8MeFgqs7ySsbzi04NoCwMJCgEMolhQNHfY4REUHTQAarkgAFA7CoS6ojIXDU2g8HgGsH9cQupGBD0uVbKxDaAvLi7/92791liHFdoiN3AhxJcxWB9/9D41GjhzpYsn5gPst280nwKIvkWZkq4sbT68hrXihgTsh6whrJ0Bgjx49HAyMrHsA3IyfPYOA7IBvIMyaNWvc/2NdZwNktuwXc0Tg9rjZQ/l+JP4Wn6TWF31BE+JsolMETRt69thX+T2zcOFCZwFIbC72XOYtCZ0IA4AVdZx17Pu8qF5pKiCAVZrzmvioalZ9Y9/8ay+zOsX9aUrc6p5HWpez77SqLjsmPge1a763JdcMsZpl7yfedkk12Lyrbfv796yyM28nk7XAsk2rrXbWTbZp7j8KYDW1aKq2t+oB/22VO59ZUkvLZzD8yORwHTcAKz/Czz//fPfDMsl4FT59z0cd9MKK5pprronlRshbZQL6DhgwIGP3BbCyB1i0wOHlmWeesalTpyZyiKFNDk+sfaASH6AWh06AEWuEgyXWLhw+OQBzEOXPOIe6CBJzwH366aczrpv6FQSwflQD3WfMmGGPPvpo1lZvZGfDfbBYD7FY6+AGjTVprgr7HRCL5yS05Btg0V/g0bRp0+zVV19NBITX14C9hD0EKyzWVH0rI9Zt9AHAsIfE3Uea0j0Koj527Fj3ciUbMAtAInYYVk9xQH1j/UQb9lz+BGrxYc9lf0QT9nmgXn2wx74bZ89tqA+ARl7UER9MRQqEKiCAFapYmdaXBZbfxGOB1Xns7VaVggVW3YY19u1VR1jNd+/5daZMa1U072Y9/viJVbbtlrgCdZvXWt3cu23TzN+Z1a1PvP1SabCi2U7WbOCVVrnTqFIZkvc4eGM6ZcoUF/8qTtl+++3t4osvdm+Sy6WgGdm8cAWLUw477DAHsTIBPwGsn9WNa4EVtYA700MPPeTeyid1oIkz93Gu4UBJjDlchu68886gJgSwfpaL5/aqq65yFhpx1wB6Hn/88S4bXzaH/KBJTLgyQOiFF16wt956K1HA0FQ3AVcXXXSRETsstBQCwKLPWPIAQLHqSRLMhOqRRn3cGEeNGuUSjWT6XvK5P/AKl13AXykUoNnJJ5/s3CvL6bdOKcxdoYxBAKtQZqLA+1G7+jv75j/3tbp1Cwu8p/ntXstdR1jHMTdaVYceyXekZrN9d8Mo2/Dl87KEa1TdCqtq39e6/+E9q2jRJvk5qN1odV+9aBunnWZWty759kulxeZ7WPX+11jldkeXyoi8x0EcHoLUcsAPLRzgyMJFPJi004OH9i3N+hxeJk+e7OKixDnI4H52+eWXZ8zwJID18yxmC7CYJyxPALW48hVLIW4QwAQLRywl77jjjqCuC2D9Ui7cwJ599tnYVjRYXxEDB2u4Yi7ETiIT29y5c3MG4ljHhx9+eLDlWqEALOabPRn3uHfeeSfYnbdQ10vv3r1t6NChbo9J6nscQMxvCyzWkog/mE/tAFYk8MC1MtsEHvkch+6dXwUEsPKrf9HcnSyE3/73IVa7ek7R9DkfHW3Z7zTrdMZ1VtkuhR9jtTW2/L7Lbd3H95htViyyBue3osqqtz/Kul36tFVUt0h+CdTVWt3y923ja4eb1a5Jvv1SabHVIKs+8Ear7LpvqYzIaxwc6nkLj3tVaGwdbgCIwS2EQ125FX6UE8ydw1Vo4W0uQY15293UgUEAKzmARUuscbJIEtQ9ThbJ0HnOtj7PF4CYIMa4GBGsWQArO1UB9Q888ICzZgstwMAhQ4bEgjCh90q7Pu5oJO3gWYiz98fpH4HLcb0Mja9USACLcS9ZssQBrDfffDM2CI2jX9LXYGmFW9wpp5xizA17TJKFdUX8QRLEYIkV52VPkv2J0xbf1WRCBLz6xK2Mcw9dUx4KCGCVxzxnPcratStsydXHWM0yua81JWar/udbx1OvsMrWnbLWfKsGamtt1UtX2erX/tPqNixNvv1SaLGimbXa81zrPPZ6s2bNUxlR3eovbeNLh5ptXpRK+6XQaEXbI6z60Dutot1OpTAc7zEQH4LD3EcffeR9Tf2K++23n3tz26VLl1jXF/NFBOe+6aabXEDd0ILlGgHAzzzzzCYzPQlg/axsthZYUUsc3MlGBbSNAx9D5zpufcDm6NGj3eGJv3P4E8CKq+bP12WThAH3N55ZMseVQgEw8BwAY5JIcJBJEyxZAFjAkhD3y0IDWFFGUQLhv/3/t3cnUJZV5b3Av3Nr7K6eu5lsJhmUQQYRBFQCT1A7iANCUMGRGMXkvUX0JboMWXnJyktiNCEOMQ74DIN5ivgkzrZBFAJCBAQVAggoNDSDNE3TY1V13Xvf+i4pJaSRe6vrVtU59Ttr1RL1DHv/vnsPdf619z7XXluKMHxbtcl7ak5lz//spB5PV+cn/v9plW8Azc9ZLkBNFl+WAAAgAElEQVRfpi0DvnwLYt6HJ7J2W5n6qq3dFxBgdd+4EldoDm+MNee9Pkbv6WzB00p0voNODL3ovbHwpD+Lorc7o382//Cf47Evnx2Nzfd10KpZtGutL+a/6JxYcNI5EbXe7nR884Ox9YrXRGPTNd05fwXOWix+efQf808R/Qsr0Jv2upC/WOY0knw7WwYlnW5PfsDu9Piy759+OQUn30g4kdE8OQph/GHuqSwEWL+SmawAK884PhIrX/n+8MMPz7iRATnyKt8Glm+rHB+hJ8CanDtGfm9z8fIPfehDHb1RLuuQ617lNKLJmmY1OT3avrPkveuqq65q/eSb7bq55WiWXEPo1FNP7chwpgVY40a5aPgtt9zSWkNyshcs71YdMqjKkYQZzKxYsaI1Amsy1rz6de3N71yOwFq5cmXceuutE/r3Zbc8nuq88+fPb/3xIP9Al9MGuxXwTXW/XG/6BARY02dfqis3tw7H2gvfEcO3Xliqdk9tY2ux4GV/HfNOeHcURW3yL51vYrr3pljzj6dGY0N51hyZfIinPmNRG4iFJ3005r7ozChqPV25dHNkbYxd9dZoPPqVrpy/9CctBqK29DXRd+xFEUV3ajATjfKB+Iorroh8iJ/IFJL8i2S+TjqDhdm65cNLvhUu30rY6ZYPczktIdeFEWA9vd5kBlh5tRxxktMJc2TAY489NmlvJ3z6njz1Hvmgt2DBgtY0tXx4euJUKwHW9sj+6tise05ryuC+kylN+bazvN/lOkFVe5jN4Oqyyy7r+rpO6ZaBybve9a6OphHO1AArP1X5GcpF3TOcyamFOap5Jm95f8kRcDnyKv95KrcMS3MR/Fx3rdth6fb0a2hoqBVW54+RV9sj6dgnCgiwfB7aE2jUY92l58Sma/66vf1n4V7FwDNi0avPjblHvLZ7va+PxsMfPTFG7/tO965R4jMXA7vE0rd8IQb2fVH3elEfjvoPz4mxe87t3jVKfOai/xnRs8fZ0XPIe0rci86bng8FH/7whyf0Rq78i+14oDCbFzXNv8BfcsklrbVkJrLtvPPOrbfLLVq0aJuHG4H1K5bJDrDyzBkY5RTQDCIzzJ3ISLqJ1H1bx+T6M7lg+8te9rLYc889/8uoCAHW5Ejn6KucNp0hVrtb3u9yyu8b3vCGro9WabdNk71fBi85Oub6669vTVXt1paj1zII3G+//dq+xEwOsMY7sWHDhtYorFzgPT9bE33LZdsoHe6Y0zdzrcoXvvCFkf/ema5/b+c9Ntehy5cp5OdsIn8867Drbe+e9+D8nqdR3ourNNKybQQ7dk1AgNU12uqdeOMVn4qNl78/6pvKNe96qipRW3hQLDvjvOjb68iuXnLdJe+NTf/2ga5eo6wnH3zmybHw1A9E7077dLELzajf+rGo3/aX0ax3/qa5LjZsRpy6GDog+g7+UBTLXzIj2jNVjcjRJxdeeOGERp7kX25f9KIXtd4+OJu3DBVuuumm+MIXvjAhx3yoOPHEE+PII4/c5qgOAdavPl3dCLDGz55BZK7Pkmva5OLeUzmKIsOR/Ct/ThfMaT35OvttTekRYE3OnSaDym9/+9sd1ThHZLz2ta+t/Msqcn24vOfklLgbb7yxNUom/7fJ3k444YTW1Kx2p66VIcBKo/HpqTmt/Oabb25NT56KtcWeqj7j0wVzxFWOJlq+fHlr5Nt0jyBMp1xDMkdi5fpr9957b8tpOkK/tMjgKkO9/FzuuuuukdMHbQQmW0CANdmiFT7fyC3fjg2XfzBG7rmswr2cWNeaEdG387Gxw+98PmoLd57YSdo8ass1F8ba//fmNveeXbvNP+ZPYui/vTN6FnS3Bo1VX476bR+MxvqrZxdwG70tFh0VvUd9IWrzdmtj72rskg/D3/rWt+LKK6+c0C+N+Yvwaaed1vqlb7ZvOf3s3HPPndDonfzl+eCDD249HG/rr735MPmpT32q9SDUyZbnev3rXx8HHXRQJ4dNyb45yuNzn/tcR+sPZcN233331mi1nMrVjS2/E+vWrWu90CBf/b5ly5auPLw/se05jTS/Q/kwv++++/7at4CNB1gXXHBBR93P9W7OPvvsCb1oIR8o80H8s5/9bEfXzJ0POeSQOPnkkyND2pmyZRjzsY99rDVSppOH5fwevepVr2pNf5sNWwa4OYoow4V822qOkulkuuW2jPJelz95b8p1sHLqdLtBQX4Xs26d3gdzlFG+Ye+5z33ulJYtvTKgyftIfn+6FQQ+VafSOcPBfGveEUcc0ep/fg/bDQynCiu/j2mTb3NMp5yK343A9Kn6M/4WxvxD3LOe9ayn/OPBVHm4TrUFBFjVru+k9q6+dlVsvPxvY+O1H5nU81bhZEXfgpi7/+tj0Rv/IaIb6189AWls9S3xi48fH83hh6pAN3l9KPpi6RsujYEDjo+irzsPZeONbT7206jfdm7U7/3k5LW/Emfqj57dfzd6D/9ARG1yXyE9k3nGR5zkdJqJbLnIdE4Bme6/5E6k7ZN9TP7CnVPQcgrJRLZ8iEvLbU3pyAfJ/MU+H+A62bIuz372sycUWnRynYnsm4v55kNxpw/E6ZQjlDL06eaW7co25gN8tjOnGD766KMdB25P1cas87Jly2LHHXdsPVjmyLJ2RkVk4JIBW46c7GQbDwwmGvzlQ2WGjp1uO+ywQ+yzzz5dr1cn7cpRRV/84hc7Gn2VozPe9ra3teo0m6YU5fcgf3K61+rVq1vfh/xe5GioDGfy3rSt6V9plJ/xDE7zJ0evZXiSIwvzM59vcsyf/P/a3fI6GSx3eh/MgCJHH+V1p2MbD2juuuuu1nS59Mt1srIfnQSo7bQ93XMkZ4ZWGYpnIJOhf37vZ/q/p9MpTdIoR2Xl7yX5gpn8PWUyndIh77X5+0uOtMqf/Hdvuo0HrO1Y24fARAQEWBNRm63HjI3ExqvOi3XfeHcUja2zVWGb/e6Zv1vMO+Z9Me/F7+y6S2Pjmlh7wW/HyM8tIv5E7Nrc3WPp278W/bs+JyKK7tZhbHPU7/h0jN3yP3P54u5eq0xnry2M3oM+Ej37nDGrFnAvU4m0lcB0CeTogAxv7rnnntbUwvzv+QCfD1v5wPN0D1fj++SDdE67zRE8+TCdD5f5YN3uCJTp6n+VrptTlL70pS+11nh6uro9sd8Ztpx11lkdLTpeJbfxvmRglVO9MoTJkVAZYo0HMek5ProqA78MrfIng4EMMnONv6l4291Mds/7RgaBGYpniJV/8MjRu7km1BOnGT7dZ/OJYVSGgBlQ5X1k6dKlreAq17lK86xDGbe8x+YIybzvZnieRjkSOT9/46Ozns4o+z1+780/eGSAmsFVhqhplGsM5j24rEZlrKs2RwiwfAo6Ehi985pYc+Hrorl5VUfHVXnnnD44sNsxsfj0C6J3h2d2v6tjI7Hlpi/H2s93cbH47vdi0q8wZ//XxeLTPhLF/B0m/dzbOmHzwati9JoTI+oTGykyJY2c0osUUfTtFf3HXx7Rmj7Y5RBxSvvmYgQITJZAjkTJB858aM8HrBwJNf4Amv9bjhAZf8DKB6Z8qMxRKOMPlvnwng/z+SCf/9tMm8ozWU4z+TwZHuSafxnAtLvlQ3C+EfKlL32pmj0F2niokJ/pmT7Sp926d3u/vFfkfSSDmQy28p9zlGfeUzIUzEArRx/lfSXDmryn5E8GVhmEZzg4fi/JYCbvKflTpRGC2e80SJN0SpccmZX/Pb3yvptO4+Ff9n3cKe+16TF+z02vdEqz6Vq8vtufKeef+QICrJlfoxnVwsbIxnjkk6fE6Kp8C97kL0Y5ozrbbmNqg7HwJe+PeS/+vYie7k7HGG9SY+2qeOgjL47GxrvabWW19+sZioUr3h/zjvvdrk/h/CXkyKMx+p0XRHPz7bncaLV92+ld0Re9y8+Knuf/TUStv50j7EOAAIHWQ+X4FKv85/GfpHniVJR8qB//wTZ9AvkA/IMf/KC1eHs7ozfGW5oPvGeccUZrxIaNQLcEnnw/yes8cYr1eDA4vrbVeFg42wLD8Xtu/ucT77njdRm/9z7ZqVt1c14CnQgIsDrRsm9Eox7rv/HB2PCvfxFR30gkBfqWxY7v+Eb07fG8KQtPGlvWxyP/5/QYvfsbwpOI6Jm/Xyw+7eMxsP9xU/eZbIzF2HV/GPX7Ph3R9F0oakui75CPRuz12iiKnqmrgysRIECAwJQJ5Lo6K1eubE0FbXfLkCCDqzPPPLOj9ZraPb/9CBAgQGD2CAiwZk+tJ6mnzaiveyAe/ocTo772R5N0zhKfpuiN1tS1N346ir72F9Hc/h43Y8N3/j42Xvm30djU/i+R23/dmXeGomdO9O/9iljyxk9Fbc5UvtWoGc31d8XWK18dzeFbZh7MFLeod4fXRe25fx7Fgn2m+MouR4AAAQJTIZBT3L761a+23nTWyeirXC9nxYoVcdhhh01FM12DAAECBCosIMCqcHG72bXHvnRObPz+X8360T+1wd1i8akfi4FDXh5Fl98++OR6jt1/a6z76jkxcsc/z+o69CzaKxa++E9jzgve2M2P/LbP3WxG/d9+P8bum91v5ixq86P30M9EbbcVEX3zpr4OrkiAAAECXRfINXM+/vGPtxYe72Q78MAD45RTTrHQfido9iVAgACBbQoIsHwwJiQwesfVsfYL74z6oz+Z0PFVOWhw39fFot/6YPQs2XXqu9QYiw2X/31suOx90Rwbnvrrz5ArDh7w+lh82kejNm/ptLSosXpljF33tmiO3Tct158JF60tPDp6j/qnKObn2iYWb58JNdEGAgQITKZALvB8ww03xKWXXvrLN5i1c/5cEPq0006LQw891OLt7YDZhwABAgR+rYAAywdkQgK5BtPwj78W6y59RzTHZuf6Pz2Lnx2LfvOvYvDQV0bUpmfNn/q61bH2/NNj5L7vRxFjE6plmQ8qeufH0jd+KQYOePGUrT/2X7y2rInGzz8fW299T0RzS5k5J9b22tzo3e/Porbf2VHUyvmq6Yl13FEECBCYPQIPPfRQnH/++bFmzZq2O50LQC9fvjze/va3x5w5c9o+zo4ECBAgQOCpBARYPhsTFqg/ujoe+cfTY+v9V074HOU9sC+Gjjgr5q/4o+hZuPP0daMxFsM/vDTWXvo/ojny0PS1Yxqu3IhaDO55Uix96wVRG1o0DS0Yv2SuhfXz2HrVadHcfMM0tmMaLl30Rq3/gOh94UVRLDl4GhrgkgQIECDQbYFc7+p73/te/Mu//Ets3bq17cvl6Kvjjz++9ZMLudsIECBAgMD2CgiwtldwNh/fbMSmqz4TG674m6ivu332SBQ9URvaJ5ad+bno2/2509/vxlis/ew7Y8uPPz39bZnCFvQsOSQWv+bvYuDZx07f6Kv/6G+zsTUaP/lg1O/+WDS33j+FCtN7qaJ/l+jZ6w+j58Czp70G0yvh6gQIEKiuwNq1a+PCCy+M+++/v6PF23P01amnnhq77joNyyxUtxx6RoAAgVktIMCa1eXf/s43tjwWG/NteP/6F9Gsz47pU7V5u8WCY8+JoWPfNm1TB59cudGfXx/rv/5nMXL312fFgu5F/+KYf+w5Me+4s6IYGNr+D/JknGHT6hj7yV9HffUnIprt/4V6Mi49Pecoorb7u6PvkD+KGFgyPU1wVQIECBDoqkCOvvrOd77TGoE1MjLS9rVy+uBrXvOa1tpXg4ODbR9nRwIECBAg8OsEBFg+H9stMPbg7bH2s78dow9dG0Wzvt3nm9knqMXco94dC1/yB1FbuNOMaWpzZFOM3Hp5rP3Cb0dztLO3A82YTrTdkCIG9n1FLHz5/46+5c+JKGbIouHNRjR+cU1s/cGbIkZ+1nZvyrljEUX/3tF79Oejtuy5Rl+Vs4haTYAAgacVGB4ejosuuijuuOOOjkZfLV68ON785jfHM57xjMgwy0aAAAECBCZDQIA1GYqz/RyNRozef0us/ewbo77mR9XVqA3EwJ4vjSVvOC9qC3accW9ba45ujvVf/uPYdP0nqjsaruiNnoX7x9LTz4u+Zz5/5oRX45/6nEp496Ux9uOzozn2YGW/C0X/M6P34A9GbY9XRRS9le2njhEgQGA2CzQajVi9enWcd955sWVL+6PsM7A68sgj46STToqBgYHZTKjvBAgQIDDJAgKsSQadtadrNmPLDV+M9Zd9IMbWXF89hqIvBvc4MRac9MfRt8dhM3bEydiDP431X/mTGL7z0mg2RitXh56lB8f8Y94VQy94U8RMXRC2MRZj158TzdUXR6N+T+VqUPTtHj17vzt6nvWWiP6FleufDhEgQIDA4wLr16+Pq666Kr773e92RDJ37tw45ZRT4uCDvdyjIzg7EyBAgMDTCgiwnpbIDu0KNLesjy0//FKsW3lONDdXayHrvme8IBa89H/F4H7HRfT2t0syLfuN3nF1rP/mn8fwvZdVakpn0bcoFqz4QMw98nVRG5w/LbbtXrT52E+j/rOLov7zv4tobGr3sBLs1x89z3xX9O733yOGLMpbgoJpIgECBCYskNMGL7nkknj00UfbPkeOvspF29/ylrfEggUL2j7OjgQIECBAoB0BAVY7SvZpX2DrSGy44hOx4cpzo7n53vIvKF7UojZvz1h2xkXRu9eRUdR62reYrj2bjag/el88cv6bYusDV0c0x6arJZN03SKib1EsOvGDMfeo06PomzNJ5+3maZrRHH4k6je8L+oP/t+I5uZuXmxqzl1bGD07vCZ6j/pwRN/MDhCnBsRVCBAgUF2BXLz94osvjhtuuKGjTs6ZMyeOP/74OPbYYzs6zs4ECBAgQKAdAQFWO0r26UigsenR2HD5P8TmH3wy6lvujfIu3VmLnkUHx8KXvDcGn/uqKPrLEJz8R6kajdhy05dj45WfjJHVl0dR5rfiDewQc571ilh48l9Gz4KZs3D+034pmo1oPnZbjN34p9FYuzKiuf5pD5mxOxTzo2fZq6LnkD+OYtGzZtz6bzPWTcMIECBQQoEMrzZs2BAf/ehHY926dR31YIcddog3velNsfPOO3d0nJ0JECBAgEA7AgKsdpTs07FAc+tIjPzk6/Ho198XjfU/K98ooNpA9D/jyFh40vujf6/nR5Rh5NWTq9RsxtaH7oh1l747Ru++PKLe/gKsHRe8GwcUtYjBHWPhce+NuUecEbUFO3TjKl0/Z3Pzg1G/5dyor/7HiLE1Xb/epF+gZ2n0LH9D9Bz4niiGdhFeTTqwExIgQGBmCYyNjcXXv/71uOaaa6Je7+zt0ieccEJrBFZvrxd8zKyqag0BAgSqISDAqkYdZ2QvmvWxGL7xn2PTjV+M0Tu+Es1GOQKU2uBO0b/rsTH/N98TfbseHEVP34z0batRGWLd+6PYcOWnYvjWL0Zz5OG2DpsJO/XvckzMPfyNj08bHBiaCU2aYBuaESPrYuy2j0Xj3s9Hc/iWCZ5n6g8r5h4cvTv/VhT7/U4Uc0s0+m3qqVyRAAEClRF48MEHW28ezEXcO9ly+uA73/nO1uirXAvLRoAAAQIEJltAgDXZos73nwSaY6Mx9vDdsfE758aWmy+J5lgORW/MSKVm0RsZXs0/5t0xeNCJ0bfzsyMq8gtY/ZFVsfnmb8amK/426hvujpixUwqLiNpQDO57Usw75h0xsM8LZvyi+e1+mJsjj0Rz9bdj7M5PRHPDdRHNGRzo1oaiGDosevf/g6jt+IKIwWXtdtN+BAgQIFBigUaj0Xrr4GWXXRY5EqvdLQOrQw89NE499dTo75/ZL7tpt0/2I0CAAIGZJyDAmnk1qWSLmmMjMfyDS2LDtZ+IsYeuj2Z9ZAb1s2gtDN632wmx6KQ/jb7lB0X0VG/oe6NRj7G7ro31l38oRu9ZGc3RjTNrkf2iN3oW7RNDh5we817y+1H0z6tMgPjLD3uui7Xloajf9BfRePjiaG7NNzt1Nj2ju1+cnij6doza8jOj9znvihhcYspgd8GdnQABAjNK4O67746vfvWrsWrVqo7aNTQ0FGeccUbss88+Rl91JGdnAgQIEOhEQIDViZZ9t0uguXU46o89EBtX/k1sueuyaGy8J6IxzUFW34KoDe0R8w5/U8w97OToWbZnOde7arcy9bFWDTZff0lsvv6iGMv1ycY6myLQ7qXa3q/ojWLO8ujf5YiYf9zvRf9eR5R8yuDT9TynFK6NxkM/iPrtH47Gxp9E1B+c/pGJfbtFbe4B0bvv70Wx89ERA0urFyA+XWn8/wQIEJjFArl4+8qVK+P73/9+bNnS2SjhAw44IF796lfH4sWLZ7GgrhMgQIBAtwUEWN0Wdv7/ItAc3hCjd14Tm370xRi58/LHg6xm+8PUJ4W0NhA9Sw+MwX1XxNBBvxl9ex9d7eBqG2ijP/u32PKjr8SW278RY4/8exTN0UmhbfskRV8Uud7YHsfE3Oe8POYcdnIU/XPbPrz0OzabERvujrFVX4nmQyuj8djVEY2pDxOL3p2jmH9w1HY9JWrLV0Qxb/fS0+oAAQIECHQukGteXXDBBR2Pvsq1r1asWBFHHXVU1Gq1zi/sCAIECBAg0KaAAKtNKLtNskCzGc3RLbH1vp/E1lXXx+YffyVGVl8VRWPzJF/oP5+u6FsSg/u+PPr3fmEMPOvY6F32zCj6cq2G2bjYaDMipxU+eEeM3HlVDP/0ezF85zciWuuUdXEreqJv2fNiziGnxsBeR0ffrs+JYs78iKKnixedwadu1CO2PBCNNddH8xf/GvUHvhbN0Z92ucFFFP17R++eb45YenTUFh8QMWeniHzzo40AAQIEZp1Avm3wtttui4suuqjjNw/uv//+8cpXvjKWLbNe4qz74OgwAQIEplhAgDXF4C73JIFGPZqb18XoA7fG6KobY+u9N8boqmuiMfxINOvDEfUcwj6B0VnNiKgNRNE7J6LWH70L9ozeXQ+PgWc+P/p2OzR6luwWPUO5vo8tBRqb10V9zc8fr8HqW2Lk7iujvv6eaNZHI7IOzYlM9SyiGT1R9M6NotYX0T8vBnb/jejbZf/o3+OI6Ft+YPQs2Nk0tfGP4NhwNDfdG811/x7NNddFY91N0dhwY2tkXLORNcg1yyawZShVzIuiGIzoGYpiwfOitviwKJYcGMWSw6LI4CrrYyNAgACBWSuwefPm+NrXvhbXXXddRwY9PT1xwgknxHHHHRe9vdVbP7QjDDsTIECAQNcFBFhdJ3aBTgVyrayxVTfGlp9eGcO3fSsa6++K5timiMZYNJuNiNZP8/Gf3PJNga2H9CKKWs/jD+O986Nvp+fF3Oe8Ivr3PDx6d9kvwrD29ktRH4ut9/44Rlf9MLbcujLGHroummMbH69Bjhh6cg3yzOlb1KLIWtR6W2FJz8K9Y86zT4yBvZ8ffXscFsXg/PbbMOv3bEZj46qIX1wb9Yevjeaab0XU10Q069FsZKib34F8o2d+D/InRxGOfxd6Hq9F1qF//+hZ9htR7HRsFEv2j2Lu8lkvC4AAAQIE/rPAnXfeGeedd17kWwg72ebNmxdnnXVW7LTTTp0cZl8CBAgQIDAhAQHWhNgc1HWBfDDP0Vn5M7ol6utWR+Oxh6Kx6ZFojGyKfKthbB1uPbbX+gaj6B9qLfxdm7ckepfsHrWhpRH9g611rVqBiqlRnZcs35iXv8g26xFZg41ror72vmhsWhuN4Q3R3Lo5YutoNJv1KHr6ozYwt/XmwNq8xa2RVcWCHaM2uCCKfKNjK9TK6Wmzcapm5/S/OuI/QqqsQX00mqPrIjY/EI3ND0QxtiWa9c1RjOXorLFo9gy0wtuidyhiYEnE4NKozdklmv0LHh8B98vvgRpsT0UcS4AAgaoJjI2NxcUXXxw33XRTR13r7++PnD54+umnW/uqIzk7EyBAgMBEBQRYE5VzHAECBAgQIECAAIESC+SbB1etWtVa++qxxx7rqCf5xsGTTz65FWLZCBAgQIDAVAgIsKZC2TUIECBAgAABAgQIzDCBHH11/vnnR04hzIXcO9mOPvroOOmkkyJHYtkIECBAgMBUCAiwpkLZNQgQIECAAAECBAjMMIH7778/PvOZz3Q8+qpWq8WZZ54Z++67r+mDM6ymmkOAAIEqCwiwqlxdfSNAgAABAgQIECCwDYHR0dG4+uqr45vf/GbkVMJOtr322ive+ta3xuDgYCeH2ZcAAQIECGyXgABru/gcTIAAAQIECBAgQKB8AjfffHN897vfba2B1cnW29vbWvvq8MMPN/qqEzj7EiBAgMB2CwiwtpvQCQgQIECAAAECBAiUS+D222+P2267LYaHhztq+MDAQOT6VzvttFNHx9mZAAECBAhsr4AAa3sFHU+AAAECBAgQIECgZAKNRqPjqYPZxaIofvlTsi5rLgECBAiUXECAVfICaj4BAgQIECBAgAABAgQIECBAoOoCAqyqV1j/CBAgQIAAAQIECBAgQIAAAQIlFxBglbyAmk+AAAECBAgQIECAAAECBAgQqLqAAKvqFdY/AgQIECBAgAABAgQIECBAgEDJBQRYJS+g5hMgQIAAAQIECBAgQIAAAQIEqi4gwKp6hfWPAAECBAgQIECAAAECBAgQIFByAQFWyQuo+QQIECBAgAABAgQIECBAgACBqgsIsKpeYf0jQIAAAQIECBAgQIAAAQIECJRcQIBV8gJqPgECBAgQIECAAAECBAgQIECg6gICrKpXWP8IECBAgAABAgQIECBAgAABAiUXEGCVvICaT4AAAQIECBAgQIAAAQIECBCouoAAq+oV1j8CBAgQIECAAAECBAgQIECAQMkFBFglL6DmEyBAgAABAgQIECBAgAABAgSqLiDAqnqF9Y8AAQIECBAgQIAAAQIECBAgUHIBAVbJC6j5BAgQIECAAAECBAgQIECAAIGqCwiwql5h/SNAgAABAgQIECBAgAABAgQIlFxAgFXyAmo+AQIECAp7cBEAABAKSURBVBAgQIAAAQIECBAgQKDqAgKsqldY/wgQIECAAAECBAgQIECAAAECJRcQYJW8gJpPgAABAgQIECBAgAABAgQIEKi6gACr6hXWPwIECBAgQIAAAQIECBAgQIBAyQUEWCUvoOYTIECAAAECBAgQIECAAAECBKouIMCqeoX1jwABAgQIECBAgAABAgQIECBQcgEBVskLqPkECBAgQIAAAQIECBAgQIAAgaoLCLCqXmH9I0CAAAECBAgQIECAAAECBAiUXECAVfICaj4BAgQIECBAgAABAgQIECBAoOoCAqyqV1j/CBAgQIAAAQIECBAgQIAAAQIlFxBglbyAmk+AAAECBAgQIECAAAECBAgQqLqAAKvqFdY/AgQIECBAgAABAgQIECBAgEDJBQRYJS+g5hMgQIAAAQIECBAgQIAAAQIEqi4gwKp6hfWPAAECBAgQIECAAAECBAgQIFByAQFWyQuo+QQIECBAgAABAgQIECBAgACBqgsIsKpeYf0jQIAAAQIECBAgQIAAAQIECJRcQIBV8gJqPgECBAgQIECAAAECBAgQIECg6gICrKpXWP8IECBAgAABAgQIECBAgAABAiUXEGCVvICaT4AAAQIECBAgQIAAAQIECBCouoAAq+oV1j8CBAgQIECAAAECBAgQIECAQMkFBFglL6DmEyBAgAABAgQIECBAgAABAgSqLiDAqnqF9Y8AAQIECBAgQIAAAQIECBAgUHIBAVbJC6j5BAgQIECAAAECBAgQIECAAIGqCwiwql5h/SNAgAABAgQIECBAgAABAgQIlFxAgFXyAmo+AQIECBAgQIAAAQIECBAgQKDqAgKsqldY/wgQIECAAAECBAgQIECAAAECJRcQYJW8gJpPgAABAgQIECBAgAABAgQIEKi6gACr6hXWPwIECBAgQIAAAQIECBAgQIBAyQUEWCUvoOYTIECAAAECBAgQIECAAAECBKouIMCqeoX1jwABAgQIECBAgAABAgQIECBQcgEBVskLqPkECBAgQIAAAQIECBAgQIAAgaoLCLCqXmH9I0CAAAECBAgQIECAAAECBAiUXECAVfICaj4BAgQIECBAgAABAgQIECBAoOoCAqyqV1j/CBAgQIAAAQIECBAgQIAAAQIlFxBglbyAmk+AAAECBAgQIECAAAECBAgQqLqAAKvqFdY/AgQIECBAgAABAgQIECBAgEDJBQRYJS+g5hMgQIAAAQIECBAgQIAAAQIEqi4gwKp6hfWPAAECBAgQIECAAAECBAgQIFByAQFWyQuo+QQIECBAgAABAgQIECBAgACBqgsIsKpeYf0jQIAAAQIECBAgQIAAAQIECJRcQIBV8gJqPgECBAgQIECAAAECBAgQIECg6gICrKpXWP8IECBAgAABAgQIECBAgAABAiUXEGCVvICaT4AAAQIECBAgQIAAAQIECBCouoAAq+oV1j8CBAgQIECAAAECBAgQIECAQMkFBFglL6DmEyBAgAABAgQIECBAgAABAgSqLiDAqnqF9Y8AAQIECBAgQIAAAQIECBAgUHIBAVbJC6j5BAgQIECAAAECBAgQIECAAIGqCwiwql5h/SNAgAABAgQIECBAgAABAgQIlFxAgFXyAmo+AQIECBAgQIAAAQIECBAgQKDqAgKsqldY/wgQIECAAAECBAgQIECAAAECJRcQYJW8gJpPgAABAgQIECBAgAABAgQIEKi6gACr6hXWPwIECBAgQIAAAQIECBAgQIBAyQUEWCUvoOYTIECAAAECBAgQIECAAAECBKouIMCqeoX1jwABAgQIECBAgAABAgQIECBQcgEBVskLqPkECBAgQIAAAQIECBAgQIAAgaoLCLCqXmH9I0CAAAECBAgQIECAAAECBAiUXECAVfICaj4BAgQIECBAgAABAgQIECBAoOoCAqyqV1j/CBAgQIAAAQIECBAgQIAAAQIlFxBglbyAmk+AAAECBAgQIECAAAECBAgQqLqAAKvqFdY/AgQIECBAgAABAgQIECBAgEDJBQRYJS+g5hMgQIAAAQIECBAgQIAAAQIEqi4gwKp6hfWPAAECBAgQIECAAAECBAgQIFByAQFWyQuo+QQIECBAgAABAgQIECBAgACBqgsIsKpeYf0jQIAAAQIECBAgQIAAAQIECJRcQIBV8gJqPgECBAgQIECAAAECBAgQIECg6gICrKpXWP8IECBAgAABAgQIECBAgAABAiUXEGCVvICaT4AAAQIECBAgQIAAAQIECBCouoAAq+oV1j8CBAgQIECAAAECBAgQIECAQMkFBFglL6DmEyBAgAABAgQIECBAgAABAgSqLiDAqnqF9Y8AAQIECBAgQIAAAQIECBAgUHIBAVbJC6j5BAgQIECAAAECBAgQIECAAIGqCwiwql5h/SNAgAABAgQIECBAgAABAgQIlFxAgFXyAmo+AQIECBAgQIAAAQIECBAgQKDqAgKsqldY/wgQIECAAAECBAgQIECAAAECJRcQYJW8gJpPgAABAgQIECBAgAABAgQIEKi6gACr6hXWPwIECBAgQIAAAQIECBAgQIBAyQUEWCUvoOYTIECAAAECBAgQIECAAAECBKouIMCqeoX1jwABAgQIECBAgAABAgQIECBQcgEBVskLqPkECBAgQIAAAQIECBAgQIAAgaoLCLCqXmH9I0CAAAECBAgQIECAAAECBAiUXECAVfICaj4BAgQIECBAgAABAgQIECBAoOoCAqyqV1j/CBAgQIAAAQIECBAgQIAAAQIlFxBglbyAmk+AAAECBAgQIECAAAECBAgQqLqAAKvqFdY/AgQIECBAgAABAgQIECBAgEDJBQRYJS+g5hMgQIAAAQIECBAgQIAAAQIEqi4gwKp6hfWPAAECBAgQIECAAAECBAgQIFByAQFWyQuo+QQIECBAgAABAgQIECBAgACBqgsIsKpeYf0jQIAAAQIECBAgQIAAAQIECJRcQIBV8gJqPgECBAgQIECAAAECBAgQIECg6gICrKpXWP8IECBAgAABAgQIECBAgAABAiUXEGCVvICaT4AAAQIECBAgQIAAAQIECBCouoAAq+oV1j8CBAgQIECAAAECBAgQIECAQMkFBFglL6DmEyBAgAABAgQIECBAgAABAgSqLiDAqnqF9Y8AAQIECBAgQIAAAQIECBAgUHIBAVbJC6j5BAgQIECAAAECBAgQIECAAIGqCwiwql5h/SNAgAABAgQIECBAgAABAgQIlFxAgFXyAmo+AQIECBAgQIAAAQIECBAgQKDqAgKsqldY/wgQIECAAAECBAgQIECAAAECJRcQYJW8gJpPgAABAgQIECBAgAABAgQIEKi6gACr6hXWPwIECBAgQIAAAQIECBAgQIBAyQUEWCUvoOYTIECAAAECBAgQIECAAAECBKouIMCqeoX1jwABAgQIECBAgAABAgQIECBQcgEBVskLqPkECBAgQIAAAQIECBAgQIAAgaoLCLCqXmH9I0CAAAECBAgQIECAAAECBAiUXECAVfICaj4BAgQIECBAgAABAgQIECBAoOoCAqyqV1j/CBAgQIAAAQIECBAgQIAAAQIlFxBglbyAmk+AAAECBAgQIECAAAECBAgQqLqAAKvqFdY/AgQIECBAgAABAgQIECBAgEDJBQRYJS+g5hMgQIAAAQIECBAgQIAAAQIEqi4gwKp6hfWPAAECBAgQIECAAAECBAgQIFByAQFWyQuo+QQIECBAgAABAgQIECBAgACBqgsIsKpeYf0jQIAAAQIECBAgQIAAAQIECJRcQIBV8gJqPgECBAgQIECAAAECBAgQIECg6gICrKpXWP8IECBAgAABAgQIECBAgAABAiUXEGCVvICaT4AAAQIECBAgQIAAAQIECBCouoAAq+oV1j8CBAgQIECAAAECBAgQIECAQMkFBFglL6DmEyBAgAABAgQIECBAgAABAgSqLiDAqnqF9Y8AAQIECBAgQIAAAQIECBAgUHIBAVbJC6j5BAgQIECAAAECBAgQIECAAIGqCwiwql5h/SNAgAABAgQIECBAgAABAgQIlFxAgFXyAmo+AQIECBAgQIAAAQIECBAgQKDqAgKsqldY/wgQIECAAAECBAgQIECAAAECJRcQYJW8gJpPgAABAgQIECBAgAABAgQIEKi6gACr6hXWPwIECBAgQIAAAQIECBAgQIBAyQUEWCUvoOYTIECAAAECBAgQIECAAAECBKouIMCqeoX1jwABAgQIECBAgAABAgQIECBQcgEBVskLqPkECBAgQIAAAQIECBAgQIAAgaoLCLCqXmH9I0CAAAECBAgQIECAAAECBAiUXECAVfICaj4BAgQIECBAgAABAgQIECBAoOoCAqyqV1j/CBAgQIAAAQIECBAgQIAAAQIlFxBglbyAmk+AAAECBAgQIECAAAECBAgQqLqAAKvqFdY/AgQIECBAgAABAgQIECBAgEDJBQRYJS+g5hMgQIAAAQIECBAgQIAAAQIEqi4gwKp6hfWPAAECBAgQIECAAAECBAgQIFByAQFWyQuo+QQIECBAgAABAgQIECBAgACBqgsIsKpeYf0jQIAAAQIECBAgQIAAAQIECJRcQIBV8gJqPgECBAgQIECAAAECBAgQIECg6gICrKpXWP8IECBAgAABAgQIECBAgAABAiUXEGCVvICaT4AAAQIECBAgQIAAAQIECBCouoAAq+oV1j8CBAgQIECAAAECBAgQIECAQMkFBFglL6DmEyBAgAABAgQIECBAgAABAgSqLiDAqnqF9Y8AAQIECBAgQIAAAQIECBAgUHIBAVbJC6j5BAgQIECAAAECBAgQIECAAIGqCwiwql5h/SNAgAABAgQIECBAgAABAgQIlFxAgFXyAmo+AQIECBAgQIAAAQIECBAgQKDqAgKsqldY/wgQIECAAAECBAgQIECAAAECJRcQYJW8gJpPgAABAgQIECBAgAABAgQIEKi6gACr6hXWPwIECBAgQIAAAQIECBAgQIBAyQUEWCUvoOYTIECAAAECBAgQIECAAAECBKouIMCqeoX1jwABAgQIECBAgAABAgQIECBQcgEBVskLqPkECBAgQIAAAQIECBAgQIAAgaoLCLCqXmH9I0CAAAECBAgQIECAAAECBAiUXECAVfICaj4BAgQIECBAgAABAgQIECBAoOoCAqyqV1j/CBAgQIAAAQIECBAgQIAAAQIlFxBglbyAmk+AAAECBAgQIECAAAECBAgQqLqAAKvqFdY/AgQIECBAgAABAgQIECBAgEDJBQRYJS+g5hMgQIAAAQIECBAgQIAAAQIEqi4gwKp6hfWPAAECBAgQIECAAAECBAgQIFByAQFWyQuo+QQIECBAgAABAgQIECBAgACBqgsIsKpeYf0jQIAAAQIECBAgQIAAAQIECJRcQIBV8gJqPgECBAgQIECAAAECBAgQIECg6gICrKpXWP8IECBAgAABAgQIECBAgAABAiUX+P81gNTFV/QEmgAAAABJRU5ErkJggg==;" vertex="1" parent="1">
          <mxGeometry x="460" y="276.25" width="120" height="67.5" as="geometry" />
        </mxCell>
        <mxCell id="GsARXMGo50Wr0_jEXAOD-12" value="" style="shape=image;verticalLabelPosition=bottom;labelBackgroundColor=default;verticalAlign=top;aspect=fixed;imageAspect=0;image=data:image/png,iVBORw0KGgoAAAANSUhEUgAAAS4AAACnCAMAAACYVkHVAAAAolBMVEX///8A2P////4J2f8A1v8A0/sA0/kA1foA1P0A1Pj9///k/v30///5//8I2v4A0vnu//9N3vmI5vdY4Pbh//7Y+/3K9frq/v5u4/d+5fnF9fum6/ir8PqV6/m08PrQ+fzj9/sn2Pad7fl+5/c33fq/9vzG9/pl4vdW3/li4fWo8fkoz+9E2PeR6Pq69/x03vF06vqH4PNP0u7S8fWA7vux6PObefI6AAAVHElEQVR4nO1dDYOaSNKmm6YREBBnEGRAA+pgsib77uX2//+1q6puEAGdMXfvJBt5spmMiNj9UF3fzRrGhAkTJkyYMGHChAkTJkyYMGHChAkTJkyYMGHChAkTJkyYMGHChAkTJkyYMGHChAkfCQ5/9H+3z+PD3x4PvOWJd36/ch5vaX1YxrjhZrvPUVQvD8kbNCSb9bE8lXWVPC5dxqq0GEHK48G9dhY3slpKoc508o8c4C8EbuQhM03GTOLBKvP5UHBckMBDpEnFM00rdTm/Su1vCqDByC1miqAlgs3KL+7lmkRWDnvJWECUkoCZs/XPGvTPA6jvZ4kkyWNaR45gAb6w9vGFoeTGPLUUm7PyuCtSR+BZ2SOqrxpZiDwiJUsdfGUyWfjdcw6lMEGmhKyzOb72dxYs3+jnDPgnghvPoLhYOW8OLCqHVqXYx9oX40gOkGgKZ+m1H0xBvqzN44lXhQbxtXNgXoTKSh6IK9dITgKXqPU56Zzl4UnHjx7sz8cR9Py+8xoEJo5mzAxYWJApiEu0BMLJ4L2OJayBQWfx4cP9ueBzWHuiOr9GgrjxhdQ/+grGN1qcs7rPzMFCZf+xo/3p4LEF1m51qYNQwEpU+OLog0+Gmv+LPn4+ZeEAoZXxYNgIwZxkqLLnR4F8kbPFcCH2PFJu7EEs0w8a5S+DAlhx/DELt7a0ry9Oz8jWBV/wgRTeejhdv4NJ/zE8zDk3qlC5+ZEKivp0LdFde7QoKAVGTmNvAF87Ac6WGSRjbysPpHxAutgIXegyHGx08ANRDxQX4QXc/NIfeeN3BmqgEbpcg29DU2AwbYrdaG7rBfz6h6NrB4SM6C6DJw7qrdLGXM2ov1CJB1yMS6BjjK45+gmsXBQWxj8HY5hl/Ypa79HoeoFJO5f5QLSKxhFTNCU4ZCn6X443SOJz1HoPl5PYABvhMPFeoNaSWwyKyF8t/YHj/wRn1B830F8DMSw2KzZ64nVAlyvMKX8zLzGfcxwwiocfLqGahCwQm+YVVz88iQpeJSSAUYkxdnVZL8PY3BTviRmHVpXqc+4/slbpg5CIguak8s2gvP3IDGih6Ql9mwUskJ6aplZiPA5NU25uXFmBG59WCtmqRbzoVjf/QeDGsauC1AzWqLiCbzDD1wwnua0xh6Myru0cNyBzdvyOL1irUpvAP/irEMJ29rvtP5OuJRYNtT/ge1m+TCMJYTWsNEsICXMTM4GpZ1D36To/fGryXuiwOfOrFz5jjR/uA6iO3ub61wLd3gOaRs/wsiqNHGmhEDBhBm0ZjUpDSB+JiAjlqS4yzzdOGGGr1XkbaypLdhHQS6zsfrT+cn3Af/WdHspSdAI5onwNUiVIukx2hmnSnFvSpINrWCyVj3YbSrpYF8QXGJPdR3u5tVOWf4xk994DF8XL+8JMfftRrijBZUKwKKzwDFiWLX/wZqBruCz13v4WRdf+pYNdJJW4gY35WESMltIPIskjKSgHSFSYQoY2UiGXm0MWPzeIV4dDjrlmMwgtvUpN4jaMije/fI2176fLY89rieJlyucfHfoPgUdwjzBCue9TtIb8zZH6Q9TUhSyjP1+yT/8nruSUNzO0jqvV339FpbRwQRHLQh7zReOHjAKlq08XN1YOydcHp2MjvEV3Shf5V/OilK1mguDv8Ey5mK0q0o70lGC1G7WVQQZ0pxtQ0CYIZ5kY4zkxxBhd6LeBmxuYMv5QfwKkK7ibLiCrKoVuDQlL7BMpKSPIfbR31mZEf3O+wIyO9JRyB1kz7VIKtY6FU8yvWrkrdBkF6cvlh/bVgXTdT5excbSNC/d/fTcqsISh6iEpUOIGU1Mf4hurKVy7WMxle997iULlhM6c6pqBHqfLMOY2vvGx2f676UJjeFT6Wjhr9BQ5RohoozimBMVZ/TbhDlX+1ZcxZuV4AL0PEAy8WOFIWs+ijI1RSblGl3FE5dUs/DYm8pNtlsULd/RaKk5beCt1CjdUFbl3CsBN4izbJv75CFczMAMn6Zz3Nl5Vz4h0ioX+DJrXvY5XgtmIcdfhMCk2So4VIJBypd6c56VUXTvV6Biu0vUXrkY9eGUsuJ+tSylRWE/LeDArOicuwJu24Qyn3K0GZKmrrOAqNhO2XabfdODhb142eb6HcdoV/JLnn95mCr+xonq+cF7mbQMzFinCLUbNwFubfudGXKT/qpcHvx3SGrvmIB53kfFznt7/+0RuxSwdS91fpesr0mU3SwMnDsSDLjaVJyhPh54+5NzdnCTFBeocOqUvXW5e2m0UAROtaGnMHeU00mcxssuv2qaLwc9wKPZ63vmWBKUmNSjaPve4xcrPEFbZ5B0oacNAHjJLLV81S1wSFfWFieMIX1fo4kq67Ea6XCM5KmcMZxVgpDTw+r2jDPA9mrQJ/lwgMePWPYs/Nz6wOg9ilCghus7xKv14s7cWeags9Jec18t3nihczkKVTnbp3IPTxizWTgU7Ls8tE52JNS7my/JjHBG3I+nVq3RhD49pL9rb45BfIp0yAs9OUs3u2HFpuJE5ZEzhFMeWtgrNLgMDbmz1Ocx2HLxIAMJUevpON9EcjjR/U33BxVBFz46XM3U5ugWiOul8M6a00Aw2cV7AxM5QqUL3BF8nX214K+1lYN2lRDFfDxyKK44E98nx2ruG0o0x3P4gsNMVKhs32RxtnNnRby7n8oONAmM/vXxPFovke1GSmDirAVuB6dRwUuKtvp5wwqxcGP7nY318QoFjT/UTIHu7D3mOfTXos/eWu4+SFNgYBRpKo3mSnaNiAa4Ypj9R5mYkAuCcrQb3pkKDa237h8fpgnuE956tuRLmBCfPyq3RNsVucPlgFK9jBn6A+2EfYzVCOOYX2PFpnpvTuOE5SIg8eoa+ivsFOGZlol+jUWuMy1tsceofAU+nX9MxjKWKHFmTMkUbKToJCdTrar/GnjI66kDvIkbROmZv08UXJWZynMxQLkNNorZos7WGkjdTduhP0fg2POB5ha0CgxZHlC2b1icsEnS8jW0Ji5FrX0jFjJ0h34JfKk3dPw/uraRQSMU4hrIjFzkXFC96Z2upM0dzCTVwGfazfpd0cTVVI9mTGlFeKjjOuJIdr+Mjwd8MF31bYoe44o+XXpNZhBFJa3OM3G7SHJ2zVk+L9podN/VNv4uD38RENer9pUSCllOXZzPWQ9q4RjWlCp3FyPdxKoL0iUS6go7MEWHfSpSmINyqI+7epMz/QO2xQHY6FPvJW56jpP/ZXrYk1XR5lYu1dFfMiFGMPdZPw4lJU9fBQHJz0acragZBlDDU6COLH0JOs28cMZtqPiXJp0/6vzgrUAMDW2RCEFv0pqKBPqHGg+stdzBsXK9Pzai36Gb06wcX+d576OIbwZgzzDZw1zVcNALWa3PlLwO6yvbbQXsFVjZWyeEYZAyUF9HF7A6UYwXLpnb1TJfoNRyG8UyKQcu8c6CH2FI0G8Q0dpyZfXYvPnNXzHgAwZCX+zGaa1J8o/Nc8G7OurrL7EgXX8lg3L/CIZfauHbRL20EyhcFOSiaheKiWYT13ZdXnoEJUguWLCbdzUW83XpzlbRDA65zZvDZEi4tV/1rdGd7l3TFIQXGRj+2cGlXgdJdKqrezrrZdbNdpwYZHzhEGYw+WWgHTPYypCugZCI7+9QYWJxWzUC4Byo6iMiY0esWHlqAjWYL4UHE6Ni2Ux4rtAv4QU0X2Ctcmc78lhK/S7rcPU10xDJiUoIFgpxMHPOFZcRfIDZSn8pCVRlaj40KUxZhP7e7PrvSLWdltNy657pIJoHRejHEs6NSYopEY760hQ5t4N6mHijSdjGCCbTBx7nd5HIPXZxiGMyVDhyvpdDhBc4VHaGiq7yE2v5Dnyq12I3oQHTWRjQzWUYqbVRVlR8pUHzVuRh9jQ0eDKRWbbL5B8QIeUmbUcYl7nnDYVIIxJzcQzqP6l10RliQ3qyO35fvQvEydRzcvSg6ZOSrs5QrN5X6SJqih8laZ3EzMwXb45GL/UD0+9KCycjn/mgv/S5aMdTQ07lpOdPx8BhUjZ2jY0uyKZ+KQ3Yoasc25b/t9tocr2KyP286VHc5EhgkoLCckt5hLFuICs0aaEo1DXCpVR4FxUy3D3Ll6Mq4Kcl2L+KnM3AOZtVAX/e8+txCAVlfqGByny794g4aOlKq2tWN1pznJVXzzAu6RpXEma47s6kHi1T6RZpIpZLl/DUMOg1uXimYDvplm+yoJLn+XwV4793QFmMN7J+jNtabITanLwMD1j1vI7AUubwC/e3kVclCJYxIoP2d7FaTNihq6c3K+N2ljYoyDXLdzYwkIWUYMI9jUl8lyf586WALwMypvWYECxROMPiYR7xQUj7uUjPNWTrijvVjRlDP4KHu3c6JmXyzhqYDD2wz0+KLhmLXvfbWVnss/2d04YU2NqVknI1vNFfGbKq15ZhNvYid51n+tTokzSep8VJFi1SvSxpHwH8paS1Zu+FXjsSMhTDP9o7gSVN1UY/OVB0EPRCY9la/1DcwxrSYXhA8wZRP+b9zJNR3b0sqA83KvCEsaprF0UCK7jza/ACNb2UpLU15HFOoRcLnX1QRDu7A6Eh70uVyF8k2w3MGiLvoYBIV1x8zkGD2od+Y7oWBFkv0eCnwvLkJ7t7FiIm4hCpBARBWUawOTlegKkGqlBhf3OV2AhTimLMN1SMdslhAZlKg0oJxWpE33o7To4trLcT2/vkQLaqdcSsJhbGqGfWuj3QFjarHUMpkg2xeF5HJ7qJLRUAbh7ZWs5mTbhYcG+SlqnpVM6aWfyeR0oiXkeOAj+rwcoZKbPEShaoNRZS5248WNPqLkeu4qJO64CubikI3+nl4jF1UfSe0sxg5vTKDmy16P1TFxg3EtrbSlqzRxTqpqbqqlKhjkc5f+LGQOluGEoAle1ZKobw14RT+1Xs6SA9yPqdMixO31waH0MRcxvmRMfQvyZoWOKWZ/LN2wB+xbZ5jehXhYwqNd84B78doL4rrw/GMWwI4jmTtdB33J0/V0UDkhdozzJuRch3L1azpMHLnqwL3C6lIEGS0uLXJeCybekBTiMuxmVeOB2zaZOo2ko239ZwP9JV+a+lykRUvvDCp3yyVHjyfBAPPTotWJZJ0PRutNLwXQMCiKmklEWsidKI/i7+/zzENLT63p50/Af48BFDfv78s6xKbDLEkhZ8Oo/z2juwhXbxxORurwg1S/8zZGG3YTatrLw/tINZaMxkd+VoHF3S5R7yH9teueGUOVoL0SwzB7IyS0mMZqFt8oZFcO5YSES0nEKehJpK7b5vDKvYShBevDptN5VCfHBAl2rgbVF75NVaplXvoMqjIggm2rZYkkBNKr9ppW0eDoGdn09LRF8f40LSXZ70KgQQJacdhgzgJtUPUJvjnS9RubVa7VmPB1fLpLvnSSsnP0jaQDsymLQ6c09nMQoTwBzDD7kFmtjzpJ+Ycz9rnBl3miHQZ+czUDSX6s1uHVrdTxGQx53ArKUI8+zVr9NdE2siye1Ax5IXVVWVG0z7m8WKeZMtSUAJEf4bSkKa9Sxar+gd3f6EbAdY1FOeYum0nVJXMQOUBGjJRCmHpBtrHfgOcXynL0upjxdkYqqKryewyOh33Nm2mNMOilSY+39M4nPQl22Yv63JmhhhimxdOyqtaBYGQ0pGqns3K50Z5rahOzmxbUnT8A3RheC29+epljbVjtdRMTUzT/6zq8OiKWjCKz8sNSABmeu33NoqP0EVrC1OlDRtGUiuKmhQiThQDU21wYKlFOrcoJbHpZBQOdMsm6FUiheyc4ZBPi7Mqe6JcJR3/sW33ayCl1Esi2W6qdb2Hm4KPbJG0HGczGdr0aKUyXb8c4sZq4t4r+/ubl+fwBUDzSNG/ohrJOWgBi7gppck0XaDZypdOGYd8YOw/o/Q1pQcX1ARz6YyhV1nKc/ZHOpXRUeuLkzBVB0Y4vqn1LURM9Ilektf/bfWqEf+bduu1okR6z8Oc/dubXGCRFVVRjJzoV1UFb33qPNEQVstyb0sUYWe/zEb6UzD5DEtJOk/FM1qDouheWytkN1uXsBLhMmWdzw3ePiMQlXUBa8gOnTr7kaZ+DGfYYCcUtpgw7b+jzy0pNrq8OjYtXcSXd+KqpvWTeBVjI9uV6czj1ffmbaX5+ufh67m3+k5NdcMvhut/8m+N4DrI0Zv1HsTF6QkkqgjocrXNeFb0zsHE/Dseu6GnM5g51wUMcDf7F9afuHbvz44E777uXaMTGwy++M1BX8fKYgPBAfsC7nEQVmo+EWNjPaQpe/cjlkbuI32jC+gf59dnSh8h/inOcTvFkf73NSWlka/W7/yQH8FzipUHQ65mqGspGZJi372z6I0LO5ff9WCEN4c1uPCd/va1Y/8vPcLFladBtFuwKwusMu6n7a8ZbAwo3+NJ/E7YgWEc2+nvR2rvOnWHz5Qx7sLFtP/jPcDrylNKXCxTwSIMsCvWXrcF5hacHuD1cHQd+35ei9hp2jiPSsN2+eJUz246nB4Hx2HJEIHa9lXFJCwaS/25YD0fT7p4Pb4YiaAKc1/MfubuGJ+PqLvoWSN/DF09fK2Ce8b2Y+bvQS0jeU9uXy/hy1zqjATu9hnxbr6C6dw/2jNwqKNw4KZyirNN1T1uYpPA0B/8PNIp+LsDG99YkwNu4OKTGmfUH+59oyfqWYPdURw7BcWjPdQFK7H9jATI1oqq+OKU4GYXdCdk3YuC+FaqnSIPhifcyHl+SVnLP6lENKupqveMmxyZqtI0ETBXj5X78U3z/1BwfMibab3qgihlRTaqAmkVOnhfRDN6jP1TW8/kqq1t1AP5zUG7f9AhUEbO36gnywrqATNop4hLfYFM2Gu9IZZTCI47Zx/MMgIZ2LsuTtRZ4K+WjnqMv5UmOpVC0WLmUPOqCI8bejgSPu0fhGvEff3NoRswWRil9ZNj6QYR59DmQRX8XagKa1a4r9dPErfNWq83rvvbgnbwtyVEahBZjsQ22d5i+rEvmrjR5rffG2ToNlTCMilCbB6iMTjPcLOj1GVHPNFa97MUDwGc8PYkBW0ukGGUn7e0d+CSp79NHf3/CVIbtMdS4b85FDOrZR1F9Tr3ejrr4jyO7apFHe2P680oqY+De+b+eAbxCt7RIfIRw/jlQc/lfF/Bij+ihv+vMLE1YcKECRMmTJgwYcKECRMmTJgwYcKECRMmTJgwYcKECRMmTJgwYcKECRMmTPg98B9O9RDtaPK4wwAAAABJRU5ErkJggg==;" vertex="1" parent="1">
          <mxGeometry x="140" y="312.5" width="73.12" height="40.43" as="geometry" />
        </mxCell>
        <mxCell id="GsARXMGo50Wr0_jEXAOD-13" value="" style="shape=image;verticalLabelPosition=bottom;labelBackgroundColor=default;verticalAlign=top;aspect=fixed;imageAspect=0;image=data:image/png,iVBORw0KGgoAAAANSUhEUgAAAOEAAADhCAMAAAAJbSJIAAAAdVBMVEUxeMb///8qdcV4otcndsVmlNATbcLo7vcgccRpltEbcMPV4fFQh8ywxeUlc8Rdkc89gMn3+v3C1e2mv+K5zumgu+GRs97M2+/x9vuFqtqzyudGhMtvm9R/ptjq8flRiMzS4PGNsNzf6PVXjc4AacHF1+2jveL7AhVnAAAGwElEQVR4nO2d7XKjIBRAkaBRqqhRkxiNbbTN+z/iarpJm1QMBsSPuWdmf+zMRj0LAl4ugIx7wl2UB2iuBHm0Cx+M0N3f4pxSG4/9nBJgm9I85hp6GZ2z3RVMM6/VcO1SMvbDKYJQd/3X0FtE+V3B1Hs03FpjP5RirO29YUrHfiLlWOlvw+3yBG+leDGMl1ZFv7Hiq+Gajf0sA8GK/4b+Yg39b8PDEl/Cb2h8McyW0tH/hWSNYbzcIrwUIjLyJY1lHsG5gcJl9hRXrBBtllxJ62q6QclSu4pvWIL85bakDcRE8w1ZiLF0PwAAAAAAAAAAAAAAAAAAAAAAAAAAAAAAAAAAAAAAAAAAAAAAAAAAAAAAAAAAAAAAAAAAAAAAgClAGGYNmOGasZ9GKdim1icLqvyYnran9LjKTT9jlkUpG2YzNqyU7nsRZpMgT+K3x53Im41Xd5soDzBlysvTMVXy3qXHqtOu+Ov2m2K39bHSnazJe/cd+3KwOTfCVpaUYtco4pyp21qPuGoNvXZDZpkffS4TvitT1GKI2Uqw+G74yiqqDkNavfW+zpwMMT68cJ0ZGbKgbwWdmaGdv3ad2RjaqxevMxfDV0twNobs9eHEPAxJsH/5OvMwtHevX2cWhuwocZ1ZGJKWTyRh5mBonwX+ecj7X5iDIesuwvAjSh03y9z3Kk/Pu8eBj0JDxd+HN0N26tKLHUZthgnGhBDMGK2/jpPNr/8TlWW4X/Npf76C/4PifDWk/O+J/bbtK/77DLJr/6LOEBGLz2f7E+af/J9cBXHGraQbxIsDIEZRWqo27LRvf8SVQEiMcQekh+7z0pidl7MwtL323xq7z2c/xVZezMCQ+xoGAgEYjGNNpzxIGGJOK/UldsYI901VjIQhb9CdTuuMEQnDjFNJJ3bUz+uGZPmGvMHgYmoptwwndprR64aYZ2hoeOweyLSlvEHbtI5nlDBE3Fm0SZ0hKjMu5Ue6p6QoM2rbcA2ndNStTBlu2397YYOm0mfIjEv9DkMjXE3kSGaZloZ1T9h/VJNwlDGkz2YNd441vqOMIa6eGNblaI7uKGOILIGp7fLI7FEPNJQy7G5rrhRJNuYLKWWI6JeIohFuRqyscoaEH1B8oDxaI3WQcobIFp98KlI8iqOkIaK8kGIL69Qeoa7KGiJL7FX8pvT1j1elDXtOA3fE+wdC3hCxPqVohLqrqgJDxPrlfH0hrYoqDBFNeinuXZ01VYkhohUnws9hpVFRjSHCrEevUXPSF+ZQZFgXo98rwzTR1m0oM0SYHvvknhxnMPf0B2Zve+SA+ZrGcCoNmznBk3CTUyg24aHWsHZkuegYJ9bT2qg2bJItAk/shay09PzqDZs2BwtV1lJLezqEIRKtrI6OQhzIsKmsbvzMcKejEAczbFKxgidfHWGmoRAHNGwcze6Bjo4J8UEN67ramb8omnojxcCGdZuTdcxurDXEigc3rD87OlrVQNltuAxvWFdVvmI1fCHqMESM2/+rvU8rWgz5iSnbhRgiyuv8z0sxxCbHkLOmWCV6DLmZmhM37LHenHDammjShjjKhEual0+cTNqQlmEu+nEwYj6xZCZ7JLaTB7el0ZBtK5urvzZFBs/c3sKd9Jjm/2oEL3jqyHhpKaEKhScoWG8RJrQ7n4Rxl9KW0/4+/FlREkYu43cd1OeG3jR0FsrWzLylGW2b+sQURTw/PWn96lYFhWXiM8u2b4VJmsV4ptcR6N8PqnZ9DGWGF8pDsqoCVnsy5OZ3Cypb8HREvYdY2VUjFvTW0FcMZijEZuoxb2nDYOrzFrKGJz0TiOMZfkx/hlTOsBBZaaqC0QwrXYmKYxma2jJqxjEMHX2ppqMYFv48cqJeNtwMtMVnO/oNi5XeLFoJQ1I9ncb+S3gmmrO9ZeKlhLpd30YtFFvtKcKyqxFs6h+ebMh6Yx/7Y6xIkI7qY2pl6aF88rm0fzs7VHDljOpZU6eVXnchjNLAPJ6/3tZ/Rfflzkv9QHjv4ACZiodzr+yG3H4d1lgEVZ5uk8g7eFGyXZlugC57KQlfhjgomcrqUw4EY9tmdvOHMdy7OOwzmtiOBaqhGxQu3DBERj7xaioFyw2kK/F0HOimNjSyURedDkqzXwrSFEcdh2atX21o6MhZHAXcbOrTGOrJHh4Bq/xvaETLVLQuK4suhpPaHUUZNDV+DJeoaJ2M34ZT2gBGDdZ1L5iroXGwlzS2YfZtHerN0Cic7j00ZwShzk+g4MfQMGJ3EhvAyILvV2b8NqwdHas1P2A2NMcmOfchu3vDJrwT5RrSwQciyKP4MVr3D6e8ZWvFns9WAAAAAElFTkSuQmCC;" vertex="1" parent="1">
          <mxGeometry x="243" y="313" width="37" height="37" as="geometry" />
        </mxCell>
        <mxCell id="GsARXMGo50Wr0_jEXAOD-23" value="" style="shape=image;verticalLabelPosition=bottom;labelBackgroundColor=default;verticalAlign=top;aspect=fixed;imageAspect=0;image=data:image/png,iVBORw0KGgoAAAANSUhEUgAAAOEAAADhCAMAAAAJbSJIAAAAw1BMVEX////hHyILb7YAbLUAbbUAarTgAAj3ysv0tLXhHSDfAAAAaLPiJCj//f3xnZ7gERbwk5XgCQ/q8vj51dX3+/1vn8zhFxtFisP87Oz+9PTx9/s2hcH74eLlP0H63Nz97u7f7fbL3+7pZmjyp6joW13rdHZ8p9DlRUfkPT/1u7zkMzYAY7HmT1HiKSzzrq/qbnCYvd2qy+Qje7yMtdi/2OtVl8qpy+TP3+73xMXtgoPwlpfthohgns1WkcbpX2CCrdQqicTBeSk9AAAOIklEQVR4nO1dZ3eqShSVYgygIhYsoKKxxJYAgppEw/3/v+pNoaoxuS96GWexP6QQx3W2c+a0mZzJ5TJkyJAhQ4YMGTJkyJAhQ4a00U5bgJtj10tbglujNk1bglujtXpMW4QbozVd9tOW4bZoD5VC2jLcFu2x+Ja2DLdFe6w8py3DbdF+lYt0+8TWUlX1tIW4KfS5INPNcCcwlDOsKIzaSluIW6I0FYRVKW0pbomCzKjLHMUUS2OZkctpS3FLFGRBYGppS3FDlKYqo37S7PDLMsOIT2lLcUPMGIYR5hSbmdazwFBtZ1pLoKPqiN78t/SqACUVZ2nLcTO0hpCgTG/22/8EKsqoU2pD0t4UEhQYaoultWdIkJGpdYUvDwIkqJwh2KJCbSsCIiiOT3x9YTymIBtujURE8OEj+bxd+BBXNPiOGrIxgOA4EXC3ykNZfKNgAnNPsgr5Ccp77GG7NlRFcUhD7bv0IQunBGvDlSyrFRqSKH35gDRUiO03lWpLURbkEQ0Kmust8RKU55E+tsYrkASLZRomMDfDS5CRh6HPa5cZQFpZ0rACgZtfCcdGVB/CZakMqUigSmXsBYVYxvsoyNDovKQo1hVRFnwjGkVq7/CRUKRkk/tJxEZUDSesPYb5oTqnYwnmdquTGUQEBVoI6kVsZOTIz1cQQZUSgrgiAwh+ho9eUGyj0lJne8GOXngO4xZ9DgnKr7SUSrtYR9XQaoLwFM0pJTqaK+BgVB2FT3poXaqfFwbdFcr+Koyy23f0RKHEE6ItQjhj0eGu0hIGqIKwS1OsK6I9RAG3/BGaFWxnKGL4is1KpJOFIlJbhYaiDMIb1tJoxnyG9FT0nx5QeTvay/YZCkUqaqMANeWY4YrBavp+YdRdYYq8X7Tq0M4oCnJo2bZ4ko/2KEa4nMGo4/SEuipaU8BIjtXwyzjKoWh/dCbCVDCqF/aKPkPhmZazNHA7VIlSpdKrr6aMPKIkvegB2yJ0o5poza+7McwDNSmimIhqcm9KoKdzWvQUBDZqN/Lw/W6op68pSnVNtD+VxI7hTg70VKQlsulPVUGIJfVlOWBIS5qYq81VdRQZGz9tBDa2kqJQ10VvpSoxPW0vVdoY5naMGi+QFhSBNoYgqZCjimKgpyItqT7CjBFjwfYjKtcoVGyOhijMYxU2HeaJMk1KClFbdcOaW2sFYxpacsQQejcsz+hFmspREfRlMGszlXn4ohpVNQYDo/qvRPoV6p2qYXQSj9q+8Sy9ycrHueRpO9G4hSRJbNMknGR9YHr7puZuzsupA8N6zo6ueXdtNmyJY3lOs24r4v9H3XA8bbHIa5OvRRydP6PQGeDvA5dnWVbad869KG10LKBn0sLeOxe07GX+jZGpmwtIsVG/rnC/R32wtxd5Pu9aF0WbvX3v6U3AkOXMq4l2HTguywG57M3lj75UO1ug6SR0su6Ct+JtoszNQFvA1cNKzl8NAxZ361hrt2kmV90AflgSSdbGsBE/ls1PjJ+NqBsDa7NuHJo2u2DN40EdDarp5MpS/gaOxPrIc03PcraGUa0D+H8GP3UMw9hut45jWeuJ+8e2WUnKS3mOl1jz1GrW9+AT49x/S+IyNizHByQ5nrNtTTsANBBc+KOmaYAWz3NcngcAPg+AtfeWcebtCGSYq1uTps2DOeF9pogBRh5+Cf+AWLK25nqmY3z1bk3IcP8vCfwA9aoBFVCzMTtMi4sDcrTt5n6ythyjesmjG8hqkeYufMAVB1bbxlyv194EAfy0NjcbyxkYl4mFMOG65o0bi5oiqhpSUuKCmuvBQw5/m7YYF9H5zefvQJuUJ3QVYmw97zejbUjwN+9waxh7tvmLkNJABMnLLCKYLPcbOz+w88Bjrq8nz9Vh5oGVOBjfvQw4Fcfcn34Sjs3zee3v4vd/C2ToQR7lWV9VlKqGY5mTAwiAJE6aJF9TX8OgzyMqbTpGx83jCJwHsWnz4HqeuTFNZzCwwHfP2x+aIOiBAY8fw9pWjM7WlTjWHaQn/Y9gaPkg/EThdR5CAoDfYbAdxqeIobT4Y/gjOyZIpPYkK6iPqgkUkP0enJQHqYU58Oew7tis5hkEm9AYqk7DhvPFn6fGg6Qwn7cPYKlGQeq2aa+d+6CHUO9szYYLE0KUK/mpBaIMkgu3sbaMZNRTNbdEVg+/QdUYOI5prlGCAUwOsDjA5Bj3SCUDpbgjs/G/UHfOlNAoQsfSOCNtIW6J6iHPf8fwrme446IC8QQW1OrHyxFunTow8m7ek4M/AkrSYfkbxN77ydq0LAfDskyvcdBsTgLOn2f3pMfYX8KfQ78ujOI3nsNfwC9RLMexzS3RidLXqNo/Cb0Bf2nh3qmqVtc2931ywWsN534NzmDNSvkvkguovNKCnZzdlCEXdbR7FltX9YF3sFk/o4i4gdXI282GeSeZYADDmrg2t2A1N7HJDbdBPbRZ6MO2NXdiOd/YF9KsT327bnKSZDc2X04LmF+E6s/mzdgbV5PuCnD2IJ9faFddUwdyLGzd0STgu5vXLR8ZNkvKrkzdQ4Wz39Twz8A4LEjZ3642kWO/6kZfZzDhyDnx5fnBGX+4fAzqx6g73gEePiFmFWqBpwOm1LW2P7SUZ4APDu3thSRxzWgvw7iGkL/CehGLoiW76a43zl8ef4XlOHxwiIOV8cSZP4eAsxiOa8dDMz4vLSTW/uPu16bjgAAH+cAYkFPcblGN0du7aAtjAev9PAdSrcM6HqVW1wsSCvydrbXX0M5EFJvxbHCyBIQwtt2MQYMPUMyNS8Q4ROUARcAuGS9YTYmgkwogZ/f2B3iQBs1oLA6FmzNHiP0NuFIYxZnH0UJ9sLZBXkWKQfVRByo4sNaTPTwyhA4M5f3kNzowhB7k0U9Qlxtw2Z5WwLema4MXTUiLTmNAZOFSMz3PmzQigF8909w4zlcHhzrwDDUngU+C+E3EGOoRLr/O2MCNYTjTrEtsYlz/H7suYMa3ljlpsgt4FpPPs+7JaVOC0Fnv0eL6Ec868PIb9G8LcOECw5PneXtP/C5b1fLAbPC27brexNzAMuIgBlhR3AB7hPcWObT3zUE/KrHaHm4qpi3/j9ABWtdo2jhIgf8BEwPez0dfJd+JwrTf22x/mh0TBBhpWqY5mTQOh0NTS8A9HBoTYFYtWNC4O2ZHgEe8O51qEuDJd6Y1Q4YMGTJkuCP0xhBU9P7/AgVVBhApac19DrhR4AM1rWZOkTG8f2QM7x8Zw/vH9Rie/Jt+qU1EE6JThu1W7fHpvfxentWiNtcthMSVJG38rBT9Xngsw3GPNdyqrvVRrtTSv6DtiGFpV/l8LioKiHMUubis+O2v2qMpxCg+KU9d+KiLuyeWZuXRM4PHKcXlOxo3K3y+nV5g9q+RYKh/zFVZDboGwptXVk9YwjdZABDj4esYPlKnkIs+Ph5XhHNXqL1UHsliOBYjKX1Z/StxZ7hDW/zGtU/Y8EselmBHntNx8MqPEkQKnJJIMIS3PQiqIqzm85Wq+tOB1FBHPZLVZaSmbdSfHXelm4nFk3EMKelKgmFNUMT5+GlWqNUKL694YuQh+hPqQC+sop6lOr5HDyUlPRGOK88KPTgOd+ST01+BGAmG/XG5F8k1w130i8hqPKHOrLG7SXZq1OGz9PquR+N26IoIQSak+eclf4g7P+PLH3TMcBgSQU0+BRX/kpyud0ReIaTp4CWGLaxuSBFLfivvoHtiCTXdP9/Xu4cWrUJIo+GLMQ2S1L+rC1/nEfbx7o8Qi7MOvY/af5LSGvMiw2mMIe4CrQ79P+mo/eXqrMFsj+6EYQnfpOMzbE+RNQ2aJu/gXV7C+XuP74Jhu9/X9VacIb7KKrx0Bt3uIb8de4R2v6XrPdK1tLQrv72ORt3uFNmWgCGatVBuNKMPiWWIxy273W5RIJhhaTYURRBAq6oq4EgzYNhHq1JYobCmxqDpjfrStgufwThVIKoJ7xHD2qscdCQPEDD0e+sqKKx5RN7wOXyb3qcgH40jk+GLKOO4WVHnAAmGuUc8pbCtJ2Yb3TfnX6WrKg8CHEeuls6Q7qnitFIo9Ho9Pe4PwTzNw+gba2zYH3qHr9xRuuVdDYyrEWtpWviz/wzD62mCYW4Y+kAUlIZtzDF1eRQ0cCXXW+BQM7zrIekPc0FYA39HniPMFtFv6jI0O8Qy7C+TF+ecMNTx3YevuRKaXDGYM/Q4djsbsQx1ZOWjFs+lYy3FkoNJriFz9Oy7+xZylGrMc5DKsIcCsW4o6ckc+kmiqCN1Dp8XEEMhCuDIZsjE23QfMyxgU/SEEv7wjhIc7Mj3Mofx651mKpNkWEIrVXiGY6KbOvEcytEm69OKUH+oI28ozP26b3/MCEcMc/iSzliFBr0Qa+nSV9PWm0pU1LYTQobtTzxn00e9pRc+iorAHDMsBPfoBPEpwhx/EtMZGLerMApZURsKMAN/iGVTmedldwVcgHCspbl+NyiMxu8NwAYITG0wjqg5xAxFZDXaSz96xlmFKjzB8CvOsPSmBlMYM0j9UTBO8MfB3IoUhi/YAWB5e9PwIiBGlUc1lOfGGeKbLeAUJkpQvXmUWKjyEo8jhSHO3BXf1Pff5gpM8WRFHcEdiw+5WEww7OF8o6gkr7NqVVb+OGYEdyoqcBwZlyRi6yLMw1hUf6y8DodvLwX0pFUDSNRiejWMo/cp6bMPOO6p9sW41KDjFUfNLdSn+MCl7PT3MW8Ff4uBvgtVAuDUlRird30Unv0ghogTBddHu8zg8hE1F24e493fAaWWYK49VuA+5lD//qX3itZUUYKzFpSi91khI+64HSi1oRkyZMiQIUOGDBkyZMiQgTb8B9CJX+8heprQAAAAAElFTkSuQmCC;" vertex="1" parent="1">
          <mxGeometry x="160" y="555" width="50" height="50" as="geometry" />
        </mxCell>
        <mxCell id="GsARXMGo50Wr0_jEXAOD-24" value="" style="shape=image;verticalLabelPosition=bottom;labelBackgroundColor=default;verticalAlign=top;aspect=fixed;imageAspect=0;image=data:image/png,iVBORw0KGgoAAAANSUhEUgAAAOAAAADgCAMAAAAt85rTAAAAe1BMVEX///9tsz9rsjxpsTn9/vxosTf7/fm83Kf3+/T5/Pfx+OxhrSxnsTXd7dN3uExpsjl8u1OJwWTs9eWQxW3S58Ws05RytkTk8dzX6svi8Nmp0o/q9OOezIG83KjC36+byn2BvVrN5L3I4riQxW+z152l0IqdzICVx3ZdrCaYhcDzAAAMEElEQVR4nO2d6ZaiOhRGmxMCCGFSJhEwIBT9/k94A2qXJYhgJVh1V/afnmo1fiacKcnJnz8SiUQikUgkEolEIpFIJBKJRCKRSCQSiUQikUgkvwTViO2grHI910NGret5VQX23lDf/cm+j7oxgzw9+l7kEkwIwR2k+63i0bbRy9jQ3v0ZX8fYlymNAGMEoAwAQBhD5B1z23z3J30B1SzTXcRUjEj7KpP9hN8U2981XY24bj33ibYblSg6pcmvGUf1UJ0UNi3nyutBGKi+37z7s89A26e+8mxijo8jeFlpvPvzP0FNsgVTcyDRjU4/WqIWZNFLg/cpEcGpePgyqts11Qxgk9P5nryzxugYPBjFOF1X0VeM2sPfl9eBlXZ8qGrnfZZ2U/kcRu8KePWIFJOScn1lZ7ZsdnKT1ylUjvbgIYVCwvcEdlpJCVd9DOTod2+iSQH8t8xRM+Q7fGcAPva3T1ELrChR8gZ9+xP34TuDaXXzmC0bQAXWt6Na5SAh8pTuTQw/p2QKrhcBXXuObmoR0/NTYXN1GLaDnJKiKFhZX8jROYwpdHeH84NOiKSbhrj1qvrMBouU14FOnV1RK+Q6hz/lX3Rac46aR1e0PqaQMoV7inDIYrUI1rSjsS98/HqFUaAdkdV2bvGIsb6evtMK49crpA170/uRy133uFY+ZfjC3MM9LIlyzwPHbKkXr6PPzFaZnxdIdg5CjRZH+Sr61HSl+dmD/cuwqTqGdg19WriqPudfVBoT5K1QmlJzRah//woLYf492aSusoKjKL0V9QGpPqvCakhQLbxIfFhVHxS3ggJArWhHYXys+AJC9DX6PPjYOYjVp+ZkPX2IVHdPz4grOKNIVpygyCnuqzC5i0KhdtRoV4tgFOxVA4NiR2gnMqNgrnYteYD8YWmNhYiutx/+NTfWm6DgZmNh5yYlSiFOn9qupY8o93XDC+Vf3IgTWEXrCAR8emQrDxYSVx49+OvoQ1H60NkZFDnCorV1XCBYXjARjmX43jlyI15jAIE44eQULICICkfrFeRhdEyml1gSB7diXsItFT6ACLVTs7PHpERM3ULNBQfZgNAuf54qqCcspsBtin0DEcG0nDX1UqSEIl7CSqw8L7VnLm9WCuwExNuGsCAGXIRo/cS03BA7SMQqUyJmHQkREtF00YY8k7rOSBj+Xbj7iG6/IXFpptvmsjfKOJKIv6vnYWKg212IEMKYdNtGgTZFEC9/m7SaIP7LaMGrURqAy8RYDGAZuudR3z8e07pKtptX90xUFmp477fY1MsTXTZYzHxEnt9maZjneVlWiW3Hpqmp6rfMfOKiHe9tXYelUYxLsOLswiqJD6bB2ajHHn8rEyyyoYDBb3Lb0MQExeYOcy+tpQvkIRJ9FLHA+vOmJbwzJnX2DAWC/Er0QnpoYZ3vFxjPnKGAIBWwp/VejE7chu9TynnD57rt/IhrNuogEKgAcU4J6znVXkA7ITuSjUEJJoiQz3WFYlagzZIYMcsi+4HFtB2Xb867nVHuJVRUrSsdaDl4mG9lbf80jAG3EbX9YZ8OXjeTYofr7t/AejY9YfgpeBEWA49g+Hx3W6jFk0gbRcNlIF6YznCtpdtOwjOfMNLpKSpSn1bvhpbZyBDwXKAwp9cEUSRwuSdxRuZiJzDj+JDpZPdumwBftJMykhhtQhedOD5l2kugVOC2h3J0Z5OmI7Tj+BR7SiAWUcK7wubOWF7EW+BUQc31BW7/U0MrG3M/KwoELGopqyNw/o76c94Cq+jxBG0EJramT8Z3VPAWWDwUiDwBFdgrm9qCcQe0nkAiZBXk+lh4VKJfTaCQNYIriYOUBy+4lq8kUNha8p+udIYenpLQ6nUEQiRu45+ZWTDqAzuMZh2BSNz+aRaMKe7x0b8ygfDwH1+gHBcIAtZ4rhQI4LGFZukS12zigaMXuOOoAFDI4xyFJbxKyPFxDwSKMzGJhxQ8cQ5rS1HE84xPPB5sW6KcvA2IJZkTmyZjj28OOr5BBhxBnQkSrysgTJUkggg5PFdfmEsataFi8kCbMn1ksnJdKRMW6AWMbGwLEBFzGjMB3MW4k0lYTYDydMFaPVZVQ0IqMRWzLwoo01XP1IITz/djtGwIIvZTqSXq3gZLn1zC6RZAM67vhz1S+BWRKRm10ukjTz793uG9ozIesaIu5W5EjbTXh7wn/3NAFM4rvGN1Q/6pUnyyusfgp1Mjt3g3fdCaEYGcAzU1ob2tRk+XVYwjM6KcS126cIFace4ZgdynxnnrAfA+q5wMjxPwFWg2uNcHM059MDcPvH2wOYxGub6Dwe68vANk2kH0sGQw4t4baBiscRzBTR2dQyXAzfMyuUkxeNxLCfkg50W8zkip5e7S7grccMar1c3QlvtygT1ICYHTKrmRO5fVRyCjdfo71AwpXJPBM8MlQgAevlYNfOvy1YFbzxmXrcVSCf4H7EYOtvLIJuxGuX5xgKs5e4i02lKQiIYW9vAl/PaLYN40m8Mzl8G75HuiWvM62nH4En7PjG5zSv7Ne+LPzE1yJGSGdv/z/Qh+ryZjFj7+Jw/csdOsY2x9rCCey/OfDPf8fqNRnVl41meVAKxmZmaidqk3fy/fo4WDOfqiu90kjYNvjDKOirlvs+2CIqw/3qA6Csor7sgMGse9aeYFhM72N5uuiw3OBZVjjeO9K0TeUnNt7EOKrNsvCkE2P3HuCt4CwrQrwyUKvMhem4lOI/dre2PsFfO/pH7fMRLXonIziLgRnf3ptKA+KeSuz5xL2gUWX/sgXa1LYJuAahCQknSOeTD3Resg677JIyJ+uSBW0NI+mPp4+eM/ZyQgfWqyNzEbugihQeNtIN70YeR7+jP8fCvaA4Jh2jsVVahmULcetka6igNeuoM26IsKWGxzQyMbKtyNKzQPdn6kESJjyxqAo3bh/vWgX5HhXmy6Z5gWsihyaOa3QZFRgh80hAeC2kGfmCck55IUCO+qNnJMEkU3eY5m7As2cOTv6Mj1g0eicKkhVCu3T4rRSXjPMfM0/OAQZf1JJdMO6g8aKUODcjN40ak2lzoyIzwX9QRbmDPBSD8SwLQu87D1XOyO3p5x/imELS8MFp5nZeyzS9YoclvOJ4OYu587RMEDP3enLvLT4IWLM4zCu9Zs/FU6Ux5Gl3snW+UBQhFtiuVj96cralwTD+C6aj31yNtJ6HYX1TwZOgy+/trFLmrcuP9W7tx1+lL2nQ3/fXrww6LQW+dRlwuEFdrmS8+RXzDs0Pu0V8B3yXMK7XpUCyA8qN3FSiUdmbbdMfnuUp4XP5cRpN6Nr1mtc2rH9uwr4PN4zeG+XywLxSL6klHp2GztlLq3M59XmXkmdl+fITct6r56D+bumMl87fC1asZB6kdw940JPJsxRh854ZtJY7TX0z+ACKF68IpRUTfbIE9PHrmP8UCp176IgaWG6Itbula+wdnVydY0D4fD3r4Qsz8c4oPZYWhfUA2z+9m9nVR601IvAjJ28YjYdoZjaAXgj9unFhdz7mRFUNTNh+/7TnSB+h27JmOkeq7fkNfsb08+EwZ944RRhyOqh9M0NTneCswvAj1P+WtZhNymuKinu92NnLta3NLd+TZ9DdXUvkOBGOHtEq963QzFv7s/Ob7pOiJDv7HcprC+4ojrpq1FqJ8+XNUFdewC5fjGW9/Uq0B1WG/jpA+WFaa4YyadxjgVdK/GG/zfPfusPfoOpzuz7kFe+f6LFw8tFiRPcYW1HljEprgPG/kAbiO4ofZc1OQk4BVES1ZlRLOtEedBBKtdoYC2AL6DCIjOXvNdC7P2uA0iKKMNqN+N3TzIBRaC3N0PcA5jGEH7/SbVoPj5e6/6nMIo/O+5DMBe/XPldWySVnn1nlqW8NLHV7j+GDZ2SF8ZRnCd44++hPcTNS6OgJeMIyAX+3ryO+T1GHbe0mieRjbcjl//nru+r2zs+kSjx4tpZ3GAwNuFpfEz/cIztEOQN10JtwPgcjl9/5uugsYG2Gvrcv+LZuYIxnafFGHW7nzqeZ6jKBH7xfP90zHNy/3htVWZH4emGWacVFWlh2HNfgnig7ER1Hv0faiapm0MJkz730mTSCQSiUQikUgkEolEIpFIJBKJRCKRSCQSiUTy5z+cIr7iQ3PY3gAAAABJRU5ErkJggg==;" vertex="1" parent="1">
          <mxGeometry x="223.12" y="560" width="50" height="50" as="geometry" />
        </mxCell>
        <UserObject label="バックエンド" placeholders="1" name="Variable" id="GsARXMGo50Wr0_jEXAOD-25">
          <mxCell style="text;html=1;strokeColor=none;fillColor=none;align=center;verticalAlign=middle;whiteSpace=wrap;overflow=hidden;" vertex="1" parent="1">
            <mxGeometry x="180" y="530" width="80" height="20" as="geometry" />
          </mxCell>
        </UserObject>
        <mxCell id="GsARXMGo50Wr0_jEXAOD-26" value="任意DB" style="shape=datastore;whiteSpace=wrap;html=1;" vertex="1" parent="1">
          <mxGeometry x="170" y="720" width="100" height="110" as="geometry" />
        </mxCell>
        <UserObject label="フロントエンド" placeholders="1" name="Variable" id="GsARXMGo50Wr0_jEXAOD-29">
          <mxCell style="text;html=1;strokeColor=none;fillColor=none;align=center;verticalAlign=middle;whiteSpace=wrap;overflow=hidden;" vertex="1" parent="1">
            <mxGeometry x="170" y="293" width="100" height="20" as="geometry" />
          </mxCell>
        </UserObject>
      </root>
    </mxGraphModel>
  </diagram>
</mxfile>
